G04 (created by PCBNEW-RS274X (2012-01-19 BZR 3256)-stable) date 12/19/2012 12:02:29 AM*
G01*
G70*
G90*
%MOIN*%
G04 Gerber Fmt 3.4, Leading zero omitted, Abs format*
%FSLAX34Y34*%
G04 APERTURE LIST*
%ADD10C,0.006000*%
%ADD11C,0.012000*%
%ADD12C,0.008000*%
%ADD13C,0.010000*%
%ADD14C,0.015000*%
%ADD15C,0.005000*%
%ADD16C,0.007500*%
G04 APERTURE END LIST*
G54D10*
G54D11*
X42478Y-35186D02*
X42454Y-35214D01*
X42383Y-35243D01*
X42335Y-35243D01*
X42263Y-35214D01*
X42216Y-35157D01*
X42192Y-35100D01*
X42168Y-34986D01*
X42168Y-34900D01*
X42192Y-34786D01*
X42216Y-34729D01*
X42263Y-34671D01*
X42335Y-34643D01*
X42383Y-34643D01*
X42454Y-34671D01*
X42478Y-34700D01*
X42763Y-35243D02*
X42716Y-35214D01*
X42692Y-35186D01*
X42668Y-35129D01*
X42668Y-34957D01*
X42692Y-34900D01*
X42716Y-34871D01*
X42763Y-34843D01*
X42835Y-34843D01*
X42883Y-34871D01*
X42906Y-34900D01*
X42930Y-34957D01*
X42930Y-35129D01*
X42906Y-35186D01*
X42883Y-35214D01*
X42835Y-35243D01*
X42763Y-35243D01*
X43144Y-34843D02*
X43144Y-35443D01*
X43144Y-34871D02*
X43192Y-34843D01*
X43287Y-34843D01*
X43335Y-34871D01*
X43358Y-34900D01*
X43382Y-34957D01*
X43382Y-35129D01*
X43358Y-35186D01*
X43335Y-35214D01*
X43287Y-35243D01*
X43192Y-35243D01*
X43144Y-35214D01*
X43548Y-34843D02*
X43667Y-35243D01*
X43787Y-34843D02*
X43667Y-35243D01*
X43620Y-35386D01*
X43596Y-35414D01*
X43548Y-35443D01*
X43977Y-35243D02*
X43977Y-34843D01*
X43977Y-34957D02*
X44001Y-34900D01*
X44025Y-34871D01*
X44072Y-34843D01*
X44120Y-34843D01*
X44287Y-35243D02*
X44287Y-34843D01*
X44287Y-34643D02*
X44263Y-34671D01*
X44287Y-34700D01*
X44311Y-34671D01*
X44287Y-34643D01*
X44287Y-34700D01*
X44739Y-34843D02*
X44739Y-35329D01*
X44716Y-35386D01*
X44692Y-35414D01*
X44644Y-35443D01*
X44573Y-35443D01*
X44525Y-35414D01*
X44739Y-35214D02*
X44692Y-35243D01*
X44596Y-35243D01*
X44549Y-35214D01*
X44525Y-35186D01*
X44501Y-35129D01*
X44501Y-34957D01*
X44525Y-34900D01*
X44549Y-34871D01*
X44596Y-34843D01*
X44692Y-34843D01*
X44739Y-34871D01*
X44977Y-35243D02*
X44977Y-34643D01*
X45191Y-35243D02*
X45191Y-34929D01*
X45168Y-34871D01*
X45120Y-34843D01*
X45048Y-34843D01*
X45001Y-34871D01*
X44977Y-34900D01*
X45358Y-34843D02*
X45548Y-34843D01*
X45429Y-34643D02*
X45429Y-35157D01*
X45453Y-35214D01*
X45500Y-35243D01*
X45548Y-35243D01*
X46239Y-35471D02*
X46215Y-35443D01*
X46167Y-35357D01*
X46144Y-35300D01*
X46120Y-35214D01*
X46096Y-35071D01*
X46096Y-34957D01*
X46120Y-34814D01*
X46144Y-34729D01*
X46167Y-34671D01*
X46215Y-34586D01*
X46239Y-34557D01*
X46715Y-35186D02*
X46691Y-35214D01*
X46620Y-35243D01*
X46572Y-35243D01*
X46500Y-35214D01*
X46453Y-35157D01*
X46429Y-35100D01*
X46405Y-34986D01*
X46405Y-34900D01*
X46429Y-34786D01*
X46453Y-34729D01*
X46500Y-34671D01*
X46572Y-34643D01*
X46620Y-34643D01*
X46691Y-34671D01*
X46715Y-34700D01*
X46881Y-35471D02*
X46905Y-35443D01*
X46953Y-35357D01*
X46977Y-35300D01*
X47000Y-35214D01*
X47024Y-35071D01*
X47024Y-34957D01*
X47000Y-34814D01*
X46977Y-34729D01*
X46953Y-34671D01*
X46905Y-34586D01*
X46881Y-34557D01*
X47619Y-34700D02*
X47643Y-34671D01*
X47691Y-34643D01*
X47810Y-34643D01*
X47857Y-34671D01*
X47881Y-34700D01*
X47905Y-34757D01*
X47905Y-34814D01*
X47881Y-34900D01*
X47595Y-35243D01*
X47905Y-35243D01*
X48214Y-34643D02*
X48262Y-34643D01*
X48310Y-34671D01*
X48333Y-34700D01*
X48357Y-34757D01*
X48381Y-34871D01*
X48381Y-35014D01*
X48357Y-35129D01*
X48333Y-35186D01*
X48310Y-35214D01*
X48262Y-35243D01*
X48214Y-35243D01*
X48167Y-35214D01*
X48143Y-35186D01*
X48119Y-35129D01*
X48095Y-35014D01*
X48095Y-34871D01*
X48119Y-34757D01*
X48143Y-34700D01*
X48167Y-34671D01*
X48214Y-34643D01*
X48857Y-35243D02*
X48571Y-35243D01*
X48714Y-35243D02*
X48714Y-34643D01*
X48666Y-34729D01*
X48619Y-34786D01*
X48571Y-34814D01*
X49047Y-34700D02*
X49071Y-34671D01*
X49119Y-34643D01*
X49238Y-34643D01*
X49285Y-34671D01*
X49309Y-34700D01*
X49333Y-34757D01*
X49333Y-34814D01*
X49309Y-34900D01*
X49023Y-35243D01*
X49333Y-35243D01*
X43094Y-36174D02*
X43166Y-36203D01*
X43285Y-36203D01*
X43332Y-36174D01*
X43356Y-36146D01*
X43380Y-36089D01*
X43380Y-36031D01*
X43356Y-35974D01*
X43332Y-35946D01*
X43285Y-35917D01*
X43189Y-35889D01*
X43142Y-35860D01*
X43118Y-35831D01*
X43094Y-35774D01*
X43094Y-35717D01*
X43118Y-35660D01*
X43142Y-35631D01*
X43189Y-35603D01*
X43309Y-35603D01*
X43380Y-35631D01*
X43785Y-36174D02*
X43737Y-36203D01*
X43642Y-36203D01*
X43594Y-36174D01*
X43570Y-36117D01*
X43570Y-35889D01*
X43594Y-35831D01*
X43642Y-35803D01*
X43737Y-35803D01*
X43785Y-35831D01*
X43808Y-35889D01*
X43808Y-35946D01*
X43570Y-36003D01*
X44023Y-36203D02*
X44023Y-35803D01*
X44023Y-35917D02*
X44047Y-35860D01*
X44071Y-35831D01*
X44118Y-35803D01*
X44166Y-35803D01*
X44547Y-35803D02*
X44547Y-36289D01*
X44524Y-36346D01*
X44500Y-36374D01*
X44452Y-36403D01*
X44381Y-36403D01*
X44333Y-36374D01*
X44547Y-36174D02*
X44500Y-36203D01*
X44404Y-36203D01*
X44357Y-36174D01*
X44333Y-36146D01*
X44309Y-36089D01*
X44309Y-35917D01*
X44333Y-35860D01*
X44357Y-35831D01*
X44404Y-35803D01*
X44500Y-35803D01*
X44547Y-35831D01*
X44976Y-36174D02*
X44928Y-36203D01*
X44833Y-36203D01*
X44785Y-36174D01*
X44761Y-36117D01*
X44761Y-35889D01*
X44785Y-35831D01*
X44833Y-35803D01*
X44928Y-35803D01*
X44976Y-35831D01*
X44999Y-35889D01*
X44999Y-35946D01*
X44761Y-36003D01*
X45166Y-35803D02*
X45285Y-36203D01*
X45405Y-35803D02*
X45285Y-36203D01*
X45238Y-36346D01*
X45214Y-36374D01*
X45166Y-36403D01*
X45976Y-36203D02*
X45976Y-35603D01*
X46262Y-36203D02*
X46047Y-35860D01*
X46262Y-35603D02*
X45976Y-35946D01*
X46476Y-36203D02*
X46476Y-35803D01*
X46476Y-35603D02*
X46452Y-35631D01*
X46476Y-35660D01*
X46500Y-35631D01*
X46476Y-35603D01*
X46476Y-35660D01*
X46690Y-36174D02*
X46738Y-36203D01*
X46833Y-36203D01*
X46881Y-36174D01*
X46905Y-36117D01*
X46905Y-36089D01*
X46881Y-36031D01*
X46833Y-36003D01*
X46762Y-36003D01*
X46714Y-35974D01*
X46690Y-35917D01*
X46690Y-35889D01*
X46714Y-35831D01*
X46762Y-35803D01*
X46833Y-35803D01*
X46881Y-35831D01*
X47310Y-36174D02*
X47262Y-36203D01*
X47167Y-36203D01*
X47119Y-36174D01*
X47095Y-36117D01*
X47095Y-35889D01*
X47119Y-35831D01*
X47167Y-35803D01*
X47262Y-35803D01*
X47310Y-35831D01*
X47333Y-35889D01*
X47333Y-35946D01*
X47095Y-36003D01*
X47619Y-36203D02*
X47572Y-36174D01*
X47548Y-36117D01*
X47548Y-35603D01*
X48001Y-36174D02*
X47953Y-36203D01*
X47858Y-36203D01*
X47810Y-36174D01*
X47786Y-36117D01*
X47786Y-35889D01*
X47810Y-35831D01*
X47858Y-35803D01*
X47953Y-35803D01*
X48001Y-35831D01*
X48024Y-35889D01*
X48024Y-35946D01*
X47786Y-36003D01*
X48191Y-35803D02*
X48310Y-36203D01*
X48430Y-35803D01*
G54D12*
X83973Y-51010D02*
X84278Y-51010D01*
X84126Y-51162D02*
X84126Y-50857D01*
G54D13*
X32250Y-22000D02*
X31750Y-22000D01*
X32000Y-21750D02*
X32250Y-22000D01*
X31750Y-22000D02*
X32000Y-21750D01*
X36250Y-22000D02*
X35750Y-22000D01*
X36000Y-21750D02*
X36250Y-22000D01*
X35750Y-22000D02*
X36000Y-21750D01*
X27250Y-27000D02*
X26750Y-27000D01*
X27000Y-26750D02*
X27250Y-27000D01*
X26750Y-27000D02*
X27000Y-26750D01*
X27250Y-30000D02*
X26750Y-30000D01*
X27000Y-29750D02*
X27250Y-30000D01*
X26750Y-30000D02*
X27000Y-29750D01*
X43250Y-27000D02*
X42750Y-27000D01*
X43000Y-26750D02*
X43250Y-27000D01*
X42750Y-27000D02*
X43000Y-26750D01*
X55000Y-52250D02*
X54750Y-52000D01*
X55000Y-51750D02*
X55000Y-52250D01*
X54750Y-52000D02*
X55000Y-51750D01*
X63000Y-57250D02*
X62750Y-57000D01*
X63000Y-56750D02*
X63000Y-57250D01*
X62750Y-57000D02*
X63000Y-56750D01*
X85500Y-22500D02*
X77500Y-22500D01*
X85500Y-21500D02*
X85500Y-22500D01*
X77500Y-21500D02*
X85500Y-21500D01*
X77500Y-22500D02*
X77500Y-21500D01*
X71500Y-22500D02*
X77500Y-22500D01*
X55500Y-21500D02*
X71500Y-21500D01*
X71500Y-21500D02*
X55500Y-21500D01*
X71500Y-22500D02*
X71500Y-21500D01*
X55500Y-22500D02*
X71500Y-22500D01*
X55500Y-21500D02*
X55500Y-22500D01*
X77500Y-57500D02*
X77500Y-56500D01*
X83500Y-57500D02*
X77500Y-57500D01*
X83500Y-56500D02*
X83500Y-57500D01*
X71500Y-56500D02*
X83500Y-56500D01*
X63500Y-56500D02*
X63500Y-53500D01*
X71500Y-56500D02*
X63500Y-56500D01*
X71500Y-57500D02*
X71500Y-56500D01*
X63500Y-57500D02*
X71500Y-57500D01*
X63500Y-56500D02*
X63500Y-57500D01*
X63500Y-52500D02*
X55500Y-52500D01*
X63500Y-53500D02*
X63500Y-52500D01*
X55500Y-53500D02*
X63500Y-53500D01*
X55500Y-52500D02*
X55500Y-53500D01*
G54D11*
X37107Y-35243D02*
X37107Y-34643D01*
X37298Y-34643D01*
X37345Y-34671D01*
X37369Y-34700D01*
X37393Y-34757D01*
X37393Y-34843D01*
X37369Y-34900D01*
X37345Y-34929D01*
X37298Y-34957D01*
X37107Y-34957D01*
X37821Y-35243D02*
X37821Y-34929D01*
X37798Y-34871D01*
X37750Y-34843D01*
X37655Y-34843D01*
X37607Y-34871D01*
X37821Y-35214D02*
X37774Y-35243D01*
X37655Y-35243D01*
X37607Y-35214D01*
X37583Y-35157D01*
X37583Y-35100D01*
X37607Y-35043D01*
X37655Y-35014D01*
X37774Y-35014D01*
X37821Y-34986D01*
X38059Y-35243D02*
X38059Y-34843D01*
X38059Y-34957D02*
X38083Y-34900D01*
X38107Y-34871D01*
X38154Y-34843D01*
X38202Y-34843D01*
X38369Y-35243D02*
X38369Y-34643D01*
X38560Y-34643D01*
X38607Y-34671D01*
X38631Y-34700D01*
X38655Y-34757D01*
X38655Y-34843D01*
X38631Y-34900D01*
X38607Y-34929D01*
X38560Y-34957D01*
X38369Y-34957D01*
X38940Y-35243D02*
X38893Y-35214D01*
X38869Y-35186D01*
X38845Y-35129D01*
X38845Y-34957D01*
X38869Y-34900D01*
X38893Y-34871D01*
X38940Y-34843D01*
X39012Y-34843D01*
X39060Y-34871D01*
X39083Y-34900D01*
X39107Y-34957D01*
X39107Y-35129D01*
X39083Y-35186D01*
X39060Y-35214D01*
X39012Y-35243D01*
X38940Y-35243D01*
X39321Y-35243D02*
X39321Y-34843D01*
X39321Y-34957D02*
X39345Y-34900D01*
X39369Y-34871D01*
X39416Y-34843D01*
X39464Y-34843D01*
X39560Y-34843D02*
X39750Y-34843D01*
X39631Y-34643D02*
X39631Y-35157D01*
X39655Y-35214D01*
X39702Y-35243D01*
X39750Y-35243D01*
X39917Y-35243D02*
X39917Y-34643D01*
X40108Y-34643D01*
X40155Y-34671D01*
X40179Y-34700D01*
X40203Y-34757D01*
X40203Y-34843D01*
X40179Y-34900D01*
X40155Y-34929D01*
X40108Y-34957D01*
X39917Y-34957D01*
X40417Y-35243D02*
X40417Y-34843D01*
X40417Y-34957D02*
X40441Y-34900D01*
X40465Y-34871D01*
X40512Y-34843D01*
X40560Y-34843D01*
X40798Y-35243D02*
X40751Y-35214D01*
X40727Y-35186D01*
X40703Y-35129D01*
X40703Y-34957D01*
X40727Y-34900D01*
X40751Y-34871D01*
X40798Y-34843D01*
X40870Y-34843D01*
X40918Y-34871D01*
X40941Y-34900D01*
X40965Y-34957D01*
X40965Y-35129D01*
X40941Y-35186D01*
X40918Y-35214D01*
X40870Y-35243D01*
X40798Y-35243D01*
X41179Y-34843D02*
X41179Y-35443D01*
X41179Y-34871D02*
X41227Y-34843D01*
X41322Y-34843D01*
X41370Y-34871D01*
X41393Y-34900D01*
X41417Y-34957D01*
X41417Y-35129D01*
X41393Y-35186D01*
X41370Y-35214D01*
X41322Y-35243D01*
X41227Y-35243D01*
X41179Y-35214D01*
X37155Y-35603D02*
X37321Y-36203D01*
X37488Y-35603D01*
X37846Y-36174D02*
X37798Y-36203D01*
X37703Y-36203D01*
X37655Y-36174D01*
X37631Y-36117D01*
X37631Y-35889D01*
X37655Y-35831D01*
X37703Y-35803D01*
X37798Y-35803D01*
X37846Y-35831D01*
X37869Y-35889D01*
X37869Y-35946D01*
X37631Y-36003D01*
X38084Y-36203D02*
X38084Y-35803D01*
X38084Y-35917D02*
X38108Y-35860D01*
X38132Y-35831D01*
X38179Y-35803D01*
X38227Y-35803D01*
X38370Y-36174D02*
X38418Y-36203D01*
X38513Y-36203D01*
X38561Y-36174D01*
X38585Y-36117D01*
X38585Y-36089D01*
X38561Y-36031D01*
X38513Y-36003D01*
X38442Y-36003D01*
X38394Y-35974D01*
X38370Y-35917D01*
X38370Y-35889D01*
X38394Y-35831D01*
X38442Y-35803D01*
X38513Y-35803D01*
X38561Y-35831D01*
X38799Y-36203D02*
X38799Y-35803D01*
X38799Y-35603D02*
X38775Y-35631D01*
X38799Y-35660D01*
X38823Y-35631D01*
X38799Y-35603D01*
X38799Y-35660D01*
X39108Y-36203D02*
X39061Y-36174D01*
X39037Y-36146D01*
X39013Y-36089D01*
X39013Y-35917D01*
X39037Y-35860D01*
X39061Y-35831D01*
X39108Y-35803D01*
X39180Y-35803D01*
X39228Y-35831D01*
X39251Y-35860D01*
X39275Y-35917D01*
X39275Y-36089D01*
X39251Y-36146D01*
X39228Y-36174D01*
X39180Y-36203D01*
X39108Y-36203D01*
X39489Y-35803D02*
X39489Y-36203D01*
X39489Y-35860D02*
X39513Y-35831D01*
X39560Y-35803D01*
X39632Y-35803D01*
X39680Y-35831D01*
X39703Y-35889D01*
X39703Y-36203D01*
X40584Y-36203D02*
X40298Y-36203D01*
X40441Y-36203D02*
X40441Y-35603D01*
X40393Y-35689D01*
X40346Y-35746D01*
X40298Y-35774D01*
X40798Y-36146D02*
X40822Y-36174D01*
X40798Y-36203D01*
X40774Y-36174D01*
X40798Y-36146D01*
X40798Y-36203D01*
X41298Y-36203D02*
X41012Y-36203D01*
X41155Y-36203D02*
X41155Y-35603D01*
X41107Y-35689D01*
X41060Y-35746D01*
X41012Y-35774D01*
G54D12*
X56196Y-53781D02*
X56158Y-53762D01*
X56101Y-53762D01*
X56043Y-53781D01*
X56005Y-53819D01*
X55986Y-53857D01*
X55967Y-53933D01*
X55967Y-53990D01*
X55986Y-54067D01*
X56005Y-54105D01*
X56043Y-54143D01*
X56101Y-54162D01*
X56139Y-54162D01*
X56196Y-54143D01*
X56215Y-54124D01*
X56215Y-53990D01*
X56139Y-53990D01*
X56386Y-54162D02*
X56386Y-53762D01*
X56615Y-54162D01*
X56615Y-53762D01*
X56805Y-54162D02*
X56805Y-53762D01*
X56900Y-53762D01*
X56958Y-53781D01*
X56996Y-53819D01*
X57015Y-53857D01*
X57034Y-53933D01*
X57034Y-53990D01*
X57015Y-54067D01*
X56996Y-54105D01*
X56958Y-54143D01*
X56900Y-54162D01*
X56805Y-54162D01*
X55967Y-20762D02*
X56100Y-21162D01*
X56234Y-20762D01*
X56596Y-21124D02*
X56577Y-21143D01*
X56520Y-21162D01*
X56482Y-21162D01*
X56424Y-21143D01*
X56386Y-21105D01*
X56367Y-21067D01*
X56348Y-20990D01*
X56348Y-20933D01*
X56367Y-20857D01*
X56386Y-20819D01*
X56424Y-20781D01*
X56482Y-20762D01*
X56520Y-20762D01*
X56577Y-20781D01*
X56596Y-20800D01*
X56996Y-21124D02*
X56977Y-21143D01*
X56920Y-21162D01*
X56882Y-21162D01*
X56824Y-21143D01*
X56786Y-21105D01*
X56767Y-21067D01*
X56748Y-20990D01*
X56748Y-20933D01*
X56767Y-20857D01*
X56786Y-20819D01*
X56824Y-20781D01*
X56882Y-20762D01*
X56920Y-20762D01*
X56977Y-20781D01*
X56996Y-20800D01*
X28848Y-32260D02*
X29153Y-32260D01*
X29001Y-32412D02*
X29001Y-32107D01*
X33848Y-28260D02*
X34153Y-28260D01*
X34001Y-28412D02*
X34001Y-28107D01*
X33848Y-26260D02*
X34153Y-26260D01*
X34001Y-26412D02*
X34001Y-26107D01*
X34152Y-24260D02*
X33847Y-24260D01*
X33999Y-24412D02*
X33999Y-24107D01*
X34152Y-30260D02*
X33847Y-30260D01*
X33999Y-30412D02*
X33999Y-30107D01*
G54D13*
X35750Y-35250D02*
X36250Y-35750D01*
X35000Y-35000D02*
X35500Y-35500D01*
X35500Y-35250D02*
X35500Y-35750D01*
X35750Y-35000D02*
X35750Y-35500D01*
X35000Y-34750D02*
X35000Y-35250D01*
X34500Y-35750D02*
X34000Y-35750D01*
X35000Y-35250D02*
X34500Y-35750D01*
X35500Y-35750D02*
X35000Y-35250D01*
X35750Y-35500D02*
X35500Y-35750D01*
X36000Y-35750D02*
X35750Y-35500D01*
X36500Y-35750D02*
X36000Y-35750D01*
X35750Y-35000D02*
X36500Y-35750D01*
X35500Y-35250D02*
X35750Y-35000D01*
X35000Y-34750D02*
X35500Y-35250D01*
X34000Y-35750D02*
X35000Y-34750D01*
G54D12*
X53848Y-49510D02*
X54153Y-49510D01*
X52848Y-49510D02*
X53153Y-49510D01*
X53001Y-49662D02*
X53001Y-49357D01*
G54D14*
X54500Y-49000D02*
X52500Y-49000D01*
X54500Y-47000D02*
X54500Y-49000D01*
X52500Y-47000D02*
X54500Y-47000D01*
X52500Y-49000D02*
X52500Y-47000D01*
G54D13*
X62500Y-56500D02*
X62500Y-58500D01*
X62500Y-58500D02*
X49500Y-58500D01*
X49500Y-58500D02*
X49500Y-56500D01*
X49500Y-56500D02*
X62500Y-56500D01*
G54D11*
X34500Y-57500D02*
X33500Y-57500D01*
X33500Y-57500D02*
X33500Y-47500D01*
X33500Y-47500D02*
X34500Y-47500D01*
X34500Y-47500D02*
X34500Y-57500D01*
X34500Y-56500D02*
X33500Y-56500D01*
G54D12*
X73000Y-42000D02*
X73000Y-42200D01*
X73000Y-45000D02*
X73000Y-44800D01*
X73000Y-44800D02*
X73400Y-44800D01*
X73400Y-44800D02*
X73400Y-42200D01*
X73400Y-42200D02*
X72600Y-42200D01*
X72600Y-42200D02*
X72600Y-44800D01*
X72600Y-44800D02*
X73000Y-44800D01*
X73200Y-42200D02*
X73400Y-42400D01*
X32000Y-37000D02*
X31800Y-37000D01*
X29000Y-37000D02*
X29200Y-37000D01*
X29200Y-37000D02*
X29200Y-37400D01*
X29200Y-37400D02*
X31800Y-37400D01*
X31800Y-37400D02*
X31800Y-36600D01*
X31800Y-36600D02*
X29200Y-36600D01*
X29200Y-36600D02*
X29200Y-37000D01*
X31800Y-37200D02*
X31600Y-37400D01*
X32000Y-36000D02*
X31800Y-36000D01*
X29000Y-36000D02*
X29200Y-36000D01*
X29200Y-36000D02*
X29200Y-36400D01*
X29200Y-36400D02*
X31800Y-36400D01*
X31800Y-36400D02*
X31800Y-35600D01*
X31800Y-35600D02*
X29200Y-35600D01*
X29200Y-35600D02*
X29200Y-36000D01*
X31800Y-36200D02*
X31600Y-36400D01*
X32000Y-46000D02*
X31800Y-46000D01*
X29000Y-46000D02*
X29200Y-46000D01*
X29200Y-46000D02*
X29200Y-46400D01*
X29200Y-46400D02*
X31800Y-46400D01*
X31800Y-46400D02*
X31800Y-45600D01*
X31800Y-45600D02*
X29200Y-45600D01*
X29200Y-45600D02*
X29200Y-46000D01*
X31800Y-46200D02*
X31600Y-46400D01*
X32000Y-43000D02*
X31800Y-43000D01*
X29000Y-43000D02*
X29200Y-43000D01*
X29200Y-43000D02*
X29200Y-43400D01*
X29200Y-43400D02*
X31800Y-43400D01*
X31800Y-43400D02*
X31800Y-42600D01*
X31800Y-42600D02*
X29200Y-42600D01*
X29200Y-42600D02*
X29200Y-43000D01*
X31800Y-43200D02*
X31600Y-43400D01*
X32000Y-40000D02*
X31800Y-40000D01*
X29000Y-40000D02*
X29200Y-40000D01*
X29200Y-40000D02*
X29200Y-40400D01*
X29200Y-40400D02*
X31800Y-40400D01*
X31800Y-40400D02*
X31800Y-39600D01*
X31800Y-39600D02*
X29200Y-39600D01*
X29200Y-39600D02*
X29200Y-40000D01*
X31800Y-40200D02*
X31600Y-40400D01*
X38000Y-24000D02*
X38200Y-24000D01*
X41000Y-24000D02*
X40800Y-24000D01*
X40800Y-24000D02*
X40800Y-23600D01*
X40800Y-23600D02*
X38200Y-23600D01*
X38200Y-23600D02*
X38200Y-24400D01*
X38200Y-24400D02*
X40800Y-24400D01*
X40800Y-24400D02*
X40800Y-24000D01*
X38200Y-23800D02*
X38400Y-23600D01*
X38000Y-25000D02*
X38200Y-25000D01*
X41000Y-25000D02*
X40800Y-25000D01*
X40800Y-25000D02*
X40800Y-24600D01*
X40800Y-24600D02*
X38200Y-24600D01*
X38200Y-24600D02*
X38200Y-25400D01*
X38200Y-25400D02*
X40800Y-25400D01*
X40800Y-25400D02*
X40800Y-25000D01*
X38200Y-24800D02*
X38400Y-24600D01*
X32000Y-39000D02*
X31800Y-39000D01*
X29000Y-39000D02*
X29200Y-39000D01*
X29200Y-39000D02*
X29200Y-39400D01*
X29200Y-39400D02*
X31800Y-39400D01*
X31800Y-39400D02*
X31800Y-38600D01*
X31800Y-38600D02*
X29200Y-38600D01*
X29200Y-38600D02*
X29200Y-39000D01*
X31800Y-39200D02*
X31600Y-39400D01*
X32000Y-38000D02*
X31800Y-38000D01*
X29000Y-38000D02*
X29200Y-38000D01*
X29200Y-38000D02*
X29200Y-38400D01*
X29200Y-38400D02*
X31800Y-38400D01*
X31800Y-38400D02*
X31800Y-37600D01*
X31800Y-37600D02*
X29200Y-37600D01*
X29200Y-37600D02*
X29200Y-38000D01*
X31800Y-38200D02*
X31600Y-38400D01*
X38000Y-26000D02*
X38200Y-26000D01*
X41000Y-26000D02*
X40800Y-26000D01*
X40800Y-26000D02*
X40800Y-25600D01*
X40800Y-25600D02*
X38200Y-25600D01*
X38200Y-25600D02*
X38200Y-26400D01*
X38200Y-26400D02*
X40800Y-26400D01*
X40800Y-26400D02*
X40800Y-26000D01*
X38200Y-25800D02*
X38400Y-25600D01*
X32000Y-47000D02*
X31800Y-47000D01*
X29000Y-47000D02*
X29200Y-47000D01*
X29200Y-47000D02*
X29200Y-47400D01*
X29200Y-47400D02*
X31800Y-47400D01*
X31800Y-47400D02*
X31800Y-46600D01*
X31800Y-46600D02*
X29200Y-46600D01*
X29200Y-46600D02*
X29200Y-47000D01*
X31800Y-47200D02*
X31600Y-47400D01*
X32000Y-44000D02*
X31800Y-44000D01*
X29000Y-44000D02*
X29200Y-44000D01*
X29200Y-44000D02*
X29200Y-44400D01*
X29200Y-44400D02*
X31800Y-44400D01*
X31800Y-44400D02*
X31800Y-43600D01*
X31800Y-43600D02*
X29200Y-43600D01*
X29200Y-43600D02*
X29200Y-44000D01*
X31800Y-44200D02*
X31600Y-44400D01*
X32000Y-41000D02*
X31800Y-41000D01*
X29000Y-41000D02*
X29200Y-41000D01*
X29200Y-41000D02*
X29200Y-41400D01*
X29200Y-41400D02*
X31800Y-41400D01*
X31800Y-41400D02*
X31800Y-40600D01*
X31800Y-40600D02*
X29200Y-40600D01*
X29200Y-40600D02*
X29200Y-41000D01*
X31800Y-41200D02*
X31600Y-41400D01*
X85000Y-56000D02*
X85000Y-55800D01*
X85000Y-53000D02*
X85000Y-53200D01*
X85000Y-53200D02*
X84600Y-53200D01*
X84600Y-53200D02*
X84600Y-55800D01*
X84600Y-55800D02*
X85400Y-55800D01*
X85400Y-55800D02*
X85400Y-53200D01*
X85400Y-53200D02*
X85000Y-53200D01*
X84800Y-55800D02*
X84600Y-55600D01*
X29000Y-35000D02*
X29200Y-35000D01*
X32000Y-35000D02*
X31800Y-35000D01*
X31800Y-35000D02*
X31800Y-34600D01*
X31800Y-34600D02*
X29200Y-34600D01*
X29200Y-34600D02*
X29200Y-35400D01*
X29200Y-35400D02*
X31800Y-35400D01*
X31800Y-35400D02*
X31800Y-35000D01*
X29200Y-34800D02*
X29400Y-34600D01*
G54D11*
X54500Y-53500D02*
X49500Y-53500D01*
X49500Y-53500D02*
X49500Y-51500D01*
X49500Y-51500D02*
X54500Y-51500D01*
X54500Y-51500D02*
X54500Y-53500D01*
G54D13*
X35500Y-21500D02*
X31500Y-21500D01*
X35500Y-20500D02*
X31500Y-20500D01*
X31500Y-20500D02*
X31500Y-21500D01*
X35500Y-21500D02*
X35500Y-20500D01*
G54D10*
X35500Y-21500D02*
X35500Y-20500D01*
X35500Y-20500D02*
X38500Y-20500D01*
X38500Y-20500D02*
X38500Y-21500D01*
X38500Y-21500D02*
X35500Y-21500D01*
X36500Y-20500D02*
X36500Y-21500D01*
X43500Y-26500D02*
X42500Y-26500D01*
X42500Y-26500D02*
X42500Y-24500D01*
X42500Y-24500D02*
X43500Y-24500D01*
X43500Y-24500D02*
X43500Y-26500D01*
X52500Y-48500D02*
X52500Y-47500D01*
X52500Y-47500D02*
X54500Y-47500D01*
X54500Y-47500D02*
X54500Y-48500D01*
X54500Y-48500D02*
X52500Y-48500D01*
X49500Y-48500D02*
X49500Y-47500D01*
X49500Y-47500D02*
X51500Y-47500D01*
X51500Y-47500D02*
X51500Y-48500D01*
X51500Y-48500D02*
X49500Y-48500D01*
G54D14*
X48144Y-21246D02*
X48126Y-21420D01*
X48076Y-21588D01*
X47993Y-21744D01*
X47882Y-21880D01*
X47747Y-21992D01*
X47592Y-22075D01*
X47424Y-22127D01*
X47250Y-22145D01*
X47076Y-22130D01*
X46907Y-22080D01*
X46752Y-21999D01*
X46615Y-21889D01*
X46502Y-21754D01*
X46417Y-21600D01*
X46364Y-21433D01*
X46345Y-21258D01*
X46359Y-21084D01*
X46408Y-20915D01*
X46488Y-20759D01*
X46597Y-20621D01*
X46731Y-20507D01*
X46884Y-20422D01*
X47051Y-20367D01*
X47226Y-20347D01*
X47400Y-20360D01*
X47569Y-20407D01*
X47726Y-20487D01*
X47864Y-20595D01*
X47979Y-20728D01*
X48066Y-20880D01*
X48121Y-21047D01*
X48143Y-21221D01*
X48144Y-21246D01*
X48144Y-58254D02*
X48126Y-58428D01*
X48076Y-58596D01*
X47993Y-58752D01*
X47882Y-58888D01*
X47747Y-59000D01*
X47592Y-59083D01*
X47424Y-59135D01*
X47250Y-59153D01*
X47076Y-59138D01*
X46907Y-59088D01*
X46752Y-59007D01*
X46615Y-58897D01*
X46502Y-58762D01*
X46417Y-58608D01*
X46364Y-58441D01*
X46345Y-58266D01*
X46359Y-58092D01*
X46408Y-57923D01*
X46488Y-57767D01*
X46597Y-57629D01*
X46731Y-57515D01*
X46884Y-57430D01*
X47051Y-57375D01*
X47226Y-57355D01*
X47400Y-57368D01*
X47569Y-57415D01*
X47726Y-57495D01*
X47864Y-57603D01*
X47979Y-57736D01*
X48066Y-57888D01*
X48121Y-58055D01*
X48143Y-58229D01*
X48144Y-58254D01*
X75703Y-21246D02*
X75685Y-21420D01*
X75635Y-21588D01*
X75552Y-21744D01*
X75441Y-21880D01*
X75306Y-21992D01*
X75151Y-22075D01*
X74983Y-22127D01*
X74809Y-22145D01*
X74635Y-22130D01*
X74466Y-22080D01*
X74311Y-21999D01*
X74174Y-21889D01*
X74061Y-21754D01*
X73976Y-21600D01*
X73923Y-21433D01*
X73904Y-21258D01*
X73918Y-21084D01*
X73967Y-20915D01*
X74047Y-20759D01*
X74156Y-20621D01*
X74290Y-20507D01*
X74443Y-20422D01*
X74610Y-20367D01*
X74785Y-20347D01*
X74959Y-20360D01*
X75128Y-20407D01*
X75285Y-20487D01*
X75423Y-20595D01*
X75538Y-20728D01*
X75625Y-20880D01*
X75680Y-21047D01*
X75702Y-21221D01*
X75703Y-21246D01*
X75703Y-58254D02*
X75685Y-58428D01*
X75635Y-58596D01*
X75552Y-58752D01*
X75441Y-58888D01*
X75306Y-59000D01*
X75151Y-59083D01*
X74983Y-59135D01*
X74809Y-59153D01*
X74635Y-59138D01*
X74466Y-59088D01*
X74311Y-59007D01*
X74174Y-58897D01*
X74061Y-58762D01*
X73976Y-58608D01*
X73923Y-58441D01*
X73904Y-58266D01*
X73918Y-58092D01*
X73967Y-57923D01*
X74047Y-57767D01*
X74156Y-57629D01*
X74290Y-57515D01*
X74443Y-57430D01*
X74610Y-57375D01*
X74785Y-57355D01*
X74959Y-57368D01*
X75128Y-57415D01*
X75285Y-57495D01*
X75423Y-57603D01*
X75538Y-57736D01*
X75625Y-57888D01*
X75680Y-58055D01*
X75702Y-58229D01*
X75703Y-58254D01*
G54D13*
X39000Y-31500D02*
X39000Y-31000D01*
X39000Y-31000D02*
X40000Y-31000D01*
X40000Y-31000D02*
X40000Y-31500D01*
X38500Y-31500D02*
X38500Y-27500D01*
X38500Y-27500D02*
X40500Y-27500D01*
X40500Y-27500D02*
X40500Y-31500D01*
X40500Y-31500D02*
X38500Y-31500D01*
G54D14*
X38500Y-58000D02*
X38500Y-57500D01*
X38500Y-57500D02*
X39500Y-57500D01*
X39500Y-57500D02*
X39500Y-58000D01*
X36500Y-58000D02*
X36500Y-37000D01*
X36500Y-37000D02*
X41500Y-37000D01*
X41500Y-37000D02*
X41500Y-58000D01*
X41500Y-58000D02*
X36500Y-58000D01*
X30000Y-32000D02*
X30000Y-32000D01*
X30000Y-32000D02*
X30000Y-31500D01*
X30000Y-31500D02*
X31000Y-31500D01*
X31000Y-31500D02*
X31000Y-32000D01*
X29500Y-32000D02*
X29500Y-23000D01*
X29500Y-23000D02*
X31500Y-23000D01*
X31500Y-23000D02*
X31500Y-32000D01*
X31500Y-32000D02*
X29500Y-32000D01*
X45500Y-55000D02*
X45500Y-47000D01*
X47500Y-47000D02*
X47500Y-55000D01*
X47500Y-55000D02*
X45500Y-55000D01*
X46000Y-55000D02*
X46000Y-54500D01*
X46000Y-54500D02*
X47000Y-54500D01*
X47000Y-54500D02*
X47000Y-55000D01*
X45500Y-47000D02*
X47500Y-47000D01*
X45500Y-45000D02*
X45500Y-37000D01*
X47500Y-37000D02*
X47500Y-45000D01*
X47500Y-45000D02*
X45500Y-45000D01*
X46000Y-45000D02*
X46000Y-44500D01*
X46000Y-44500D02*
X47000Y-44500D01*
X47000Y-44500D02*
X47000Y-45000D01*
X45500Y-37000D02*
X47500Y-37000D01*
X45500Y-32000D02*
X45500Y-24000D01*
X47500Y-24000D02*
X47500Y-32000D01*
X47500Y-32000D02*
X45500Y-32000D01*
X46000Y-32000D02*
X46000Y-31500D01*
X46000Y-31500D02*
X47000Y-31500D01*
X47000Y-31500D02*
X47000Y-32000D01*
X45500Y-24000D02*
X47500Y-24000D01*
G54D11*
X44600Y-32600D02*
X47400Y-32600D01*
X47400Y-32600D02*
X47400Y-33400D01*
X47400Y-33400D02*
X44600Y-33400D01*
X44600Y-33400D02*
X44600Y-32600D01*
X44600Y-32800D02*
X44800Y-32600D01*
X50600Y-32600D02*
X53400Y-32600D01*
X53400Y-32600D02*
X53400Y-33400D01*
X53400Y-33400D02*
X50600Y-33400D01*
X50600Y-33400D02*
X50600Y-32600D01*
X50600Y-32800D02*
X50800Y-32600D01*
X37600Y-32600D02*
X40400Y-32600D01*
X40400Y-32600D02*
X40400Y-33400D01*
X40400Y-33400D02*
X37600Y-33400D01*
X37600Y-33400D02*
X37600Y-32600D01*
X37600Y-32800D02*
X37800Y-32600D01*
X33600Y-46400D02*
X33600Y-43600D01*
X33600Y-43600D02*
X34400Y-43600D01*
X34400Y-43600D02*
X34400Y-46400D01*
X34400Y-46400D02*
X33600Y-46400D01*
X33800Y-46400D02*
X33600Y-46200D01*
X43600Y-45600D02*
X46400Y-45600D01*
X46400Y-45600D02*
X46400Y-46400D01*
X46400Y-46400D02*
X43600Y-46400D01*
X43600Y-46400D02*
X43600Y-45600D01*
X43600Y-45800D02*
X43800Y-45600D01*
G54D15*
X54501Y-45000D02*
X54481Y-45194D01*
X54425Y-45381D01*
X54333Y-45553D01*
X54210Y-45705D01*
X54059Y-45829D01*
X53887Y-45922D01*
X53701Y-45980D01*
X53506Y-46000D01*
X53313Y-45983D01*
X53126Y-45928D01*
X52952Y-45837D01*
X52800Y-45715D01*
X52675Y-45565D01*
X52580Y-45394D01*
X52521Y-45208D01*
X52500Y-45013D01*
X52516Y-44820D01*
X52570Y-44632D01*
X52659Y-44458D01*
X52780Y-44305D01*
X52929Y-44179D01*
X53100Y-44083D01*
X53286Y-44023D01*
X53480Y-44000D01*
X53673Y-44015D01*
X53861Y-44067D01*
X54036Y-44155D01*
X54190Y-44276D01*
X54317Y-44423D01*
X54414Y-44593D01*
X54476Y-44779D01*
X54500Y-44973D01*
X54501Y-45000D01*
X52001Y-30500D02*
X51981Y-30694D01*
X51925Y-30881D01*
X51833Y-31053D01*
X51710Y-31205D01*
X51559Y-31329D01*
X51387Y-31422D01*
X51201Y-31480D01*
X51006Y-31500D01*
X50813Y-31483D01*
X50626Y-31428D01*
X50452Y-31337D01*
X50300Y-31215D01*
X50175Y-31065D01*
X50080Y-30894D01*
X50021Y-30708D01*
X50000Y-30513D01*
X50016Y-30320D01*
X50070Y-30132D01*
X50159Y-29958D01*
X50280Y-29805D01*
X50429Y-29679D01*
X50600Y-29583D01*
X50786Y-29523D01*
X50980Y-29500D01*
X51173Y-29515D01*
X51361Y-29567D01*
X51536Y-29655D01*
X51690Y-29776D01*
X51817Y-29923D01*
X51914Y-30093D01*
X51976Y-30279D01*
X52000Y-30473D01*
X52001Y-30500D01*
X51501Y-45000D02*
X51481Y-45194D01*
X51425Y-45381D01*
X51333Y-45553D01*
X51210Y-45705D01*
X51059Y-45829D01*
X50887Y-45922D01*
X50701Y-45980D01*
X50506Y-46000D01*
X50313Y-45983D01*
X50126Y-45928D01*
X49952Y-45837D01*
X49800Y-45715D01*
X49675Y-45565D01*
X49580Y-45394D01*
X49521Y-45208D01*
X49500Y-45013D01*
X49516Y-44820D01*
X49570Y-44632D01*
X49659Y-44458D01*
X49780Y-44305D01*
X49929Y-44179D01*
X50100Y-44083D01*
X50286Y-44023D01*
X50480Y-44000D01*
X50673Y-44015D01*
X50861Y-44067D01*
X51036Y-44155D01*
X51190Y-44276D01*
X51317Y-44423D01*
X51414Y-44593D01*
X51476Y-44779D01*
X51500Y-44973D01*
X51501Y-45000D01*
G54D12*
X73000Y-39000D02*
X73000Y-38800D01*
X73000Y-36000D02*
X73000Y-36200D01*
X73000Y-36200D02*
X72600Y-36200D01*
X72600Y-36200D02*
X72600Y-38800D01*
X72600Y-38800D02*
X73400Y-38800D01*
X73400Y-38800D02*
X73400Y-36200D01*
X73400Y-36200D02*
X73000Y-36200D01*
X72800Y-38800D02*
X72600Y-38600D01*
G54D11*
X51000Y-42000D02*
X51000Y-40000D01*
X52000Y-42000D02*
X52000Y-40000D01*
X53000Y-42000D02*
X53000Y-40000D01*
X50500Y-40000D02*
X54000Y-40000D01*
X54000Y-40000D02*
X54000Y-34000D01*
X54000Y-34000D02*
X50000Y-34000D01*
X50500Y-40000D02*
X50000Y-40000D01*
X53500Y-37000D02*
X50000Y-37000D01*
X53500Y-37000D02*
X54000Y-37000D01*
X50000Y-40000D02*
X50000Y-34000D01*
X27400Y-32600D02*
X27400Y-35400D01*
X27400Y-35400D02*
X26600Y-35400D01*
X26600Y-35400D02*
X26600Y-32600D01*
X26600Y-32600D02*
X27400Y-32600D01*
X27200Y-32600D02*
X27400Y-32800D01*
X28600Y-32600D02*
X31400Y-32600D01*
X31400Y-32600D02*
X31400Y-33400D01*
X31400Y-33400D02*
X28600Y-33400D01*
X28600Y-33400D02*
X28600Y-32600D01*
X28600Y-32800D02*
X28800Y-32600D01*
X33600Y-28600D02*
X36400Y-28600D01*
X36400Y-28600D02*
X36400Y-29400D01*
X36400Y-29400D02*
X33600Y-29400D01*
X33600Y-29400D02*
X33600Y-28600D01*
X33600Y-28800D02*
X33800Y-28600D01*
X33600Y-26600D02*
X36400Y-26600D01*
X36400Y-26600D02*
X36400Y-27400D01*
X36400Y-27400D02*
X33600Y-27400D01*
X33600Y-27400D02*
X33600Y-26600D01*
X33600Y-26800D02*
X33800Y-26600D01*
X33600Y-30600D02*
X36400Y-30600D01*
X36400Y-30600D02*
X36400Y-31400D01*
X36400Y-31400D02*
X33600Y-31400D01*
X33600Y-31400D02*
X33600Y-30600D01*
X33600Y-30800D02*
X33800Y-30600D01*
X33600Y-24600D02*
X36400Y-24600D01*
X36400Y-24600D02*
X36400Y-25400D01*
X36400Y-25400D02*
X33600Y-25400D01*
X33600Y-25400D02*
X33600Y-24600D01*
X33600Y-24800D02*
X33800Y-24600D01*
G54D12*
X32000Y-48000D02*
X31800Y-48000D01*
X29000Y-48000D02*
X29200Y-48000D01*
X29200Y-48000D02*
X29200Y-48400D01*
X29200Y-48400D02*
X31800Y-48400D01*
X31800Y-48400D02*
X31800Y-47600D01*
X31800Y-47600D02*
X29200Y-47600D01*
X29200Y-47600D02*
X29200Y-48000D01*
X31800Y-48200D02*
X31600Y-48400D01*
X32000Y-45000D02*
X31800Y-45000D01*
X29000Y-45000D02*
X29200Y-45000D01*
X29200Y-45000D02*
X29200Y-45400D01*
X29200Y-45400D02*
X31800Y-45400D01*
X31800Y-45400D02*
X31800Y-44600D01*
X31800Y-44600D02*
X29200Y-44600D01*
X29200Y-44600D02*
X29200Y-45000D01*
X31800Y-45200D02*
X31600Y-45400D01*
X32000Y-42000D02*
X31800Y-42000D01*
X29000Y-42000D02*
X29200Y-42000D01*
X29200Y-42000D02*
X29200Y-42400D01*
X29200Y-42400D02*
X31800Y-42400D01*
X31800Y-42400D02*
X31800Y-41600D01*
X31800Y-41600D02*
X29200Y-41600D01*
X29200Y-41600D02*
X29200Y-42000D01*
X31800Y-42200D02*
X31600Y-42400D01*
G54D10*
X85500Y-51500D02*
X84500Y-51500D01*
X84500Y-51500D02*
X84500Y-49500D01*
X84500Y-49500D02*
X85500Y-49500D01*
X85500Y-49500D02*
X85500Y-51500D01*
X27500Y-26500D02*
X26500Y-26500D01*
X26500Y-26500D02*
X26500Y-24500D01*
X26500Y-24500D02*
X27500Y-24500D01*
X27500Y-24500D02*
X27500Y-26500D01*
X27500Y-29500D02*
X26500Y-29500D01*
X26500Y-29500D02*
X26500Y-27500D01*
X26500Y-27500D02*
X27500Y-27500D01*
X27500Y-27500D02*
X27500Y-29500D01*
G54D15*
X74001Y-40500D02*
X73981Y-40694D01*
X73925Y-40881D01*
X73833Y-41053D01*
X73710Y-41205D01*
X73559Y-41329D01*
X73387Y-41422D01*
X73201Y-41480D01*
X73006Y-41500D01*
X72813Y-41483D01*
X72626Y-41428D01*
X72452Y-41337D01*
X72300Y-41215D01*
X72175Y-41065D01*
X72080Y-40894D01*
X72021Y-40708D01*
X72000Y-40513D01*
X72016Y-40320D01*
X72070Y-40132D01*
X72159Y-39958D01*
X72280Y-39805D01*
X72429Y-39679D01*
X72600Y-39583D01*
X72786Y-39523D01*
X72980Y-39500D01*
X73173Y-39515D01*
X73361Y-39567D01*
X73536Y-39655D01*
X73690Y-39776D01*
X73817Y-39923D01*
X73914Y-40093D01*
X73976Y-40279D01*
X74000Y-40473D01*
X74001Y-40500D01*
G54D14*
X20000Y-37244D02*
X25118Y-37244D01*
X25118Y-37244D02*
X25118Y-42756D01*
X25118Y-42756D02*
X20000Y-42756D01*
X20000Y-42756D02*
X20000Y-37244D01*
X17650Y-23650D02*
X20000Y-23650D01*
X20000Y-30350D02*
X17650Y-30350D01*
X17650Y-30350D02*
X17650Y-23650D01*
X25000Y-33100D02*
X20000Y-33100D01*
X20000Y-33100D02*
X20000Y-20900D01*
X20000Y-20900D02*
X25000Y-20900D01*
X25000Y-33100D02*
X25000Y-20900D01*
X26400Y-59100D02*
X20000Y-59100D01*
X26400Y-46900D02*
X20000Y-46900D01*
X26400Y-59100D02*
X26400Y-46900D01*
X20000Y-56400D02*
X17600Y-56400D01*
X17600Y-56400D02*
X17600Y-49600D01*
X17600Y-49600D02*
X20000Y-49600D01*
X20000Y-59100D02*
X20000Y-46900D01*
X77612Y-44055D02*
X79620Y-44055D01*
X79620Y-44055D02*
X79620Y-36083D01*
X79620Y-36083D02*
X77612Y-36083D01*
X77612Y-36083D02*
X77612Y-44055D01*
X81589Y-45315D02*
X81589Y-45787D01*
X81589Y-45787D02*
X79108Y-45787D01*
X79108Y-45787D02*
X79108Y-45315D01*
X79108Y-45315D02*
X81589Y-45315D01*
X75486Y-45512D02*
X75486Y-34134D01*
X75486Y-34134D02*
X86982Y-34134D01*
X86982Y-34134D02*
X86982Y-45512D01*
X86982Y-45512D02*
X75486Y-45512D01*
G54D10*
X54612Y-26000D02*
X54567Y-26458D01*
X54433Y-26900D01*
X54217Y-27307D01*
X53926Y-27664D01*
X53570Y-27958D01*
X53165Y-28177D01*
X52724Y-28313D01*
X52266Y-28361D01*
X51808Y-28320D01*
X51366Y-28190D01*
X50957Y-27976D01*
X50598Y-27687D01*
X50302Y-27334D01*
X50080Y-26930D01*
X49940Y-26491D01*
X49889Y-26032D01*
X49927Y-25574D01*
X50054Y-25131D01*
X50265Y-24721D01*
X50551Y-24360D01*
X50902Y-24061D01*
X51305Y-23836D01*
X51743Y-23694D01*
X52201Y-23639D01*
X52660Y-23674D01*
X53104Y-23798D01*
X53515Y-24006D01*
X53878Y-24290D01*
X54180Y-24639D01*
X54407Y-25040D01*
X54553Y-25477D01*
X54611Y-25935D01*
X54612Y-26000D01*
G54D14*
X32067Y-57496D02*
X32067Y-52280D01*
X27933Y-57496D02*
X27933Y-52280D01*
X27750Y-52250D02*
X32250Y-52250D01*
X32250Y-52250D02*
X32250Y-52000D01*
X27750Y-52000D02*
X27750Y-52250D01*
X27933Y-57535D02*
X32067Y-57535D01*
X30969Y-51000D02*
X30969Y-52000D01*
X29040Y-51000D02*
X29040Y-52000D01*
X27750Y-52000D02*
X32250Y-52000D01*
G54D13*
X49631Y-59202D02*
X49631Y-58702D01*
X49822Y-58702D01*
X49869Y-58726D01*
X49893Y-58750D01*
X49917Y-58798D01*
X49917Y-58869D01*
X49893Y-58917D01*
X49869Y-58940D01*
X49822Y-58964D01*
X49631Y-58964D01*
X50369Y-58702D02*
X50131Y-58702D01*
X50107Y-58940D01*
X50131Y-58917D01*
X50179Y-58893D01*
X50298Y-58893D01*
X50345Y-58917D01*
X50369Y-58940D01*
X50393Y-58988D01*
X50393Y-59107D01*
X50369Y-59155D01*
X50345Y-59179D01*
X50298Y-59202D01*
X50179Y-59202D01*
X50131Y-59179D01*
X50107Y-59155D01*
G54D12*
X59666Y-59202D02*
X59729Y-58702D01*
X59882Y-58702D01*
X59917Y-58726D01*
X59933Y-58750D01*
X59946Y-58798D01*
X59937Y-58869D01*
X59912Y-58917D01*
X59890Y-58940D01*
X59849Y-58964D01*
X59696Y-58964D01*
X60065Y-59060D02*
X60256Y-59060D01*
X60009Y-59202D02*
X60205Y-58702D01*
X60276Y-59202D01*
X60638Y-59202D02*
X60534Y-58964D01*
X60409Y-59202D02*
X60472Y-58702D01*
X60625Y-58702D01*
X60660Y-58726D01*
X60676Y-58750D01*
X60689Y-58798D01*
X60680Y-58869D01*
X60655Y-58917D01*
X60633Y-58940D01*
X60592Y-58964D01*
X60439Y-58964D01*
X60808Y-59060D02*
X60999Y-59060D01*
X60752Y-59202D02*
X60948Y-58702D01*
X61019Y-59202D01*
X61343Y-59202D02*
X61152Y-59202D01*
X61215Y-58702D01*
X61667Y-59202D02*
X61476Y-59202D01*
X61539Y-58702D01*
X61833Y-58940D02*
X61967Y-58940D01*
X61991Y-59202D02*
X61800Y-59202D01*
X61863Y-58702D01*
X62054Y-58702D01*
X62353Y-59202D02*
X62162Y-59202D01*
X62225Y-58702D01*
G54D13*
X35202Y-57083D02*
X34964Y-57250D01*
X35202Y-57369D02*
X34702Y-57369D01*
X34702Y-57178D01*
X34726Y-57131D01*
X34750Y-57107D01*
X34798Y-57083D01*
X34869Y-57083D01*
X34917Y-57107D01*
X34940Y-57131D01*
X34964Y-57178D01*
X34964Y-57369D01*
X35202Y-56583D02*
X34964Y-56750D01*
X35202Y-56869D02*
X34702Y-56869D01*
X34702Y-56678D01*
X34726Y-56631D01*
X34750Y-56607D01*
X34798Y-56583D01*
X34869Y-56583D01*
X34917Y-56607D01*
X34940Y-56631D01*
X34964Y-56678D01*
X34964Y-56869D01*
X35202Y-56107D02*
X35202Y-56393D01*
X35202Y-56250D02*
X34702Y-56250D01*
X34774Y-56298D01*
X34821Y-56345D01*
X34845Y-56393D01*
G54D12*
X35202Y-48507D02*
X35202Y-48736D01*
X35202Y-48622D02*
X34702Y-48559D01*
X34774Y-48606D01*
X34821Y-48650D01*
X34845Y-48691D01*
X34702Y-48197D02*
X34702Y-48158D01*
X34726Y-48123D01*
X34750Y-48107D01*
X34798Y-48094D01*
X34893Y-48087D01*
X35012Y-48102D01*
X35107Y-48133D01*
X35155Y-48158D01*
X35179Y-48180D01*
X35202Y-48221D01*
X35202Y-48260D01*
X35179Y-48295D01*
X35155Y-48311D01*
X35107Y-48324D01*
X35012Y-48331D01*
X34893Y-48316D01*
X34798Y-48285D01*
X34750Y-48260D01*
X34726Y-48238D01*
X34702Y-48197D01*
X35202Y-47955D02*
X34702Y-47892D01*
X35012Y-47893D02*
X35202Y-47802D01*
X34869Y-47760D02*
X35060Y-47937D01*
X73912Y-44507D02*
X73721Y-44641D01*
X73912Y-44736D02*
X73512Y-44736D01*
X73512Y-44583D01*
X73531Y-44545D01*
X73550Y-44526D01*
X73588Y-44507D01*
X73645Y-44507D01*
X73683Y-44526D01*
X73702Y-44545D01*
X73721Y-44583D01*
X73721Y-44736D01*
X73912Y-44126D02*
X73912Y-44355D01*
X73912Y-44241D02*
X73512Y-44241D01*
X73569Y-44279D01*
X73607Y-44317D01*
X73626Y-44355D01*
X73645Y-43783D02*
X73912Y-43783D01*
X73493Y-43879D02*
X73779Y-43974D01*
X73779Y-43726D01*
G54D10*
X73912Y-42942D02*
X73912Y-43114D01*
X73912Y-43028D02*
X73512Y-42978D01*
X73569Y-43014D01*
X73607Y-43047D01*
X73626Y-43078D01*
X73512Y-42706D02*
X73512Y-42678D01*
X73531Y-42652D01*
X73550Y-42640D01*
X73588Y-42631D01*
X73664Y-42625D01*
X73760Y-42637D01*
X73836Y-42662D01*
X73874Y-42680D01*
X73893Y-42697D01*
X73912Y-42728D01*
X73912Y-42756D01*
X73893Y-42783D01*
X73874Y-42794D01*
X73836Y-42805D01*
X73760Y-42809D01*
X73664Y-42797D01*
X73588Y-42774D01*
X73550Y-42754D01*
X73531Y-42738D01*
X73512Y-42706D01*
X73912Y-42528D02*
X73512Y-42478D01*
X73760Y-42480D02*
X73912Y-42413D01*
X73645Y-42380D02*
X73798Y-42514D01*
G54D12*
X28059Y-37162D02*
X27925Y-36971D01*
X27830Y-37162D02*
X27830Y-36762D01*
X27983Y-36762D01*
X28021Y-36781D01*
X28040Y-36800D01*
X28059Y-36838D01*
X28059Y-36895D01*
X28040Y-36933D01*
X28021Y-36952D01*
X27983Y-36971D01*
X27830Y-36971D01*
X28440Y-37162D02*
X28211Y-37162D01*
X28325Y-37162D02*
X28325Y-36762D01*
X28287Y-36819D01*
X28249Y-36857D01*
X28211Y-36876D01*
G54D10*
X32661Y-37162D02*
X32489Y-37162D01*
X32575Y-37162D02*
X32625Y-36762D01*
X32589Y-36819D01*
X32556Y-36857D01*
X32525Y-36876D01*
X32897Y-36762D02*
X32925Y-36762D01*
X32951Y-36781D01*
X32963Y-36800D01*
X32972Y-36838D01*
X32978Y-36914D01*
X32966Y-37010D01*
X32941Y-37086D01*
X32923Y-37124D01*
X32906Y-37143D01*
X32875Y-37162D01*
X32847Y-37162D01*
X32820Y-37143D01*
X32809Y-37124D01*
X32798Y-37086D01*
X32794Y-37010D01*
X32806Y-36914D01*
X32829Y-36838D01*
X32849Y-36800D01*
X32865Y-36781D01*
X32897Y-36762D01*
X33183Y-36762D02*
X33211Y-36762D01*
X33237Y-36781D01*
X33249Y-36800D01*
X33258Y-36838D01*
X33264Y-36914D01*
X33252Y-37010D01*
X33227Y-37086D01*
X33209Y-37124D01*
X33192Y-37143D01*
X33161Y-37162D01*
X33133Y-37162D01*
X33106Y-37143D01*
X33095Y-37124D01*
X33084Y-37086D01*
X33080Y-37010D01*
X33092Y-36914D01*
X33115Y-36838D01*
X33135Y-36800D01*
X33151Y-36781D01*
X33183Y-36762D01*
G54D12*
X28059Y-36162D02*
X27925Y-35971D01*
X27830Y-36162D02*
X27830Y-35762D01*
X27983Y-35762D01*
X28021Y-35781D01*
X28040Y-35800D01*
X28059Y-35838D01*
X28059Y-35895D01*
X28040Y-35933D01*
X28021Y-35952D01*
X27983Y-35971D01*
X27830Y-35971D01*
X28211Y-35800D02*
X28230Y-35781D01*
X28268Y-35762D01*
X28364Y-35762D01*
X28402Y-35781D01*
X28421Y-35800D01*
X28440Y-35838D01*
X28440Y-35876D01*
X28421Y-35933D01*
X28192Y-36162D01*
X28440Y-36162D01*
G54D10*
X32661Y-36162D02*
X32489Y-36162D01*
X32575Y-36162D02*
X32625Y-35762D01*
X32589Y-35819D01*
X32556Y-35857D01*
X32525Y-35876D01*
X32897Y-35762D02*
X32925Y-35762D01*
X32951Y-35781D01*
X32963Y-35800D01*
X32972Y-35838D01*
X32978Y-35914D01*
X32966Y-36010D01*
X32941Y-36086D01*
X32923Y-36124D01*
X32906Y-36143D01*
X32875Y-36162D01*
X32847Y-36162D01*
X32820Y-36143D01*
X32809Y-36124D01*
X32798Y-36086D01*
X32794Y-36010D01*
X32806Y-35914D01*
X32829Y-35838D01*
X32849Y-35800D01*
X32865Y-35781D01*
X32897Y-35762D01*
X33183Y-35762D02*
X33211Y-35762D01*
X33237Y-35781D01*
X33249Y-35800D01*
X33258Y-35838D01*
X33264Y-35914D01*
X33252Y-36010D01*
X33227Y-36086D01*
X33209Y-36124D01*
X33192Y-36143D01*
X33161Y-36162D01*
X33133Y-36162D01*
X33106Y-36143D01*
X33095Y-36124D01*
X33084Y-36086D01*
X33080Y-36010D01*
X33092Y-35914D01*
X33115Y-35838D01*
X33135Y-35800D01*
X33151Y-35781D01*
X33183Y-35762D01*
G54D12*
X28059Y-46162D02*
X27925Y-45971D01*
X27830Y-46162D02*
X27830Y-45762D01*
X27983Y-45762D01*
X28021Y-45781D01*
X28040Y-45800D01*
X28059Y-45838D01*
X28059Y-45895D01*
X28040Y-45933D01*
X28021Y-45952D01*
X27983Y-45971D01*
X27830Y-45971D01*
X28192Y-45762D02*
X28440Y-45762D01*
X28306Y-45914D01*
X28364Y-45914D01*
X28402Y-45933D01*
X28421Y-45952D01*
X28440Y-45990D01*
X28440Y-46086D01*
X28421Y-46124D01*
X28402Y-46143D01*
X28364Y-46162D01*
X28249Y-46162D01*
X28211Y-46143D01*
X28192Y-46124D01*
G54D10*
X32534Y-45800D02*
X32550Y-45781D01*
X32582Y-45762D01*
X32653Y-45762D01*
X32679Y-45781D01*
X32691Y-45800D01*
X32701Y-45838D01*
X32697Y-45876D01*
X32674Y-45933D01*
X32475Y-46162D01*
X32661Y-46162D01*
X32811Y-45762D02*
X33011Y-45762D01*
X32832Y-46162D01*
X33183Y-45762D02*
X33211Y-45762D01*
X33237Y-45781D01*
X33249Y-45800D01*
X33258Y-45838D01*
X33264Y-45914D01*
X33252Y-46010D01*
X33227Y-46086D01*
X33209Y-46124D01*
X33192Y-46143D01*
X33161Y-46162D01*
X33133Y-46162D01*
X33106Y-46143D01*
X33095Y-46124D01*
X33084Y-46086D01*
X33080Y-46010D01*
X33092Y-45914D01*
X33115Y-45838D01*
X33135Y-45800D01*
X33151Y-45781D01*
X33183Y-45762D01*
G54D12*
X28059Y-43162D02*
X27925Y-42971D01*
X27830Y-43162D02*
X27830Y-42762D01*
X27983Y-42762D01*
X28021Y-42781D01*
X28040Y-42800D01*
X28059Y-42838D01*
X28059Y-42895D01*
X28040Y-42933D01*
X28021Y-42952D01*
X27983Y-42971D01*
X27830Y-42971D01*
X28402Y-42895D02*
X28402Y-43162D01*
X28306Y-42743D02*
X28211Y-43029D01*
X28459Y-43029D01*
G54D10*
X32534Y-42800D02*
X32550Y-42781D01*
X32582Y-42762D01*
X32653Y-42762D01*
X32679Y-42781D01*
X32691Y-42800D01*
X32701Y-42838D01*
X32697Y-42876D01*
X32674Y-42933D01*
X32475Y-43162D01*
X32661Y-43162D01*
X32811Y-42762D02*
X33011Y-42762D01*
X32832Y-43162D01*
X33183Y-42762D02*
X33211Y-42762D01*
X33237Y-42781D01*
X33249Y-42800D01*
X33258Y-42838D01*
X33264Y-42914D01*
X33252Y-43010D01*
X33227Y-43086D01*
X33209Y-43124D01*
X33192Y-43143D01*
X33161Y-43162D01*
X33133Y-43162D01*
X33106Y-43143D01*
X33095Y-43124D01*
X33084Y-43086D01*
X33080Y-43010D01*
X33092Y-42914D01*
X33115Y-42838D01*
X33135Y-42800D01*
X33151Y-42781D01*
X33183Y-42762D01*
G54D12*
X28059Y-40162D02*
X27925Y-39971D01*
X27830Y-40162D02*
X27830Y-39762D01*
X27983Y-39762D01*
X28021Y-39781D01*
X28040Y-39800D01*
X28059Y-39838D01*
X28059Y-39895D01*
X28040Y-39933D01*
X28021Y-39952D01*
X27983Y-39971D01*
X27830Y-39971D01*
X28421Y-39762D02*
X28230Y-39762D01*
X28211Y-39952D01*
X28230Y-39933D01*
X28268Y-39914D01*
X28364Y-39914D01*
X28402Y-39933D01*
X28421Y-39952D01*
X28440Y-39990D01*
X28440Y-40086D01*
X28421Y-40124D01*
X28402Y-40143D01*
X28364Y-40162D01*
X28268Y-40162D01*
X28230Y-40143D01*
X28211Y-40124D01*
G54D10*
X32534Y-39800D02*
X32550Y-39781D01*
X32582Y-39762D01*
X32653Y-39762D01*
X32679Y-39781D01*
X32691Y-39800D01*
X32701Y-39838D01*
X32697Y-39876D01*
X32674Y-39933D01*
X32475Y-40162D01*
X32661Y-40162D01*
X32811Y-39762D02*
X33011Y-39762D01*
X32832Y-40162D01*
X33183Y-39762D02*
X33211Y-39762D01*
X33237Y-39781D01*
X33249Y-39800D01*
X33258Y-39838D01*
X33264Y-39914D01*
X33252Y-40010D01*
X33227Y-40086D01*
X33209Y-40124D01*
X33192Y-40143D01*
X33161Y-40162D01*
X33133Y-40162D01*
X33106Y-40143D01*
X33095Y-40124D01*
X33084Y-40086D01*
X33080Y-40010D01*
X33092Y-39914D01*
X33115Y-39838D01*
X33135Y-39800D01*
X33151Y-39781D01*
X33183Y-39762D01*
G54D12*
X36743Y-24162D02*
X36609Y-23971D01*
X36514Y-24162D02*
X36514Y-23762D01*
X36667Y-23762D01*
X36705Y-23781D01*
X36724Y-23800D01*
X36743Y-23838D01*
X36743Y-23895D01*
X36724Y-23933D01*
X36705Y-23952D01*
X36667Y-23971D01*
X36514Y-23971D01*
X37124Y-24162D02*
X36895Y-24162D01*
X37009Y-24162D02*
X37009Y-23762D01*
X36971Y-23819D01*
X36933Y-23857D01*
X36895Y-23876D01*
X37486Y-23762D02*
X37295Y-23762D01*
X37276Y-23952D01*
X37295Y-23933D01*
X37333Y-23914D01*
X37429Y-23914D01*
X37467Y-23933D01*
X37486Y-23952D01*
X37505Y-23990D01*
X37505Y-24086D01*
X37486Y-24124D01*
X37467Y-24143D01*
X37429Y-24162D01*
X37333Y-24162D01*
X37295Y-24143D01*
X37276Y-24124D01*
G54D10*
X41683Y-24162D02*
X41511Y-24162D01*
X41597Y-24162D02*
X41647Y-23762D01*
X41611Y-23819D01*
X41578Y-23857D01*
X41547Y-23876D01*
X41919Y-23762D02*
X41947Y-23762D01*
X41973Y-23781D01*
X41985Y-23800D01*
X41994Y-23838D01*
X42000Y-23914D01*
X41988Y-24010D01*
X41963Y-24086D01*
X41945Y-24124D01*
X41928Y-24143D01*
X41897Y-24162D01*
X41869Y-24162D01*
X41842Y-24143D01*
X41831Y-24124D01*
X41820Y-24086D01*
X41816Y-24010D01*
X41828Y-23914D01*
X41851Y-23838D01*
X41871Y-23800D01*
X41887Y-23781D01*
X41919Y-23762D01*
X42097Y-24162D02*
X42147Y-23762D01*
X42145Y-24010D02*
X42212Y-24162D01*
X42245Y-23895D02*
X42111Y-24048D01*
G54D12*
X36743Y-25162D02*
X36609Y-24971D01*
X36514Y-25162D02*
X36514Y-24762D01*
X36667Y-24762D01*
X36705Y-24781D01*
X36724Y-24800D01*
X36743Y-24838D01*
X36743Y-24895D01*
X36724Y-24933D01*
X36705Y-24952D01*
X36667Y-24971D01*
X36514Y-24971D01*
X37124Y-25162D02*
X36895Y-25162D01*
X37009Y-25162D02*
X37009Y-24762D01*
X36971Y-24819D01*
X36933Y-24857D01*
X36895Y-24876D01*
X37467Y-24762D02*
X37390Y-24762D01*
X37352Y-24781D01*
X37333Y-24800D01*
X37295Y-24857D01*
X37276Y-24933D01*
X37276Y-25086D01*
X37295Y-25124D01*
X37314Y-25143D01*
X37352Y-25162D01*
X37429Y-25162D01*
X37467Y-25143D01*
X37486Y-25124D01*
X37505Y-25086D01*
X37505Y-24990D01*
X37486Y-24952D01*
X37467Y-24933D01*
X37429Y-24914D01*
X37352Y-24914D01*
X37314Y-24933D01*
X37295Y-24952D01*
X37276Y-24990D01*
G54D10*
X41683Y-25162D02*
X41511Y-25162D01*
X41597Y-25162D02*
X41647Y-24762D01*
X41611Y-24819D01*
X41578Y-24857D01*
X41547Y-24876D01*
X41919Y-24762D02*
X41947Y-24762D01*
X41973Y-24781D01*
X41985Y-24800D01*
X41994Y-24838D01*
X42000Y-24914D01*
X41988Y-25010D01*
X41963Y-25086D01*
X41945Y-25124D01*
X41928Y-25143D01*
X41897Y-25162D01*
X41869Y-25162D01*
X41842Y-25143D01*
X41831Y-25124D01*
X41820Y-25086D01*
X41816Y-25010D01*
X41828Y-24914D01*
X41851Y-24838D01*
X41871Y-24800D01*
X41887Y-24781D01*
X41919Y-24762D01*
X42097Y-25162D02*
X42147Y-24762D01*
X42145Y-25010D02*
X42212Y-25162D01*
X42245Y-24895D02*
X42111Y-25048D01*
G54D12*
X28059Y-39162D02*
X27925Y-38971D01*
X27830Y-39162D02*
X27830Y-38762D01*
X27983Y-38762D01*
X28021Y-38781D01*
X28040Y-38800D01*
X28059Y-38838D01*
X28059Y-38895D01*
X28040Y-38933D01*
X28021Y-38952D01*
X27983Y-38971D01*
X27830Y-38971D01*
X28402Y-38762D02*
X28325Y-38762D01*
X28287Y-38781D01*
X28268Y-38800D01*
X28230Y-38857D01*
X28211Y-38933D01*
X28211Y-39086D01*
X28230Y-39124D01*
X28249Y-39143D01*
X28287Y-39162D01*
X28364Y-39162D01*
X28402Y-39143D01*
X28421Y-39124D01*
X28440Y-39086D01*
X28440Y-38990D01*
X28421Y-38952D01*
X28402Y-38933D01*
X28364Y-38914D01*
X28287Y-38914D01*
X28249Y-38933D01*
X28230Y-38952D01*
X28211Y-38990D01*
G54D10*
X32534Y-38800D02*
X32550Y-38781D01*
X32582Y-38762D01*
X32653Y-38762D01*
X32679Y-38781D01*
X32691Y-38800D01*
X32701Y-38838D01*
X32697Y-38876D01*
X32674Y-38933D01*
X32475Y-39162D01*
X32661Y-39162D01*
X32811Y-38762D02*
X33011Y-38762D01*
X32832Y-39162D01*
X33183Y-38762D02*
X33211Y-38762D01*
X33237Y-38781D01*
X33249Y-38800D01*
X33258Y-38838D01*
X33264Y-38914D01*
X33252Y-39010D01*
X33227Y-39086D01*
X33209Y-39124D01*
X33192Y-39143D01*
X33161Y-39162D01*
X33133Y-39162D01*
X33106Y-39143D01*
X33095Y-39124D01*
X33084Y-39086D01*
X33080Y-39010D01*
X33092Y-38914D01*
X33115Y-38838D01*
X33135Y-38800D01*
X33151Y-38781D01*
X33183Y-38762D01*
G54D12*
X28059Y-38162D02*
X27925Y-37971D01*
X27830Y-38162D02*
X27830Y-37762D01*
X27983Y-37762D01*
X28021Y-37781D01*
X28040Y-37800D01*
X28059Y-37838D01*
X28059Y-37895D01*
X28040Y-37933D01*
X28021Y-37952D01*
X27983Y-37971D01*
X27830Y-37971D01*
X28192Y-37762D02*
X28459Y-37762D01*
X28287Y-38162D01*
G54D10*
X32534Y-37800D02*
X32550Y-37781D01*
X32582Y-37762D01*
X32653Y-37762D01*
X32679Y-37781D01*
X32691Y-37800D01*
X32701Y-37838D01*
X32697Y-37876D01*
X32674Y-37933D01*
X32475Y-38162D01*
X32661Y-38162D01*
X32811Y-37762D02*
X33011Y-37762D01*
X32832Y-38162D01*
X33183Y-37762D02*
X33211Y-37762D01*
X33237Y-37781D01*
X33249Y-37800D01*
X33258Y-37838D01*
X33264Y-37914D01*
X33252Y-38010D01*
X33227Y-38086D01*
X33209Y-38124D01*
X33192Y-38143D01*
X33161Y-38162D01*
X33133Y-38162D01*
X33106Y-38143D01*
X33095Y-38124D01*
X33084Y-38086D01*
X33080Y-38010D01*
X33092Y-37914D01*
X33115Y-37838D01*
X33135Y-37800D01*
X33151Y-37781D01*
X33183Y-37762D01*
G54D12*
X37059Y-26162D02*
X36925Y-25971D01*
X36830Y-26162D02*
X36830Y-25762D01*
X36983Y-25762D01*
X37021Y-25781D01*
X37040Y-25800D01*
X37059Y-25838D01*
X37059Y-25895D01*
X37040Y-25933D01*
X37021Y-25952D01*
X36983Y-25971D01*
X36830Y-25971D01*
X37287Y-25933D02*
X37249Y-25914D01*
X37230Y-25895D01*
X37211Y-25857D01*
X37211Y-25838D01*
X37230Y-25800D01*
X37249Y-25781D01*
X37287Y-25762D01*
X37364Y-25762D01*
X37402Y-25781D01*
X37421Y-25800D01*
X37440Y-25838D01*
X37440Y-25857D01*
X37421Y-25895D01*
X37402Y-25914D01*
X37364Y-25933D01*
X37287Y-25933D01*
X37249Y-25952D01*
X37230Y-25971D01*
X37211Y-26010D01*
X37211Y-26086D01*
X37230Y-26124D01*
X37249Y-26143D01*
X37287Y-26162D01*
X37364Y-26162D01*
X37402Y-26143D01*
X37421Y-26124D01*
X37440Y-26086D01*
X37440Y-26010D01*
X37421Y-25971D01*
X37402Y-25952D01*
X37364Y-25933D01*
G54D10*
X41534Y-25800D02*
X41550Y-25781D01*
X41582Y-25762D01*
X41653Y-25762D01*
X41679Y-25781D01*
X41691Y-25800D01*
X41701Y-25838D01*
X41697Y-25876D01*
X41674Y-25933D01*
X41475Y-26162D01*
X41661Y-26162D01*
X41951Y-25895D02*
X41918Y-26162D01*
X41899Y-25743D02*
X41791Y-26029D01*
X41977Y-26029D01*
X42183Y-25762D02*
X42211Y-25762D01*
X42237Y-25781D01*
X42249Y-25800D01*
X42258Y-25838D01*
X42264Y-25914D01*
X42252Y-26010D01*
X42227Y-26086D01*
X42209Y-26124D01*
X42192Y-26143D01*
X42161Y-26162D01*
X42133Y-26162D01*
X42106Y-26143D01*
X42095Y-26124D01*
X42084Y-26086D01*
X42080Y-26010D01*
X42092Y-25914D01*
X42115Y-25838D01*
X42135Y-25800D01*
X42151Y-25781D01*
X42183Y-25762D01*
G54D12*
X28059Y-47162D02*
X27925Y-46971D01*
X27830Y-47162D02*
X27830Y-46762D01*
X27983Y-46762D01*
X28021Y-46781D01*
X28040Y-46800D01*
X28059Y-46838D01*
X28059Y-46895D01*
X28040Y-46933D01*
X28021Y-46952D01*
X27983Y-46971D01*
X27830Y-46971D01*
X28249Y-47162D02*
X28325Y-47162D01*
X28364Y-47143D01*
X28383Y-47124D01*
X28421Y-47067D01*
X28440Y-46990D01*
X28440Y-46838D01*
X28421Y-46800D01*
X28402Y-46781D01*
X28364Y-46762D01*
X28287Y-46762D01*
X28249Y-46781D01*
X28230Y-46800D01*
X28211Y-46838D01*
X28211Y-46933D01*
X28230Y-46971D01*
X28249Y-46990D01*
X28287Y-47010D01*
X28364Y-47010D01*
X28402Y-46990D01*
X28421Y-46971D01*
X28440Y-46933D01*
G54D10*
X32696Y-46762D02*
X32553Y-46762D01*
X32515Y-46952D01*
X32531Y-46933D01*
X32563Y-46914D01*
X32634Y-46914D01*
X32660Y-46933D01*
X32672Y-46952D01*
X32682Y-46990D01*
X32670Y-47086D01*
X32651Y-47124D01*
X32634Y-47143D01*
X32603Y-47162D01*
X32532Y-47162D01*
X32505Y-47143D01*
X32494Y-47124D01*
X32947Y-47162D02*
X32775Y-47162D01*
X32861Y-47162D02*
X32911Y-46762D01*
X32875Y-46819D01*
X32842Y-46857D01*
X32811Y-46876D01*
X33183Y-46762D02*
X33211Y-46762D01*
X33237Y-46781D01*
X33249Y-46800D01*
X33258Y-46838D01*
X33264Y-46914D01*
X33252Y-47010D01*
X33227Y-47086D01*
X33209Y-47124D01*
X33192Y-47143D01*
X33161Y-47162D01*
X33133Y-47162D01*
X33106Y-47143D01*
X33095Y-47124D01*
X33084Y-47086D01*
X33080Y-47010D01*
X33092Y-46914D01*
X33115Y-46838D01*
X33135Y-46800D01*
X33151Y-46781D01*
X33183Y-46762D01*
G54D12*
X27743Y-44162D02*
X27609Y-43971D01*
X27514Y-44162D02*
X27514Y-43762D01*
X27667Y-43762D01*
X27705Y-43781D01*
X27724Y-43800D01*
X27743Y-43838D01*
X27743Y-43895D01*
X27724Y-43933D01*
X27705Y-43952D01*
X27667Y-43971D01*
X27514Y-43971D01*
X28124Y-44162D02*
X27895Y-44162D01*
X28009Y-44162D02*
X28009Y-43762D01*
X27971Y-43819D01*
X27933Y-43857D01*
X27895Y-43876D01*
X28371Y-43762D02*
X28410Y-43762D01*
X28448Y-43781D01*
X28467Y-43800D01*
X28486Y-43838D01*
X28505Y-43914D01*
X28505Y-44010D01*
X28486Y-44086D01*
X28467Y-44124D01*
X28448Y-44143D01*
X28410Y-44162D01*
X28371Y-44162D01*
X28333Y-44143D01*
X28314Y-44124D01*
X28295Y-44086D01*
X28276Y-44010D01*
X28276Y-43914D01*
X28295Y-43838D01*
X28314Y-43800D01*
X28333Y-43781D01*
X28371Y-43762D01*
G54D10*
X32696Y-43762D02*
X32553Y-43762D01*
X32515Y-43952D01*
X32531Y-43933D01*
X32563Y-43914D01*
X32634Y-43914D01*
X32660Y-43933D01*
X32672Y-43952D01*
X32682Y-43990D01*
X32670Y-44086D01*
X32651Y-44124D01*
X32634Y-44143D01*
X32603Y-44162D01*
X32532Y-44162D01*
X32505Y-44143D01*
X32494Y-44124D01*
X32947Y-44162D02*
X32775Y-44162D01*
X32861Y-44162D02*
X32911Y-43762D01*
X32875Y-43819D01*
X32842Y-43857D01*
X32811Y-43876D01*
X33183Y-43762D02*
X33211Y-43762D01*
X33237Y-43781D01*
X33249Y-43800D01*
X33258Y-43838D01*
X33264Y-43914D01*
X33252Y-44010D01*
X33227Y-44086D01*
X33209Y-44124D01*
X33192Y-44143D01*
X33161Y-44162D01*
X33133Y-44162D01*
X33106Y-44143D01*
X33095Y-44124D01*
X33084Y-44086D01*
X33080Y-44010D01*
X33092Y-43914D01*
X33115Y-43838D01*
X33135Y-43800D01*
X33151Y-43781D01*
X33183Y-43762D01*
G54D12*
X27743Y-41162D02*
X27609Y-40971D01*
X27514Y-41162D02*
X27514Y-40762D01*
X27667Y-40762D01*
X27705Y-40781D01*
X27724Y-40800D01*
X27743Y-40838D01*
X27743Y-40895D01*
X27724Y-40933D01*
X27705Y-40952D01*
X27667Y-40971D01*
X27514Y-40971D01*
X28124Y-41162D02*
X27895Y-41162D01*
X28009Y-41162D02*
X28009Y-40762D01*
X27971Y-40819D01*
X27933Y-40857D01*
X27895Y-40876D01*
X28505Y-41162D02*
X28276Y-41162D01*
X28390Y-41162D02*
X28390Y-40762D01*
X28352Y-40819D01*
X28314Y-40857D01*
X28276Y-40876D01*
G54D10*
X32696Y-40762D02*
X32553Y-40762D01*
X32515Y-40952D01*
X32531Y-40933D01*
X32563Y-40914D01*
X32634Y-40914D01*
X32660Y-40933D01*
X32672Y-40952D01*
X32682Y-40990D01*
X32670Y-41086D01*
X32651Y-41124D01*
X32634Y-41143D01*
X32603Y-41162D01*
X32532Y-41162D01*
X32505Y-41143D01*
X32494Y-41124D01*
X32947Y-41162D02*
X32775Y-41162D01*
X32861Y-41162D02*
X32911Y-40762D01*
X32875Y-40819D01*
X32842Y-40857D01*
X32811Y-40876D01*
X33183Y-40762D02*
X33211Y-40762D01*
X33237Y-40781D01*
X33249Y-40800D01*
X33258Y-40838D01*
X33264Y-40914D01*
X33252Y-41010D01*
X33227Y-41086D01*
X33209Y-41124D01*
X33192Y-41143D01*
X33161Y-41162D01*
X33133Y-41162D01*
X33106Y-41143D01*
X33095Y-41124D01*
X33084Y-41086D01*
X33080Y-41010D01*
X33092Y-40914D01*
X33115Y-40838D01*
X33135Y-40800D01*
X33151Y-40781D01*
X33183Y-40762D01*
G54D12*
X85912Y-55507D02*
X85721Y-55641D01*
X85912Y-55736D02*
X85512Y-55736D01*
X85512Y-55583D01*
X85531Y-55545D01*
X85550Y-55526D01*
X85588Y-55507D01*
X85645Y-55507D01*
X85683Y-55526D01*
X85702Y-55545D01*
X85721Y-55583D01*
X85721Y-55736D01*
X85912Y-55126D02*
X85912Y-55355D01*
X85912Y-55241D02*
X85512Y-55241D01*
X85569Y-55279D01*
X85607Y-55317D01*
X85626Y-55355D01*
X85550Y-54974D02*
X85531Y-54955D01*
X85512Y-54917D01*
X85512Y-54821D01*
X85531Y-54783D01*
X85550Y-54764D01*
X85588Y-54745D01*
X85626Y-54745D01*
X85683Y-54764D01*
X85912Y-54993D01*
X85912Y-54745D01*
G54D10*
X85645Y-53835D02*
X85912Y-53868D01*
X85493Y-53887D02*
X85779Y-53995D01*
X85779Y-53809D01*
X85512Y-53689D02*
X85512Y-53489D01*
X85912Y-53668D01*
X85512Y-53317D02*
X85512Y-53289D01*
X85531Y-53263D01*
X85550Y-53251D01*
X85588Y-53242D01*
X85664Y-53236D01*
X85760Y-53248D01*
X85836Y-53273D01*
X85874Y-53291D01*
X85893Y-53308D01*
X85912Y-53339D01*
X85912Y-53367D01*
X85893Y-53394D01*
X85874Y-53405D01*
X85836Y-53416D01*
X85760Y-53420D01*
X85664Y-53408D01*
X85588Y-53385D01*
X85550Y-53365D01*
X85531Y-53349D01*
X85512Y-53317D01*
G54D12*
X28368Y-34537D02*
X28234Y-34346D01*
X28139Y-34537D02*
X28139Y-34137D01*
X28292Y-34137D01*
X28330Y-34156D01*
X28349Y-34175D01*
X28368Y-34213D01*
X28368Y-34270D01*
X28349Y-34308D01*
X28330Y-34327D01*
X28292Y-34346D01*
X28139Y-34346D01*
X28749Y-34537D02*
X28520Y-34537D01*
X28634Y-34537D02*
X28634Y-34137D01*
X28596Y-34194D01*
X28558Y-34232D01*
X28520Y-34251D01*
X28882Y-34137D02*
X29130Y-34137D01*
X28996Y-34289D01*
X29054Y-34289D01*
X29092Y-34308D01*
X29111Y-34327D01*
X29130Y-34365D01*
X29130Y-34461D01*
X29111Y-34499D01*
X29092Y-34518D01*
X29054Y-34537D01*
X28939Y-34537D01*
X28901Y-34518D01*
X28882Y-34499D01*
G54D10*
X32701Y-35162D02*
X32529Y-35162D01*
X32615Y-35162D02*
X32665Y-34762D01*
X32629Y-34819D01*
X32596Y-34857D01*
X32565Y-34876D01*
X32829Y-35162D02*
X32879Y-34762D01*
X32877Y-35010D02*
X32944Y-35162D01*
X32977Y-34895D02*
X32843Y-35048D01*
G54D13*
X49631Y-54202D02*
X49631Y-53702D01*
X49822Y-53702D01*
X49869Y-53726D01*
X49893Y-53750D01*
X49917Y-53798D01*
X49917Y-53869D01*
X49893Y-53917D01*
X49869Y-53940D01*
X49822Y-53964D01*
X49631Y-53964D01*
X50345Y-53869D02*
X50345Y-54202D01*
X50226Y-53679D02*
X50107Y-54036D01*
X50417Y-54036D01*
G54D12*
X52212Y-54202D02*
X52275Y-53702D01*
X52428Y-53702D01*
X52463Y-53726D01*
X52479Y-53750D01*
X52492Y-53798D01*
X52483Y-53869D01*
X52458Y-53917D01*
X52436Y-53940D01*
X52395Y-53964D01*
X52242Y-53964D01*
X52751Y-53702D02*
X52828Y-53702D01*
X52863Y-53726D01*
X52895Y-53774D01*
X52902Y-53869D01*
X52881Y-54036D01*
X52850Y-54131D01*
X52806Y-54179D01*
X52765Y-54202D01*
X52688Y-54202D01*
X52653Y-54179D01*
X52621Y-54131D01*
X52614Y-54036D01*
X52635Y-53869D01*
X52666Y-53774D01*
X52710Y-53726D01*
X52751Y-53702D01*
X53260Y-54202D02*
X53156Y-53964D01*
X53031Y-54202D02*
X53094Y-53702D01*
X53247Y-53702D01*
X53282Y-53726D01*
X53298Y-53750D01*
X53311Y-53798D01*
X53302Y-53869D01*
X53277Y-53917D01*
X53255Y-53940D01*
X53214Y-53964D01*
X53061Y-53964D01*
X53437Y-53702D02*
X53666Y-53702D01*
X53488Y-54202D02*
X53551Y-53702D01*
X53635Y-54250D02*
X53940Y-54250D01*
X54208Y-53940D02*
X54262Y-53964D01*
X54278Y-53988D01*
X54291Y-54036D01*
X54282Y-54107D01*
X54257Y-54155D01*
X54235Y-54179D01*
X54194Y-54202D01*
X54041Y-54202D01*
X54104Y-53702D01*
X54238Y-53702D01*
X54273Y-53726D01*
X54289Y-53750D01*
X54302Y-53798D01*
X54296Y-53845D01*
X54271Y-53893D01*
X54249Y-53917D01*
X54208Y-53940D01*
X54074Y-53940D01*
G54D13*
X33131Y-22202D02*
X33131Y-21702D01*
X33322Y-21702D01*
X33369Y-21726D01*
X33393Y-21750D01*
X33417Y-21798D01*
X33417Y-21869D01*
X33393Y-21917D01*
X33369Y-21940D01*
X33322Y-21964D01*
X33131Y-21964D01*
X33583Y-21702D02*
X33893Y-21702D01*
X33726Y-21893D01*
X33798Y-21893D01*
X33845Y-21917D01*
X33869Y-21940D01*
X33893Y-21988D01*
X33893Y-22107D01*
X33869Y-22155D01*
X33845Y-22179D01*
X33798Y-22202D01*
X33655Y-22202D01*
X33607Y-22179D01*
X33583Y-22155D01*
G54D12*
X31843Y-22952D02*
X31906Y-22452D01*
X32059Y-22452D01*
X32094Y-22476D01*
X32110Y-22500D01*
X32123Y-22548D01*
X32114Y-22619D01*
X32089Y-22667D01*
X32067Y-22690D01*
X32026Y-22714D01*
X31873Y-22714D01*
X32472Y-22952D02*
X32368Y-22714D01*
X32243Y-22952D02*
X32306Y-22452D01*
X32459Y-22452D01*
X32494Y-22476D01*
X32510Y-22500D01*
X32523Y-22548D01*
X32514Y-22619D01*
X32489Y-22667D01*
X32467Y-22690D01*
X32426Y-22714D01*
X32273Y-22714D01*
X32782Y-22452D02*
X32859Y-22452D01*
X32894Y-22476D01*
X32926Y-22524D01*
X32933Y-22619D01*
X32912Y-22786D01*
X32881Y-22881D01*
X32837Y-22929D01*
X32796Y-22952D01*
X32719Y-22952D01*
X32684Y-22929D01*
X32652Y-22881D01*
X32645Y-22786D01*
X32666Y-22619D01*
X32697Y-22524D01*
X32741Y-22476D01*
X32782Y-22452D01*
X33062Y-22952D02*
X33125Y-22452D01*
X33278Y-22452D01*
X33313Y-22476D01*
X33329Y-22500D01*
X33342Y-22548D01*
X33333Y-22619D01*
X33308Y-22667D01*
X33286Y-22690D01*
X33245Y-22714D01*
X33092Y-22714D01*
X33361Y-23000D02*
X33666Y-23000D01*
X33767Y-22952D02*
X33830Y-22452D01*
X33983Y-22452D01*
X34018Y-22476D01*
X34034Y-22500D01*
X34047Y-22548D01*
X34038Y-22619D01*
X34013Y-22667D01*
X33991Y-22690D01*
X33950Y-22714D01*
X33797Y-22714D01*
X34358Y-22952D02*
X34167Y-22952D01*
X34230Y-22452D01*
X34554Y-22452D02*
X34503Y-22857D01*
X34516Y-22905D01*
X34532Y-22929D01*
X34567Y-22952D01*
X34644Y-22952D01*
X34685Y-22929D01*
X34707Y-22905D01*
X34732Y-22857D01*
X34783Y-22452D01*
X35180Y-22476D02*
X35145Y-22452D01*
X35088Y-22452D01*
X35027Y-22476D01*
X34983Y-22524D01*
X34958Y-22571D01*
X34927Y-22667D01*
X34918Y-22738D01*
X34925Y-22833D01*
X34938Y-22881D01*
X34970Y-22929D01*
X35025Y-22952D01*
X35063Y-22952D01*
X35123Y-22929D01*
X35145Y-22905D01*
X35166Y-22738D01*
X35090Y-22738D01*
G54D13*
X36834Y-21702D02*
X36834Y-22060D01*
X36810Y-22131D01*
X36762Y-22179D01*
X36691Y-22202D01*
X36643Y-22202D01*
X37072Y-22202D02*
X37072Y-21702D01*
X37263Y-21702D01*
X37310Y-21726D01*
X37334Y-21750D01*
X37358Y-21798D01*
X37358Y-21869D01*
X37334Y-21917D01*
X37310Y-21940D01*
X37263Y-21964D01*
X37072Y-21964D01*
X37548Y-21750D02*
X37572Y-21726D01*
X37620Y-21702D01*
X37739Y-21702D01*
X37786Y-21726D01*
X37810Y-21750D01*
X37834Y-21798D01*
X37834Y-21845D01*
X37810Y-21917D01*
X37524Y-22202D01*
X37834Y-22202D01*
G54D12*
X35526Y-22952D02*
X35589Y-22452D01*
X35755Y-22952D01*
X35818Y-22452D01*
X36084Y-22452D02*
X36161Y-22452D01*
X36196Y-22476D01*
X36228Y-22524D01*
X36235Y-22619D01*
X36214Y-22786D01*
X36183Y-22881D01*
X36139Y-22929D01*
X36098Y-22952D01*
X36021Y-22952D01*
X35986Y-22929D01*
X35954Y-22881D01*
X35947Y-22786D01*
X35968Y-22619D01*
X35999Y-22524D01*
X36043Y-22476D01*
X36084Y-22452D01*
X36593Y-22952D02*
X36489Y-22714D01*
X36364Y-22952D02*
X36427Y-22452D01*
X36580Y-22452D01*
X36615Y-22476D01*
X36631Y-22500D01*
X36644Y-22548D01*
X36635Y-22619D01*
X36610Y-22667D01*
X36588Y-22690D01*
X36547Y-22714D01*
X36394Y-22714D01*
X36764Y-22952D02*
X36827Y-22452D01*
X36916Y-22810D01*
X37094Y-22452D01*
X37031Y-22952D01*
X37572Y-22429D02*
X37149Y-23071D01*
X37831Y-22952D02*
X37640Y-22952D01*
X37703Y-22452D01*
X38103Y-22452D02*
X38180Y-22452D01*
X38215Y-22476D01*
X38247Y-22524D01*
X38254Y-22619D01*
X38233Y-22786D01*
X38202Y-22881D01*
X38158Y-22929D01*
X38117Y-22952D01*
X38040Y-22952D01*
X38005Y-22929D01*
X37973Y-22881D01*
X37966Y-22786D01*
X37987Y-22619D01*
X38018Y-22524D01*
X38062Y-22476D01*
X38103Y-22452D01*
X38382Y-22810D02*
X38573Y-22810D01*
X38326Y-22952D02*
X38522Y-22452D01*
X38593Y-22952D01*
X38726Y-22952D02*
X38789Y-22452D01*
X38884Y-22452D01*
X38939Y-22476D01*
X38971Y-22524D01*
X38984Y-22571D01*
X38991Y-22667D01*
X38982Y-22738D01*
X38951Y-22833D01*
X38926Y-22881D01*
X38882Y-22929D01*
X38821Y-22952D01*
X38726Y-22952D01*
G54D13*
X44327Y-27119D02*
X43827Y-27119D01*
X43827Y-26928D01*
X43851Y-26881D01*
X43875Y-26857D01*
X43923Y-26833D01*
X43994Y-26833D01*
X44042Y-26857D01*
X44065Y-26881D01*
X44089Y-26928D01*
X44089Y-27119D01*
X43875Y-26643D02*
X43851Y-26619D01*
X43827Y-26571D01*
X43827Y-26452D01*
X43851Y-26405D01*
X43875Y-26381D01*
X43923Y-26357D01*
X43970Y-26357D01*
X44042Y-26381D01*
X44327Y-26667D01*
X44327Y-26357D01*
G54D12*
X44327Y-25797D02*
X43827Y-25734D01*
X44327Y-25607D02*
X43827Y-25544D01*
X44327Y-25378D01*
X43827Y-25315D01*
X43827Y-25182D02*
X43827Y-24953D01*
X44327Y-25131D02*
X43827Y-25068D01*
X43804Y-24532D02*
X44446Y-24955D01*
X44327Y-24464D02*
X43827Y-24401D01*
X44327Y-24274D02*
X43827Y-24211D01*
X44327Y-24045D01*
X43827Y-23982D01*
X43827Y-23849D02*
X43827Y-23620D01*
X44327Y-23798D02*
X43827Y-23735D01*
X43636Y-24473D02*
X43636Y-23651D01*
G54D13*
X52631Y-50452D02*
X52631Y-49952D01*
X52822Y-49952D01*
X52869Y-49976D01*
X52893Y-50000D01*
X52917Y-50048D01*
X52917Y-50119D01*
X52893Y-50167D01*
X52869Y-50190D01*
X52822Y-50214D01*
X52631Y-50214D01*
X53393Y-50452D02*
X53107Y-50452D01*
X53250Y-50452D02*
X53250Y-49952D01*
X53202Y-50024D01*
X53155Y-50071D01*
X53107Y-50095D01*
G54D12*
X53968Y-49952D02*
X53777Y-49952D01*
X53728Y-50190D01*
X53750Y-50167D01*
X53791Y-50143D01*
X53887Y-50143D01*
X53922Y-50167D01*
X53938Y-50190D01*
X53951Y-50238D01*
X53936Y-50357D01*
X53911Y-50405D01*
X53889Y-50429D01*
X53848Y-50452D01*
X53752Y-50452D01*
X53717Y-50429D01*
X53701Y-50405D01*
X54101Y-49952D02*
X54171Y-50452D01*
X54368Y-49952D01*
G54D13*
X50084Y-46702D02*
X50084Y-47060D01*
X50060Y-47131D01*
X50012Y-47179D01*
X49941Y-47202D01*
X49893Y-47202D01*
X50322Y-47202D02*
X50322Y-46702D01*
X50513Y-46702D01*
X50560Y-46726D01*
X50584Y-46750D01*
X50608Y-46798D01*
X50608Y-46869D01*
X50584Y-46917D01*
X50560Y-46940D01*
X50513Y-46964D01*
X50322Y-46964D01*
X51084Y-47202D02*
X50798Y-47202D01*
X50941Y-47202D02*
X50941Y-46702D01*
X50893Y-46774D01*
X50846Y-46821D01*
X50798Y-46845D01*
G54D12*
X49277Y-48702D02*
X49347Y-49202D01*
X49544Y-48702D01*
X49849Y-49155D02*
X49827Y-49179D01*
X49767Y-49202D01*
X49729Y-49202D01*
X49674Y-49179D01*
X49642Y-49131D01*
X49629Y-49083D01*
X49622Y-48988D01*
X49631Y-48917D01*
X49662Y-48821D01*
X49687Y-48774D01*
X49731Y-48726D01*
X49792Y-48702D01*
X49830Y-48702D01*
X49884Y-48726D01*
X49900Y-48750D01*
X50249Y-49155D02*
X50227Y-49179D01*
X50167Y-49202D01*
X50129Y-49202D01*
X50074Y-49179D01*
X50042Y-49131D01*
X50029Y-49083D01*
X50022Y-48988D01*
X50031Y-48917D01*
X50062Y-48821D01*
X50087Y-48774D01*
X50131Y-48726D01*
X50192Y-48702D01*
X50230Y-48702D01*
X50284Y-48726D01*
X50300Y-48750D01*
X50313Y-49250D02*
X50618Y-49250D01*
X50719Y-49202D02*
X50782Y-48702D01*
X50935Y-48702D01*
X50970Y-48726D01*
X50986Y-48750D01*
X50999Y-48798D01*
X50990Y-48869D01*
X50965Y-48917D01*
X50943Y-48940D01*
X50902Y-48964D01*
X50749Y-48964D01*
X51157Y-48750D02*
X51179Y-48726D01*
X51220Y-48702D01*
X51316Y-48702D01*
X51351Y-48726D01*
X51367Y-48750D01*
X51380Y-48798D01*
X51374Y-48845D01*
X51346Y-48917D01*
X51081Y-49202D01*
X51329Y-49202D01*
X51754Y-48702D02*
X51563Y-48702D01*
X51514Y-48940D01*
X51536Y-48917D01*
X51577Y-48893D01*
X51673Y-48893D01*
X51708Y-48917D01*
X51724Y-48940D01*
X51737Y-48988D01*
X51722Y-49107D01*
X51697Y-49155D01*
X51675Y-49179D01*
X51634Y-49202D01*
X51538Y-49202D01*
X51503Y-49179D01*
X51487Y-49155D01*
G54D13*
X41702Y-31381D02*
X42107Y-31381D01*
X42155Y-31357D01*
X42179Y-31333D01*
X42202Y-31286D01*
X42202Y-31190D01*
X42179Y-31143D01*
X42155Y-31119D01*
X42107Y-31095D01*
X41702Y-31095D01*
X41702Y-30619D02*
X41702Y-30857D01*
X41940Y-30881D01*
X41917Y-30857D01*
X41893Y-30809D01*
X41893Y-30690D01*
X41917Y-30643D01*
X41940Y-30619D01*
X41988Y-30595D01*
X42107Y-30595D01*
X42155Y-30619D01*
X42179Y-30643D01*
X42202Y-30690D01*
X42202Y-30809D01*
X42179Y-30857D01*
X42155Y-30881D01*
G54D12*
X41750Y-29788D02*
X41726Y-29766D01*
X41702Y-29725D01*
X41702Y-29629D01*
X41726Y-29594D01*
X41750Y-29578D01*
X41798Y-29565D01*
X41845Y-29571D01*
X41917Y-29599D01*
X42202Y-29864D01*
X42202Y-29616D01*
X41869Y-29231D02*
X42202Y-29273D01*
X41679Y-29304D02*
X42036Y-29443D01*
X42036Y-29195D01*
X42155Y-28829D02*
X42179Y-28851D01*
X42202Y-28911D01*
X42202Y-28949D01*
X42179Y-29004D01*
X42131Y-29036D01*
X42083Y-29049D01*
X41988Y-29056D01*
X41917Y-29047D01*
X41821Y-29016D01*
X41774Y-28991D01*
X41726Y-28947D01*
X41702Y-28886D01*
X41702Y-28848D01*
X41726Y-28794D01*
X41750Y-28778D01*
X41702Y-28410D02*
X41702Y-28601D01*
X41940Y-28650D01*
X41917Y-28628D01*
X41893Y-28587D01*
X41893Y-28491D01*
X41917Y-28456D01*
X41940Y-28440D01*
X41988Y-28427D01*
X42107Y-28442D01*
X42155Y-28467D01*
X42179Y-28489D01*
X42202Y-28530D01*
X42202Y-28626D01*
X42179Y-28661D01*
X42155Y-28677D01*
X42202Y-28073D02*
X42202Y-28302D01*
X42202Y-28188D02*
X41702Y-28125D01*
X41774Y-28172D01*
X41821Y-28216D01*
X41845Y-28257D01*
X41750Y-27864D02*
X41726Y-27842D01*
X41702Y-27801D01*
X41702Y-27705D01*
X41726Y-27670D01*
X41750Y-27654D01*
X41798Y-27641D01*
X41845Y-27647D01*
X41917Y-27675D01*
X42202Y-27940D01*
X42202Y-27692D01*
G54D13*
X42702Y-57131D02*
X43107Y-57131D01*
X43155Y-57107D01*
X43179Y-57083D01*
X43202Y-57036D01*
X43202Y-56940D01*
X43179Y-56893D01*
X43155Y-56869D01*
X43107Y-56845D01*
X42702Y-56845D01*
X42869Y-56393D02*
X43202Y-56393D01*
X42679Y-56512D02*
X43036Y-56631D01*
X43036Y-56321D01*
G54D12*
X43202Y-40057D02*
X42702Y-39994D01*
X42702Y-39841D01*
X42726Y-39806D01*
X42750Y-39790D01*
X42798Y-39777D01*
X42869Y-39786D01*
X42917Y-39811D01*
X42940Y-39833D01*
X42964Y-39874D01*
X42964Y-40027D01*
X42917Y-39564D02*
X42893Y-39599D01*
X42869Y-39615D01*
X42821Y-39628D01*
X42798Y-39625D01*
X42750Y-39600D01*
X42726Y-39578D01*
X42702Y-39537D01*
X42702Y-39460D01*
X42726Y-39425D01*
X42750Y-39409D01*
X42798Y-39396D01*
X42821Y-39399D01*
X42869Y-39424D01*
X42893Y-39446D01*
X42917Y-39487D01*
X42917Y-39564D01*
X42940Y-39605D01*
X42964Y-39627D01*
X43012Y-39652D01*
X43107Y-39664D01*
X43155Y-39651D01*
X43179Y-39635D01*
X43202Y-39600D01*
X43202Y-39523D01*
X43179Y-39482D01*
X43155Y-39460D01*
X43107Y-39435D01*
X43012Y-39423D01*
X42964Y-39436D01*
X42940Y-39452D01*
X42917Y-39487D01*
X42702Y-39251D02*
X43202Y-39047D01*
X42702Y-38984D02*
X43202Y-39314D01*
X42702Y-38870D02*
X42702Y-38622D01*
X42893Y-38780D01*
X42893Y-38722D01*
X42917Y-38687D01*
X42940Y-38671D01*
X42988Y-38658D01*
X43107Y-38673D01*
X43155Y-38698D01*
X43179Y-38720D01*
X43202Y-38761D01*
X43202Y-38876D01*
X43179Y-38911D01*
X43155Y-38927D01*
X42750Y-38476D02*
X42726Y-38454D01*
X42702Y-38413D01*
X42702Y-38317D01*
X42726Y-38282D01*
X42750Y-38266D01*
X42798Y-38253D01*
X42845Y-38259D01*
X42917Y-38287D01*
X43202Y-38552D01*
X43202Y-38304D01*
X43060Y-38134D02*
X43060Y-37943D01*
X43202Y-38190D02*
X42702Y-37994D01*
X43202Y-37923D01*
G54D13*
X32577Y-31256D02*
X32982Y-31256D01*
X33030Y-31232D01*
X33054Y-31208D01*
X33077Y-31161D01*
X33077Y-31065D01*
X33054Y-31018D01*
X33030Y-30994D01*
X32982Y-30970D01*
X32577Y-30970D01*
X32625Y-30756D02*
X32601Y-30732D01*
X32577Y-30684D01*
X32577Y-30565D01*
X32601Y-30518D01*
X32625Y-30494D01*
X32673Y-30470D01*
X32720Y-30470D01*
X32792Y-30494D01*
X33077Y-30780D01*
X33077Y-30470D01*
G54D12*
X33077Y-25961D02*
X32577Y-25898D01*
X32935Y-25809D01*
X32577Y-25631D01*
X33077Y-25694D01*
X32935Y-25505D02*
X32935Y-25314D01*
X33077Y-25561D02*
X32577Y-25365D01*
X33077Y-25294D01*
X32577Y-25136D02*
X33077Y-24932D01*
X32577Y-24869D02*
X33077Y-25199D01*
X32625Y-24742D02*
X32601Y-24720D01*
X32577Y-24679D01*
X32577Y-24583D01*
X32601Y-24548D01*
X32625Y-24532D01*
X32673Y-24519D01*
X32720Y-24525D01*
X32792Y-24553D01*
X33077Y-24818D01*
X33077Y-24570D01*
X32577Y-24374D02*
X32577Y-24126D01*
X32768Y-24284D01*
X32768Y-24226D01*
X32792Y-24191D01*
X32815Y-24175D01*
X32863Y-24162D01*
X32982Y-24177D01*
X33030Y-24202D01*
X33054Y-24224D01*
X33077Y-24265D01*
X33077Y-24380D01*
X33054Y-24415D01*
X33030Y-24431D01*
X32625Y-23980D02*
X32601Y-23958D01*
X32577Y-23917D01*
X32577Y-23821D01*
X32601Y-23786D01*
X32625Y-23770D01*
X32673Y-23757D01*
X32720Y-23763D01*
X32792Y-23791D01*
X33077Y-24056D01*
X33077Y-23808D01*
G54D13*
X49202Y-54083D02*
X48964Y-54250D01*
X49202Y-54369D02*
X48702Y-54369D01*
X48702Y-54178D01*
X48726Y-54131D01*
X48750Y-54107D01*
X48798Y-54083D01*
X48869Y-54083D01*
X48917Y-54107D01*
X48940Y-54131D01*
X48964Y-54178D01*
X48964Y-54369D01*
X49202Y-53583D02*
X48964Y-53750D01*
X49202Y-53869D02*
X48702Y-53869D01*
X48702Y-53678D01*
X48726Y-53631D01*
X48750Y-53607D01*
X48798Y-53583D01*
X48869Y-53583D01*
X48917Y-53607D01*
X48940Y-53631D01*
X48964Y-53678D01*
X48964Y-53869D01*
X48750Y-53393D02*
X48726Y-53369D01*
X48702Y-53321D01*
X48702Y-53202D01*
X48726Y-53155D01*
X48750Y-53131D01*
X48798Y-53107D01*
X48845Y-53107D01*
X48917Y-53131D01*
X49202Y-53417D01*
X49202Y-53107D01*
X49202Y-48066D02*
X49202Y-48295D01*
X49202Y-48181D02*
X48702Y-48118D01*
X48774Y-48165D01*
X48821Y-48209D01*
X48845Y-48250D01*
X49202Y-47895D02*
X48702Y-47832D01*
X49012Y-47833D02*
X49202Y-47742D01*
X48869Y-47700D02*
X49060Y-47877D01*
X49202Y-43833D02*
X48964Y-44000D01*
X49202Y-44119D02*
X48702Y-44119D01*
X48702Y-43928D01*
X48726Y-43881D01*
X48750Y-43857D01*
X48798Y-43833D01*
X48869Y-43833D01*
X48917Y-43857D01*
X48940Y-43881D01*
X48964Y-43928D01*
X48964Y-44119D01*
X49202Y-43333D02*
X48964Y-43500D01*
X49202Y-43619D02*
X48702Y-43619D01*
X48702Y-43428D01*
X48726Y-43381D01*
X48750Y-43357D01*
X48798Y-43333D01*
X48869Y-43333D01*
X48917Y-43357D01*
X48940Y-43381D01*
X48964Y-43428D01*
X48964Y-43619D01*
X48702Y-43167D02*
X48702Y-42857D01*
X48893Y-43024D01*
X48893Y-42952D01*
X48917Y-42905D01*
X48940Y-42881D01*
X48988Y-42857D01*
X49107Y-42857D01*
X49155Y-42881D01*
X49179Y-42905D01*
X49202Y-42952D01*
X49202Y-43095D01*
X49179Y-43143D01*
X49155Y-43167D01*
X49202Y-38066D02*
X49202Y-38295D01*
X49202Y-38181D02*
X48702Y-38118D01*
X48774Y-38165D01*
X48821Y-38209D01*
X48845Y-38250D01*
X49202Y-37895D02*
X48702Y-37832D01*
X49012Y-37833D02*
X49202Y-37742D01*
X48869Y-37700D02*
X49060Y-37877D01*
X48702Y-31131D02*
X49107Y-31131D01*
X49155Y-31107D01*
X49179Y-31083D01*
X49202Y-31036D01*
X49202Y-30940D01*
X49179Y-30893D01*
X49155Y-30869D01*
X49107Y-30845D01*
X48702Y-30845D01*
X49202Y-30345D02*
X49202Y-30631D01*
X49202Y-30488D02*
X48702Y-30488D01*
X48774Y-30536D01*
X48821Y-30583D01*
X48845Y-30631D01*
G54D12*
X48702Y-26763D02*
X48702Y-26496D01*
X49202Y-26731D01*
X48869Y-26193D02*
X49202Y-26235D01*
X48679Y-26266D02*
X49036Y-26405D01*
X49036Y-26157D01*
X49202Y-25835D02*
X49202Y-26026D01*
X48702Y-25963D01*
X49179Y-25718D02*
X49202Y-25664D01*
X49202Y-25568D01*
X49179Y-25527D01*
X49155Y-25505D01*
X49107Y-25480D01*
X49060Y-25474D01*
X49012Y-25487D01*
X48988Y-25503D01*
X48964Y-25538D01*
X48940Y-25612D01*
X48917Y-25647D01*
X48893Y-25663D01*
X48845Y-25676D01*
X48798Y-25670D01*
X48750Y-25645D01*
X48726Y-25623D01*
X48702Y-25582D01*
X48702Y-25486D01*
X48726Y-25432D01*
X48702Y-25182D02*
X48702Y-25143D01*
X48726Y-25108D01*
X48750Y-25092D01*
X48798Y-25079D01*
X48893Y-25072D01*
X49012Y-25087D01*
X49107Y-25118D01*
X49155Y-25143D01*
X49179Y-25165D01*
X49202Y-25206D01*
X49202Y-25245D01*
X49179Y-25280D01*
X49155Y-25296D01*
X49107Y-25309D01*
X49012Y-25316D01*
X48893Y-25301D01*
X48798Y-25270D01*
X48750Y-25245D01*
X48726Y-25223D01*
X48702Y-25182D01*
X48702Y-24705D02*
X48702Y-24782D01*
X48726Y-24823D01*
X48750Y-24845D01*
X48821Y-24892D01*
X48917Y-24923D01*
X49107Y-24947D01*
X49155Y-24934D01*
X49179Y-24918D01*
X49202Y-24883D01*
X49202Y-24806D01*
X49179Y-24765D01*
X49155Y-24743D01*
X49107Y-24718D01*
X48988Y-24703D01*
X48940Y-24716D01*
X48917Y-24732D01*
X48893Y-24767D01*
X48893Y-24844D01*
X48917Y-24885D01*
X48940Y-24907D01*
X48988Y-24932D01*
X44934Y-33874D02*
X44915Y-33893D01*
X44858Y-33912D01*
X44820Y-33912D01*
X44762Y-33893D01*
X44724Y-33855D01*
X44705Y-33817D01*
X44686Y-33740D01*
X44686Y-33683D01*
X44705Y-33607D01*
X44724Y-33569D01*
X44762Y-33531D01*
X44820Y-33512D01*
X44858Y-33512D01*
X44915Y-33531D01*
X44934Y-33550D01*
X45315Y-33912D02*
X45086Y-33912D01*
X45200Y-33912D02*
X45200Y-33512D01*
X45162Y-33569D01*
X45124Y-33607D01*
X45086Y-33626D01*
G54D10*
X46294Y-33512D02*
X46322Y-33512D01*
X46348Y-33531D01*
X46360Y-33550D01*
X46369Y-33588D01*
X46375Y-33664D01*
X46363Y-33760D01*
X46338Y-33836D01*
X46320Y-33874D01*
X46303Y-33893D01*
X46272Y-33912D01*
X46244Y-33912D01*
X46217Y-33893D01*
X46206Y-33874D01*
X46195Y-33836D01*
X46191Y-33760D01*
X46203Y-33664D01*
X46226Y-33588D01*
X46246Y-33550D01*
X46262Y-33531D01*
X46294Y-33512D01*
X46477Y-33874D02*
X46489Y-33893D01*
X46472Y-33912D01*
X46460Y-33893D01*
X46477Y-33874D01*
X46472Y-33912D01*
X46773Y-33912D02*
X46601Y-33912D01*
X46687Y-33912D02*
X46737Y-33512D01*
X46701Y-33569D01*
X46668Y-33607D01*
X46637Y-33626D01*
X47063Y-33645D02*
X47030Y-33912D01*
X46934Y-33645D02*
X46908Y-33855D01*
X46918Y-33893D01*
X46944Y-33912D01*
X46987Y-33912D01*
X47018Y-33893D01*
X47035Y-33874D01*
X47298Y-33702D02*
X47198Y-33702D01*
X47172Y-33912D02*
X47222Y-33512D01*
X47365Y-33512D01*
G54D12*
X50993Y-32374D02*
X50974Y-32393D01*
X50917Y-32412D01*
X50879Y-32412D01*
X50821Y-32393D01*
X50783Y-32355D01*
X50764Y-32317D01*
X50745Y-32240D01*
X50745Y-32183D01*
X50764Y-32107D01*
X50783Y-32069D01*
X50821Y-32031D01*
X50879Y-32012D01*
X50917Y-32012D01*
X50974Y-32031D01*
X50993Y-32050D01*
X51374Y-32412D02*
X51145Y-32412D01*
X51259Y-32412D02*
X51259Y-32012D01*
X51221Y-32069D01*
X51183Y-32107D01*
X51145Y-32126D01*
X51621Y-32012D02*
X51660Y-32012D01*
X51698Y-32031D01*
X51717Y-32050D01*
X51736Y-32088D01*
X51755Y-32164D01*
X51755Y-32260D01*
X51736Y-32336D01*
X51717Y-32374D01*
X51698Y-32393D01*
X51660Y-32412D01*
X51621Y-32412D01*
X51583Y-32393D01*
X51564Y-32374D01*
X51545Y-32336D01*
X51526Y-32260D01*
X51526Y-32164D01*
X51545Y-32088D01*
X51564Y-32050D01*
X51583Y-32031D01*
X51621Y-32012D01*
G54D10*
X52294Y-32012D02*
X52322Y-32012D01*
X52348Y-32031D01*
X52360Y-32050D01*
X52369Y-32088D01*
X52375Y-32164D01*
X52363Y-32260D01*
X52338Y-32336D01*
X52320Y-32374D01*
X52303Y-32393D01*
X52272Y-32412D01*
X52244Y-32412D01*
X52217Y-32393D01*
X52206Y-32374D01*
X52195Y-32336D01*
X52191Y-32260D01*
X52203Y-32164D01*
X52226Y-32088D01*
X52246Y-32050D01*
X52262Y-32031D01*
X52294Y-32012D01*
X52477Y-32374D02*
X52489Y-32393D01*
X52472Y-32412D01*
X52460Y-32393D01*
X52477Y-32374D01*
X52472Y-32412D01*
X52773Y-32412D02*
X52601Y-32412D01*
X52687Y-32412D02*
X52737Y-32012D01*
X52701Y-32069D01*
X52668Y-32107D01*
X52637Y-32126D01*
X53063Y-32145D02*
X53030Y-32412D01*
X52934Y-32145D02*
X52908Y-32355D01*
X52918Y-32393D01*
X52944Y-32412D01*
X52987Y-32412D01*
X53018Y-32393D01*
X53035Y-32374D01*
X53298Y-32202D02*
X53198Y-32202D01*
X53172Y-32412D02*
X53222Y-32012D01*
X53365Y-32012D01*
G54D12*
X37934Y-33874D02*
X37915Y-33893D01*
X37858Y-33912D01*
X37820Y-33912D01*
X37762Y-33893D01*
X37724Y-33855D01*
X37705Y-33817D01*
X37686Y-33740D01*
X37686Y-33683D01*
X37705Y-33607D01*
X37724Y-33569D01*
X37762Y-33531D01*
X37820Y-33512D01*
X37858Y-33512D01*
X37915Y-33531D01*
X37934Y-33550D01*
X38296Y-33512D02*
X38105Y-33512D01*
X38086Y-33702D01*
X38105Y-33683D01*
X38143Y-33664D01*
X38239Y-33664D01*
X38277Y-33683D01*
X38296Y-33702D01*
X38315Y-33740D01*
X38315Y-33836D01*
X38296Y-33874D01*
X38277Y-33893D01*
X38239Y-33912D01*
X38143Y-33912D01*
X38105Y-33893D01*
X38086Y-33874D01*
G54D10*
X39294Y-33512D02*
X39322Y-33512D01*
X39348Y-33531D01*
X39360Y-33550D01*
X39369Y-33588D01*
X39375Y-33664D01*
X39363Y-33760D01*
X39338Y-33836D01*
X39320Y-33874D01*
X39303Y-33893D01*
X39272Y-33912D01*
X39244Y-33912D01*
X39217Y-33893D01*
X39206Y-33874D01*
X39195Y-33836D01*
X39191Y-33760D01*
X39203Y-33664D01*
X39226Y-33588D01*
X39246Y-33550D01*
X39262Y-33531D01*
X39294Y-33512D01*
X39477Y-33874D02*
X39489Y-33893D01*
X39472Y-33912D01*
X39460Y-33893D01*
X39477Y-33874D01*
X39472Y-33912D01*
X39773Y-33912D02*
X39601Y-33912D01*
X39687Y-33912D02*
X39737Y-33512D01*
X39701Y-33569D01*
X39668Y-33607D01*
X39637Y-33626D01*
X40063Y-33645D02*
X40030Y-33912D01*
X39934Y-33645D02*
X39908Y-33855D01*
X39918Y-33893D01*
X39944Y-33912D01*
X39987Y-33912D01*
X40018Y-33893D01*
X40035Y-33874D01*
X40298Y-33702D02*
X40198Y-33702D01*
X40172Y-33912D02*
X40222Y-33512D01*
X40365Y-33512D01*
G54D12*
X34874Y-46066D02*
X34893Y-46085D01*
X34912Y-46142D01*
X34912Y-46180D01*
X34893Y-46238D01*
X34855Y-46276D01*
X34817Y-46295D01*
X34740Y-46314D01*
X34683Y-46314D01*
X34607Y-46295D01*
X34569Y-46276D01*
X34531Y-46238D01*
X34512Y-46180D01*
X34512Y-46142D01*
X34531Y-46085D01*
X34550Y-46066D01*
X34645Y-45723D02*
X34912Y-45723D01*
X34493Y-45819D02*
X34779Y-45914D01*
X34779Y-45666D01*
G54D10*
X34512Y-44706D02*
X34512Y-44678D01*
X34531Y-44652D01*
X34550Y-44640D01*
X34588Y-44631D01*
X34664Y-44625D01*
X34760Y-44637D01*
X34836Y-44662D01*
X34874Y-44680D01*
X34893Y-44697D01*
X34912Y-44728D01*
X34912Y-44756D01*
X34893Y-44783D01*
X34874Y-44794D01*
X34836Y-44805D01*
X34760Y-44809D01*
X34664Y-44797D01*
X34588Y-44774D01*
X34550Y-44754D01*
X34531Y-44738D01*
X34512Y-44706D01*
X34874Y-44523D02*
X34893Y-44511D01*
X34912Y-44528D01*
X34893Y-44540D01*
X34874Y-44523D01*
X34912Y-44528D01*
X34912Y-44227D02*
X34912Y-44399D01*
X34912Y-44313D02*
X34512Y-44263D01*
X34569Y-44299D01*
X34607Y-44332D01*
X34626Y-44363D01*
X34645Y-43937D02*
X34912Y-43970D01*
X34645Y-44066D02*
X34855Y-44092D01*
X34893Y-44082D01*
X34912Y-44056D01*
X34912Y-44013D01*
X34893Y-43982D01*
X34874Y-43965D01*
X34702Y-43702D02*
X34702Y-43802D01*
X34912Y-43828D02*
X34512Y-43778D01*
X34512Y-43635D01*
G54D12*
X43934Y-45374D02*
X43915Y-45393D01*
X43858Y-45412D01*
X43820Y-45412D01*
X43762Y-45393D01*
X43724Y-45355D01*
X43705Y-45317D01*
X43686Y-45240D01*
X43686Y-45183D01*
X43705Y-45107D01*
X43724Y-45069D01*
X43762Y-45031D01*
X43820Y-45012D01*
X43858Y-45012D01*
X43915Y-45031D01*
X43934Y-45050D01*
X44067Y-45012D02*
X44315Y-45012D01*
X44181Y-45164D01*
X44239Y-45164D01*
X44277Y-45183D01*
X44296Y-45202D01*
X44315Y-45240D01*
X44315Y-45336D01*
X44296Y-45374D01*
X44277Y-45393D01*
X44239Y-45412D01*
X44124Y-45412D01*
X44086Y-45393D01*
X44067Y-45374D01*
G54D10*
X43794Y-46512D02*
X43822Y-46512D01*
X43848Y-46531D01*
X43860Y-46550D01*
X43869Y-46588D01*
X43875Y-46664D01*
X43863Y-46760D01*
X43838Y-46836D01*
X43820Y-46874D01*
X43803Y-46893D01*
X43772Y-46912D01*
X43744Y-46912D01*
X43717Y-46893D01*
X43706Y-46874D01*
X43695Y-46836D01*
X43691Y-46760D01*
X43703Y-46664D01*
X43726Y-46588D01*
X43746Y-46550D01*
X43762Y-46531D01*
X43794Y-46512D01*
X43977Y-46874D02*
X43989Y-46893D01*
X43972Y-46912D01*
X43960Y-46893D01*
X43977Y-46874D01*
X43972Y-46912D01*
X44273Y-46912D02*
X44101Y-46912D01*
X44187Y-46912D02*
X44237Y-46512D01*
X44201Y-46569D01*
X44168Y-46607D01*
X44137Y-46626D01*
X44563Y-46645D02*
X44530Y-46912D01*
X44434Y-46645D02*
X44408Y-46855D01*
X44418Y-46893D01*
X44444Y-46912D01*
X44487Y-46912D01*
X44518Y-46893D01*
X44535Y-46874D01*
X44798Y-46702D02*
X44698Y-46702D01*
X44672Y-46912D02*
X44722Y-46512D01*
X44865Y-46512D01*
G54D13*
X53179Y-43155D02*
X53155Y-43179D01*
X53084Y-43202D01*
X53036Y-43202D01*
X52964Y-43179D01*
X52917Y-43131D01*
X52893Y-43083D01*
X52869Y-42988D01*
X52869Y-42917D01*
X52893Y-42821D01*
X52917Y-42774D01*
X52964Y-42726D01*
X53036Y-42702D01*
X53084Y-42702D01*
X53155Y-42726D01*
X53179Y-42750D01*
X53655Y-43202D02*
X53369Y-43202D01*
X53512Y-43202D02*
X53512Y-42702D01*
X53464Y-42774D01*
X53417Y-42821D01*
X53369Y-42845D01*
X53821Y-42702D02*
X54131Y-42702D01*
X53964Y-42893D01*
X54036Y-42893D01*
X54083Y-42917D01*
X54107Y-42940D01*
X54131Y-42988D01*
X54131Y-43107D01*
X54107Y-43155D01*
X54083Y-43179D01*
X54036Y-43202D01*
X53893Y-43202D01*
X53845Y-43179D01*
X53821Y-43155D01*
G54D12*
X52862Y-43952D02*
X52633Y-43952D01*
X52747Y-43952D02*
X52810Y-43452D01*
X52763Y-43524D01*
X52719Y-43571D01*
X52678Y-43595D01*
X53172Y-43452D02*
X53211Y-43452D01*
X53246Y-43476D01*
X53262Y-43500D01*
X53275Y-43548D01*
X53282Y-43643D01*
X53267Y-43762D01*
X53236Y-43857D01*
X53211Y-43905D01*
X53189Y-43929D01*
X53148Y-43952D01*
X53109Y-43952D01*
X53074Y-43929D01*
X53058Y-43905D01*
X53045Y-43857D01*
X53038Y-43762D01*
X53053Y-43643D01*
X53084Y-43548D01*
X53109Y-43500D01*
X53131Y-43476D01*
X53172Y-43452D01*
X53553Y-43452D02*
X53592Y-43452D01*
X53627Y-43476D01*
X53643Y-43500D01*
X53656Y-43548D01*
X53663Y-43643D01*
X53648Y-43762D01*
X53617Y-43857D01*
X53592Y-43905D01*
X53570Y-43929D01*
X53529Y-43952D01*
X53490Y-43952D01*
X53455Y-43929D01*
X53439Y-43905D01*
X53426Y-43857D01*
X53419Y-43762D01*
X53434Y-43643D01*
X53465Y-43548D01*
X53490Y-43500D01*
X53512Y-43476D01*
X53553Y-43452D01*
X54009Y-43619D02*
X53967Y-43952D01*
X53837Y-43619D02*
X53804Y-43881D01*
X53817Y-43929D01*
X53852Y-43952D01*
X53910Y-43952D01*
X53951Y-43929D01*
X53973Y-43905D01*
X54324Y-43690D02*
X54190Y-43690D01*
X54157Y-43952D02*
X54220Y-43452D01*
X54411Y-43452D01*
G54D16*
X52186Y-45007D02*
X52415Y-45007D01*
X52301Y-45121D02*
X52301Y-44893D01*
G54D13*
X52554Y-30280D02*
X52530Y-30304D01*
X52459Y-30327D01*
X52411Y-30327D01*
X52339Y-30304D01*
X52292Y-30256D01*
X52268Y-30208D01*
X52244Y-30113D01*
X52244Y-30042D01*
X52268Y-29946D01*
X52292Y-29899D01*
X52339Y-29851D01*
X52411Y-29827D01*
X52459Y-29827D01*
X52530Y-29851D01*
X52554Y-29875D01*
X53030Y-30327D02*
X52744Y-30327D01*
X52887Y-30327D02*
X52887Y-29827D01*
X52839Y-29899D01*
X52792Y-29946D01*
X52744Y-29970D01*
X53220Y-29875D02*
X53244Y-29851D01*
X53292Y-29827D01*
X53411Y-29827D01*
X53458Y-29851D01*
X53482Y-29875D01*
X53506Y-29923D01*
X53506Y-29970D01*
X53482Y-30042D01*
X53196Y-30327D01*
X53506Y-30327D01*
G54D12*
X52428Y-31077D02*
X52199Y-31077D01*
X52313Y-31077D02*
X52376Y-30577D01*
X52329Y-30649D01*
X52285Y-30696D01*
X52244Y-30720D01*
X52738Y-30577D02*
X52777Y-30577D01*
X52812Y-30601D01*
X52828Y-30625D01*
X52841Y-30673D01*
X52848Y-30768D01*
X52833Y-30887D01*
X52802Y-30982D01*
X52777Y-31030D01*
X52755Y-31054D01*
X52714Y-31077D01*
X52675Y-31077D01*
X52640Y-31054D01*
X52624Y-31030D01*
X52611Y-30982D01*
X52604Y-30887D01*
X52619Y-30768D01*
X52650Y-30673D01*
X52675Y-30625D01*
X52697Y-30601D01*
X52738Y-30577D01*
X53194Y-30744D02*
X53152Y-31077D01*
X53022Y-30744D02*
X52989Y-31006D01*
X53002Y-31054D01*
X53037Y-31077D01*
X53095Y-31077D01*
X53136Y-31054D01*
X53158Y-31030D01*
X53509Y-30815D02*
X53375Y-30815D01*
X53342Y-31077D02*
X53405Y-30577D01*
X53596Y-30577D01*
G54D16*
X51007Y-31814D02*
X51007Y-31585D01*
X51121Y-31699D02*
X50893Y-31699D01*
G54D13*
X50179Y-43155D02*
X50155Y-43179D01*
X50084Y-43202D01*
X50036Y-43202D01*
X49964Y-43179D01*
X49917Y-43131D01*
X49893Y-43083D01*
X49869Y-42988D01*
X49869Y-42917D01*
X49893Y-42821D01*
X49917Y-42774D01*
X49964Y-42726D01*
X50036Y-42702D01*
X50084Y-42702D01*
X50155Y-42726D01*
X50179Y-42750D01*
X50655Y-43202D02*
X50369Y-43202D01*
X50512Y-43202D02*
X50512Y-42702D01*
X50464Y-42774D01*
X50417Y-42821D01*
X50369Y-42845D01*
X51131Y-43202D02*
X50845Y-43202D01*
X50988Y-43202D02*
X50988Y-42702D01*
X50940Y-42774D01*
X50893Y-42821D01*
X50845Y-42845D01*
G54D12*
X50057Y-43619D02*
X50015Y-43952D01*
X49984Y-43429D02*
X49845Y-43786D01*
X50093Y-43786D01*
X50249Y-43452D02*
X50516Y-43452D01*
X50281Y-43952D01*
X50819Y-43619D02*
X50777Y-43952D01*
X50647Y-43619D02*
X50614Y-43881D01*
X50627Y-43929D01*
X50662Y-43952D01*
X50720Y-43952D01*
X50761Y-43929D01*
X50783Y-43905D01*
X51134Y-43690D02*
X51000Y-43690D01*
X50967Y-43952D02*
X51030Y-43452D01*
X51221Y-43452D01*
G54D16*
X49186Y-45007D02*
X49415Y-45007D01*
X49301Y-45121D02*
X49301Y-44893D01*
G54D12*
X73912Y-38507D02*
X73721Y-38641D01*
X73912Y-38736D02*
X73512Y-38736D01*
X73512Y-38583D01*
X73531Y-38545D01*
X73550Y-38526D01*
X73588Y-38507D01*
X73645Y-38507D01*
X73683Y-38526D01*
X73702Y-38545D01*
X73721Y-38583D01*
X73721Y-38736D01*
X73912Y-38126D02*
X73912Y-38355D01*
X73912Y-38241D02*
X73512Y-38241D01*
X73569Y-38279D01*
X73607Y-38317D01*
X73626Y-38355D01*
X73512Y-37993D02*
X73512Y-37726D01*
X73912Y-37898D01*
G54D10*
X73912Y-36942D02*
X73912Y-37114D01*
X73912Y-37028D02*
X73512Y-36978D01*
X73569Y-37014D01*
X73607Y-37047D01*
X73626Y-37078D01*
X73512Y-36706D02*
X73512Y-36678D01*
X73531Y-36652D01*
X73550Y-36640D01*
X73588Y-36631D01*
X73664Y-36625D01*
X73760Y-36637D01*
X73836Y-36662D01*
X73874Y-36680D01*
X73893Y-36697D01*
X73912Y-36728D01*
X73912Y-36756D01*
X73893Y-36783D01*
X73874Y-36794D01*
X73836Y-36805D01*
X73760Y-36809D01*
X73664Y-36797D01*
X73588Y-36774D01*
X73550Y-36754D01*
X73531Y-36738D01*
X73512Y-36706D01*
X73912Y-36528D02*
X73512Y-36478D01*
X73760Y-36480D02*
X73912Y-36413D01*
X73645Y-36380D02*
X73798Y-36514D01*
G54D13*
X54202Y-39881D02*
X54607Y-39881D01*
X54655Y-39857D01*
X54679Y-39833D01*
X54702Y-39786D01*
X54702Y-39690D01*
X54679Y-39643D01*
X54655Y-39619D01*
X54607Y-39595D01*
X54202Y-39595D01*
X54202Y-39405D02*
X54202Y-39095D01*
X54393Y-39262D01*
X54393Y-39190D01*
X54417Y-39143D01*
X54440Y-39119D01*
X54488Y-39095D01*
X54607Y-39095D01*
X54655Y-39119D01*
X54679Y-39143D01*
X54702Y-39190D01*
X54702Y-39333D01*
X54679Y-39381D01*
X54655Y-39405D01*
G54D12*
X54702Y-36135D02*
X54702Y-36326D01*
X54202Y-36263D01*
X54702Y-36002D02*
X54202Y-35939D01*
X54560Y-35850D01*
X54202Y-35672D01*
X54702Y-35735D01*
X54202Y-35520D02*
X54202Y-35272D01*
X54393Y-35430D01*
X54393Y-35372D01*
X54417Y-35337D01*
X54440Y-35321D01*
X54488Y-35308D01*
X54607Y-35323D01*
X54655Y-35348D01*
X54679Y-35370D01*
X54702Y-35411D01*
X54702Y-35526D01*
X54679Y-35561D01*
X54655Y-35577D01*
X54702Y-35145D02*
X54702Y-35069D01*
X54679Y-35027D01*
X54655Y-35005D01*
X54583Y-34958D01*
X54488Y-34927D01*
X54298Y-34903D01*
X54250Y-34916D01*
X54226Y-34932D01*
X54202Y-34967D01*
X54202Y-35044D01*
X54226Y-35085D01*
X54250Y-35107D01*
X54298Y-35132D01*
X54417Y-35147D01*
X54464Y-35134D01*
X54488Y-35118D01*
X54512Y-35083D01*
X54512Y-35006D01*
X54488Y-34965D01*
X54464Y-34943D01*
X54417Y-34918D01*
X54369Y-34569D02*
X54702Y-34611D01*
X54179Y-34642D02*
X54536Y-34781D01*
X54536Y-34533D01*
X54202Y-34263D02*
X54202Y-34224D01*
X54226Y-34189D01*
X54250Y-34173D01*
X54298Y-34160D01*
X54393Y-34153D01*
X54512Y-34168D01*
X54607Y-34199D01*
X54655Y-34224D01*
X54679Y-34246D01*
X54702Y-34287D01*
X54702Y-34326D01*
X54679Y-34361D01*
X54655Y-34377D01*
X54607Y-34390D01*
X54512Y-34397D01*
X54393Y-34382D01*
X54298Y-34351D01*
X54250Y-34326D01*
X54226Y-34304D01*
X54202Y-34263D01*
X27702Y-35133D02*
X27702Y-35267D01*
X27912Y-35267D02*
X27512Y-35267D01*
X27512Y-35076D01*
X27912Y-34714D02*
X27912Y-34943D01*
X27912Y-34829D02*
X27512Y-34829D01*
X27569Y-34867D01*
X27607Y-34905D01*
X27626Y-34943D01*
G54D10*
X27912Y-33396D02*
X27912Y-33568D01*
X27912Y-33482D02*
X27512Y-33432D01*
X27569Y-33468D01*
X27607Y-33501D01*
X27626Y-33532D01*
X27874Y-33263D02*
X27893Y-33251D01*
X27912Y-33268D01*
X27893Y-33280D01*
X27874Y-33263D01*
X27912Y-33268D01*
X27912Y-32967D02*
X27912Y-33139D01*
X27912Y-33053D02*
X27512Y-33003D01*
X27569Y-33039D01*
X27607Y-33072D01*
X27626Y-33103D01*
X27798Y-32839D02*
X27798Y-32696D01*
X27912Y-32881D02*
X27512Y-32731D01*
X27912Y-32681D01*
G54D12*
X28934Y-33874D02*
X28915Y-33893D01*
X28858Y-33912D01*
X28820Y-33912D01*
X28762Y-33893D01*
X28724Y-33855D01*
X28705Y-33817D01*
X28686Y-33740D01*
X28686Y-33683D01*
X28705Y-33607D01*
X28724Y-33569D01*
X28762Y-33531D01*
X28820Y-33512D01*
X28858Y-33512D01*
X28915Y-33531D01*
X28934Y-33550D01*
X29086Y-33550D02*
X29105Y-33531D01*
X29143Y-33512D01*
X29239Y-33512D01*
X29277Y-33531D01*
X29296Y-33550D01*
X29315Y-33588D01*
X29315Y-33626D01*
X29296Y-33683D01*
X29067Y-33912D01*
X29315Y-33912D01*
G54D10*
X30294Y-33512D02*
X30322Y-33512D01*
X30348Y-33531D01*
X30360Y-33550D01*
X30369Y-33588D01*
X30375Y-33664D01*
X30363Y-33760D01*
X30338Y-33836D01*
X30320Y-33874D01*
X30303Y-33893D01*
X30272Y-33912D01*
X30244Y-33912D01*
X30217Y-33893D01*
X30206Y-33874D01*
X30195Y-33836D01*
X30191Y-33760D01*
X30203Y-33664D01*
X30226Y-33588D01*
X30246Y-33550D01*
X30262Y-33531D01*
X30294Y-33512D01*
X30477Y-33874D02*
X30489Y-33893D01*
X30472Y-33912D01*
X30460Y-33893D01*
X30477Y-33874D01*
X30472Y-33912D01*
X30773Y-33912D02*
X30601Y-33912D01*
X30687Y-33912D02*
X30737Y-33512D01*
X30701Y-33569D01*
X30668Y-33607D01*
X30637Y-33626D01*
X31063Y-33645D02*
X31030Y-33912D01*
X30934Y-33645D02*
X30908Y-33855D01*
X30918Y-33893D01*
X30944Y-33912D01*
X30987Y-33912D01*
X31018Y-33893D01*
X31035Y-33874D01*
X31298Y-33702D02*
X31198Y-33702D01*
X31172Y-33912D02*
X31222Y-33512D01*
X31365Y-33512D01*
G54D12*
X33934Y-29874D02*
X33915Y-29893D01*
X33858Y-29912D01*
X33820Y-29912D01*
X33762Y-29893D01*
X33724Y-29855D01*
X33705Y-29817D01*
X33686Y-29740D01*
X33686Y-29683D01*
X33705Y-29607D01*
X33724Y-29569D01*
X33762Y-29531D01*
X33820Y-29512D01*
X33858Y-29512D01*
X33915Y-29531D01*
X33934Y-29550D01*
X34277Y-29512D02*
X34200Y-29512D01*
X34162Y-29531D01*
X34143Y-29550D01*
X34105Y-29607D01*
X34086Y-29683D01*
X34086Y-29836D01*
X34105Y-29874D01*
X34124Y-29893D01*
X34162Y-29912D01*
X34239Y-29912D01*
X34277Y-29893D01*
X34296Y-29874D01*
X34315Y-29836D01*
X34315Y-29740D01*
X34296Y-29702D01*
X34277Y-29683D01*
X34239Y-29664D01*
X34162Y-29664D01*
X34124Y-29683D01*
X34105Y-29702D01*
X34086Y-29740D01*
G54D10*
X35294Y-29512D02*
X35322Y-29512D01*
X35348Y-29531D01*
X35360Y-29550D01*
X35369Y-29588D01*
X35375Y-29664D01*
X35363Y-29760D01*
X35338Y-29836D01*
X35320Y-29874D01*
X35303Y-29893D01*
X35272Y-29912D01*
X35244Y-29912D01*
X35217Y-29893D01*
X35206Y-29874D01*
X35195Y-29836D01*
X35191Y-29760D01*
X35203Y-29664D01*
X35226Y-29588D01*
X35246Y-29550D01*
X35262Y-29531D01*
X35294Y-29512D01*
X35477Y-29874D02*
X35489Y-29893D01*
X35472Y-29912D01*
X35460Y-29893D01*
X35477Y-29874D01*
X35472Y-29912D01*
X35773Y-29912D02*
X35601Y-29912D01*
X35687Y-29912D02*
X35737Y-29512D01*
X35701Y-29569D01*
X35668Y-29607D01*
X35637Y-29626D01*
X36063Y-29645D02*
X36030Y-29912D01*
X35934Y-29645D02*
X35908Y-29855D01*
X35918Y-29893D01*
X35944Y-29912D01*
X35987Y-29912D01*
X36018Y-29893D01*
X36035Y-29874D01*
X36298Y-29702D02*
X36198Y-29702D01*
X36172Y-29912D02*
X36222Y-29512D01*
X36365Y-29512D01*
G54D12*
X33934Y-27874D02*
X33915Y-27893D01*
X33858Y-27912D01*
X33820Y-27912D01*
X33762Y-27893D01*
X33724Y-27855D01*
X33705Y-27817D01*
X33686Y-27740D01*
X33686Y-27683D01*
X33705Y-27607D01*
X33724Y-27569D01*
X33762Y-27531D01*
X33820Y-27512D01*
X33858Y-27512D01*
X33915Y-27531D01*
X33934Y-27550D01*
X34067Y-27512D02*
X34334Y-27512D01*
X34162Y-27912D01*
G54D10*
X35294Y-27512D02*
X35322Y-27512D01*
X35348Y-27531D01*
X35360Y-27550D01*
X35369Y-27588D01*
X35375Y-27664D01*
X35363Y-27760D01*
X35338Y-27836D01*
X35320Y-27874D01*
X35303Y-27893D01*
X35272Y-27912D01*
X35244Y-27912D01*
X35217Y-27893D01*
X35206Y-27874D01*
X35195Y-27836D01*
X35191Y-27760D01*
X35203Y-27664D01*
X35226Y-27588D01*
X35246Y-27550D01*
X35262Y-27531D01*
X35294Y-27512D01*
X35477Y-27874D02*
X35489Y-27893D01*
X35472Y-27912D01*
X35460Y-27893D01*
X35477Y-27874D01*
X35472Y-27912D01*
X35773Y-27912D02*
X35601Y-27912D01*
X35687Y-27912D02*
X35737Y-27512D01*
X35701Y-27569D01*
X35668Y-27607D01*
X35637Y-27626D01*
X36063Y-27645D02*
X36030Y-27912D01*
X35934Y-27645D02*
X35908Y-27855D01*
X35918Y-27893D01*
X35944Y-27912D01*
X35987Y-27912D01*
X36018Y-27893D01*
X36035Y-27874D01*
X36298Y-27702D02*
X36198Y-27702D01*
X36172Y-27912D02*
X36222Y-27512D01*
X36365Y-27512D01*
G54D12*
X33934Y-31874D02*
X33915Y-31893D01*
X33858Y-31912D01*
X33820Y-31912D01*
X33762Y-31893D01*
X33724Y-31855D01*
X33705Y-31817D01*
X33686Y-31740D01*
X33686Y-31683D01*
X33705Y-31607D01*
X33724Y-31569D01*
X33762Y-31531D01*
X33820Y-31512D01*
X33858Y-31512D01*
X33915Y-31531D01*
X33934Y-31550D01*
X34162Y-31683D02*
X34124Y-31664D01*
X34105Y-31645D01*
X34086Y-31607D01*
X34086Y-31588D01*
X34105Y-31550D01*
X34124Y-31531D01*
X34162Y-31512D01*
X34239Y-31512D01*
X34277Y-31531D01*
X34296Y-31550D01*
X34315Y-31588D01*
X34315Y-31607D01*
X34296Y-31645D01*
X34277Y-31664D01*
X34239Y-31683D01*
X34162Y-31683D01*
X34124Y-31702D01*
X34105Y-31721D01*
X34086Y-31760D01*
X34086Y-31836D01*
X34105Y-31874D01*
X34124Y-31893D01*
X34162Y-31912D01*
X34239Y-31912D01*
X34277Y-31893D01*
X34296Y-31874D01*
X34315Y-31836D01*
X34315Y-31760D01*
X34296Y-31721D01*
X34277Y-31702D01*
X34239Y-31683D01*
G54D10*
X35294Y-31512D02*
X35322Y-31512D01*
X35348Y-31531D01*
X35360Y-31550D01*
X35369Y-31588D01*
X35375Y-31664D01*
X35363Y-31760D01*
X35338Y-31836D01*
X35320Y-31874D01*
X35303Y-31893D01*
X35272Y-31912D01*
X35244Y-31912D01*
X35217Y-31893D01*
X35206Y-31874D01*
X35195Y-31836D01*
X35191Y-31760D01*
X35203Y-31664D01*
X35226Y-31588D01*
X35246Y-31550D01*
X35262Y-31531D01*
X35294Y-31512D01*
X35477Y-31874D02*
X35489Y-31893D01*
X35472Y-31912D01*
X35460Y-31893D01*
X35477Y-31874D01*
X35472Y-31912D01*
X35773Y-31912D02*
X35601Y-31912D01*
X35687Y-31912D02*
X35737Y-31512D01*
X35701Y-31569D01*
X35668Y-31607D01*
X35637Y-31626D01*
X36063Y-31645D02*
X36030Y-31912D01*
X35934Y-31645D02*
X35908Y-31855D01*
X35918Y-31893D01*
X35944Y-31912D01*
X35987Y-31912D01*
X36018Y-31893D01*
X36035Y-31874D01*
X36298Y-31702D02*
X36198Y-31702D01*
X36172Y-31912D02*
X36222Y-31512D01*
X36365Y-31512D01*
G54D12*
X33934Y-25874D02*
X33915Y-25893D01*
X33858Y-25912D01*
X33820Y-25912D01*
X33762Y-25893D01*
X33724Y-25855D01*
X33705Y-25817D01*
X33686Y-25740D01*
X33686Y-25683D01*
X33705Y-25607D01*
X33724Y-25569D01*
X33762Y-25531D01*
X33820Y-25512D01*
X33858Y-25512D01*
X33915Y-25531D01*
X33934Y-25550D01*
X34124Y-25912D02*
X34200Y-25912D01*
X34239Y-25893D01*
X34258Y-25874D01*
X34296Y-25817D01*
X34315Y-25740D01*
X34315Y-25588D01*
X34296Y-25550D01*
X34277Y-25531D01*
X34239Y-25512D01*
X34162Y-25512D01*
X34124Y-25531D01*
X34105Y-25550D01*
X34086Y-25588D01*
X34086Y-25683D01*
X34105Y-25721D01*
X34124Y-25740D01*
X34162Y-25760D01*
X34239Y-25760D01*
X34277Y-25740D01*
X34296Y-25721D01*
X34315Y-25683D01*
G54D10*
X35294Y-25512D02*
X35322Y-25512D01*
X35348Y-25531D01*
X35360Y-25550D01*
X35369Y-25588D01*
X35375Y-25664D01*
X35363Y-25760D01*
X35338Y-25836D01*
X35320Y-25874D01*
X35303Y-25893D01*
X35272Y-25912D01*
X35244Y-25912D01*
X35217Y-25893D01*
X35206Y-25874D01*
X35195Y-25836D01*
X35191Y-25760D01*
X35203Y-25664D01*
X35226Y-25588D01*
X35246Y-25550D01*
X35262Y-25531D01*
X35294Y-25512D01*
X35477Y-25874D02*
X35489Y-25893D01*
X35472Y-25912D01*
X35460Y-25893D01*
X35477Y-25874D01*
X35472Y-25912D01*
X35773Y-25912D02*
X35601Y-25912D01*
X35687Y-25912D02*
X35737Y-25512D01*
X35701Y-25569D01*
X35668Y-25607D01*
X35637Y-25626D01*
X36063Y-25645D02*
X36030Y-25912D01*
X35934Y-25645D02*
X35908Y-25855D01*
X35918Y-25893D01*
X35944Y-25912D01*
X35987Y-25912D01*
X36018Y-25893D01*
X36035Y-25874D01*
X36298Y-25702D02*
X36198Y-25702D01*
X36172Y-25912D02*
X36222Y-25512D01*
X36365Y-25512D01*
G54D12*
X27743Y-48162D02*
X27609Y-47971D01*
X27514Y-48162D02*
X27514Y-47762D01*
X27667Y-47762D01*
X27705Y-47781D01*
X27724Y-47800D01*
X27743Y-47838D01*
X27743Y-47895D01*
X27724Y-47933D01*
X27705Y-47952D01*
X27667Y-47971D01*
X27514Y-47971D01*
X28124Y-48162D02*
X27895Y-48162D01*
X28009Y-48162D02*
X28009Y-47762D01*
X27971Y-47819D01*
X27933Y-47857D01*
X27895Y-47876D01*
X28352Y-47933D02*
X28314Y-47914D01*
X28295Y-47895D01*
X28276Y-47857D01*
X28276Y-47838D01*
X28295Y-47800D01*
X28314Y-47781D01*
X28352Y-47762D01*
X28429Y-47762D01*
X28467Y-47781D01*
X28486Y-47800D01*
X28505Y-47838D01*
X28505Y-47857D01*
X28486Y-47895D01*
X28467Y-47914D01*
X28429Y-47933D01*
X28352Y-47933D01*
X28314Y-47952D01*
X28295Y-47971D01*
X28276Y-48010D01*
X28276Y-48086D01*
X28295Y-48124D01*
X28314Y-48143D01*
X28352Y-48162D01*
X28429Y-48162D01*
X28467Y-48143D01*
X28486Y-48124D01*
X28505Y-48086D01*
X28505Y-48010D01*
X28486Y-47971D01*
X28467Y-47952D01*
X28429Y-47933D01*
G54D10*
X32661Y-48162D02*
X32489Y-48162D01*
X32575Y-48162D02*
X32625Y-47762D01*
X32589Y-47819D01*
X32556Y-47857D01*
X32525Y-47876D01*
X32811Y-47762D02*
X32997Y-47762D01*
X32878Y-47914D01*
X32920Y-47914D01*
X32946Y-47933D01*
X32958Y-47952D01*
X32968Y-47990D01*
X32956Y-48086D01*
X32937Y-48124D01*
X32920Y-48143D01*
X32889Y-48162D01*
X32804Y-48162D01*
X32777Y-48143D01*
X32766Y-48124D01*
X33183Y-47762D02*
X33211Y-47762D01*
X33237Y-47781D01*
X33249Y-47800D01*
X33258Y-47838D01*
X33264Y-47914D01*
X33252Y-48010D01*
X33227Y-48086D01*
X33209Y-48124D01*
X33192Y-48143D01*
X33161Y-48162D01*
X33133Y-48162D01*
X33106Y-48143D01*
X33095Y-48124D01*
X33084Y-48086D01*
X33080Y-48010D01*
X33092Y-47914D01*
X33115Y-47838D01*
X33135Y-47800D01*
X33151Y-47781D01*
X33183Y-47762D01*
G54D12*
X27743Y-45162D02*
X27609Y-44971D01*
X27514Y-45162D02*
X27514Y-44762D01*
X27667Y-44762D01*
X27705Y-44781D01*
X27724Y-44800D01*
X27743Y-44838D01*
X27743Y-44895D01*
X27724Y-44933D01*
X27705Y-44952D01*
X27667Y-44971D01*
X27514Y-44971D01*
X28124Y-45162D02*
X27895Y-45162D01*
X28009Y-45162D02*
X28009Y-44762D01*
X27971Y-44819D01*
X27933Y-44857D01*
X27895Y-44876D01*
X28314Y-45162D02*
X28390Y-45162D01*
X28429Y-45143D01*
X28448Y-45124D01*
X28486Y-45067D01*
X28505Y-44990D01*
X28505Y-44838D01*
X28486Y-44800D01*
X28467Y-44781D01*
X28429Y-44762D01*
X28352Y-44762D01*
X28314Y-44781D01*
X28295Y-44800D01*
X28276Y-44838D01*
X28276Y-44933D01*
X28295Y-44971D01*
X28314Y-44990D01*
X28352Y-45010D01*
X28429Y-45010D01*
X28467Y-44990D01*
X28486Y-44971D01*
X28505Y-44933D01*
G54D10*
X32661Y-45162D02*
X32489Y-45162D01*
X32575Y-45162D02*
X32625Y-44762D01*
X32589Y-44819D01*
X32556Y-44857D01*
X32525Y-44876D01*
X32811Y-44762D02*
X32997Y-44762D01*
X32878Y-44914D01*
X32920Y-44914D01*
X32946Y-44933D01*
X32958Y-44952D01*
X32968Y-44990D01*
X32956Y-45086D01*
X32937Y-45124D01*
X32920Y-45143D01*
X32889Y-45162D01*
X32804Y-45162D01*
X32777Y-45143D01*
X32766Y-45124D01*
X33183Y-44762D02*
X33211Y-44762D01*
X33237Y-44781D01*
X33249Y-44800D01*
X33258Y-44838D01*
X33264Y-44914D01*
X33252Y-45010D01*
X33227Y-45086D01*
X33209Y-45124D01*
X33192Y-45143D01*
X33161Y-45162D01*
X33133Y-45162D01*
X33106Y-45143D01*
X33095Y-45124D01*
X33084Y-45086D01*
X33080Y-45010D01*
X33092Y-44914D01*
X33115Y-44838D01*
X33135Y-44800D01*
X33151Y-44781D01*
X33183Y-44762D01*
G54D12*
X27743Y-42162D02*
X27609Y-41971D01*
X27514Y-42162D02*
X27514Y-41762D01*
X27667Y-41762D01*
X27705Y-41781D01*
X27724Y-41800D01*
X27743Y-41838D01*
X27743Y-41895D01*
X27724Y-41933D01*
X27705Y-41952D01*
X27667Y-41971D01*
X27514Y-41971D01*
X27895Y-41800D02*
X27914Y-41781D01*
X27952Y-41762D01*
X28048Y-41762D01*
X28086Y-41781D01*
X28105Y-41800D01*
X28124Y-41838D01*
X28124Y-41876D01*
X28105Y-41933D01*
X27876Y-42162D01*
X28124Y-42162D01*
X28371Y-41762D02*
X28410Y-41762D01*
X28448Y-41781D01*
X28467Y-41800D01*
X28486Y-41838D01*
X28505Y-41914D01*
X28505Y-42010D01*
X28486Y-42086D01*
X28467Y-42124D01*
X28448Y-42143D01*
X28410Y-42162D01*
X28371Y-42162D01*
X28333Y-42143D01*
X28314Y-42124D01*
X28295Y-42086D01*
X28276Y-42010D01*
X28276Y-41914D01*
X28295Y-41838D01*
X28314Y-41800D01*
X28333Y-41781D01*
X28371Y-41762D01*
G54D10*
X32661Y-42162D02*
X32489Y-42162D01*
X32575Y-42162D02*
X32625Y-41762D01*
X32589Y-41819D01*
X32556Y-41857D01*
X32525Y-41876D01*
X32811Y-41762D02*
X32997Y-41762D01*
X32878Y-41914D01*
X32920Y-41914D01*
X32946Y-41933D01*
X32958Y-41952D01*
X32968Y-41990D01*
X32956Y-42086D01*
X32937Y-42124D01*
X32920Y-42143D01*
X32889Y-42162D01*
X32804Y-42162D01*
X32777Y-42143D01*
X32766Y-42124D01*
X33183Y-41762D02*
X33211Y-41762D01*
X33237Y-41781D01*
X33249Y-41800D01*
X33258Y-41838D01*
X33264Y-41914D01*
X33252Y-42010D01*
X33227Y-42086D01*
X33209Y-42124D01*
X33192Y-42143D01*
X33161Y-42162D01*
X33133Y-42162D01*
X33106Y-42143D01*
X33095Y-42124D01*
X33084Y-42086D01*
X33080Y-42010D01*
X33092Y-41914D01*
X33115Y-41838D01*
X33135Y-41800D01*
X33151Y-41781D01*
X33183Y-41762D01*
G54D12*
X86162Y-51295D02*
X85762Y-51295D01*
X85762Y-51200D01*
X85781Y-51142D01*
X85819Y-51104D01*
X85857Y-51085D01*
X85933Y-51066D01*
X85990Y-51066D01*
X86067Y-51085D01*
X86105Y-51104D01*
X86143Y-51142D01*
X86162Y-51200D01*
X86162Y-51295D01*
X86162Y-50685D02*
X86162Y-50914D01*
X86162Y-50800D02*
X85762Y-50800D01*
X85819Y-50838D01*
X85857Y-50876D01*
X85876Y-50914D01*
G54D10*
X86143Y-50248D02*
X86162Y-50207D01*
X86162Y-50136D01*
X86143Y-50105D01*
X86124Y-50088D01*
X86086Y-50069D01*
X86048Y-50064D01*
X86010Y-50074D01*
X85990Y-50086D01*
X85971Y-50112D01*
X85952Y-50167D01*
X85933Y-50193D01*
X85914Y-50205D01*
X85876Y-50214D01*
X85838Y-50210D01*
X85800Y-50191D01*
X85781Y-50174D01*
X85762Y-50143D01*
X85762Y-50071D01*
X85781Y-50031D01*
X86162Y-49950D02*
X85762Y-49900D01*
X85762Y-49828D01*
X85781Y-49788D01*
X85819Y-49764D01*
X85857Y-49754D01*
X85933Y-49750D01*
X85990Y-49757D01*
X86067Y-49780D01*
X86105Y-49800D01*
X86143Y-49833D01*
X86162Y-49878D01*
X86162Y-49950D01*
G54D13*
X25827Y-25916D02*
X26185Y-25916D01*
X26256Y-25940D01*
X26304Y-25988D01*
X26327Y-26059D01*
X26327Y-26107D01*
X26327Y-25678D02*
X25827Y-25678D01*
X25827Y-25487D01*
X25851Y-25440D01*
X25875Y-25416D01*
X25923Y-25392D01*
X25994Y-25392D01*
X26042Y-25416D01*
X26065Y-25440D01*
X26089Y-25487D01*
X26089Y-25678D01*
X25827Y-25226D02*
X25827Y-24916D01*
X26018Y-25083D01*
X26018Y-25011D01*
X26042Y-24964D01*
X26065Y-24940D01*
X26113Y-24916D01*
X26232Y-24916D01*
X26280Y-24940D01*
X26304Y-24964D01*
X26327Y-25011D01*
X26327Y-25154D01*
X26304Y-25202D01*
X26280Y-25226D01*
G54D12*
X28202Y-26776D02*
X27702Y-26713D01*
X27702Y-26618D01*
X27726Y-26563D01*
X27774Y-26531D01*
X27821Y-26518D01*
X27917Y-26511D01*
X27988Y-26520D01*
X28083Y-26551D01*
X28131Y-26576D01*
X28179Y-26620D01*
X28202Y-26681D01*
X28202Y-26776D01*
X27702Y-26370D02*
X27702Y-26141D01*
X28202Y-26319D02*
X27702Y-26256D01*
X28202Y-25842D02*
X27964Y-25946D01*
X28202Y-26071D02*
X27702Y-26008D01*
X27702Y-25855D01*
X27726Y-25820D01*
X27750Y-25804D01*
X27798Y-25791D01*
X27869Y-25800D01*
X27917Y-25825D01*
X27940Y-25847D01*
X27964Y-25888D01*
X27964Y-26041D01*
X27679Y-25320D02*
X28321Y-25743D01*
X28202Y-25252D02*
X27702Y-25189D01*
X27702Y-25094D01*
X27726Y-25039D01*
X27774Y-25007D01*
X27821Y-24994D01*
X27917Y-24987D01*
X27988Y-24996D01*
X28083Y-25027D01*
X28131Y-25052D01*
X28179Y-25096D01*
X28202Y-25157D01*
X28202Y-25252D01*
X28179Y-24868D02*
X28202Y-24814D01*
X28202Y-24718D01*
X28179Y-24677D01*
X28155Y-24655D01*
X28107Y-24630D01*
X28060Y-24624D01*
X28012Y-24637D01*
X27988Y-24653D01*
X27964Y-24688D01*
X27940Y-24762D01*
X27917Y-24797D01*
X27893Y-24813D01*
X27845Y-24826D01*
X27798Y-24820D01*
X27750Y-24795D01*
X27726Y-24773D01*
X27702Y-24732D01*
X27702Y-24636D01*
X27726Y-24582D01*
X28202Y-24242D02*
X27964Y-24346D01*
X28202Y-24471D02*
X27702Y-24408D01*
X27702Y-24255D01*
X27726Y-24220D01*
X27750Y-24204D01*
X27798Y-24191D01*
X27869Y-24200D01*
X27917Y-24225D01*
X27940Y-24247D01*
X27964Y-24288D01*
X27964Y-24441D01*
G54D13*
X25827Y-28916D02*
X26185Y-28916D01*
X26256Y-28940D01*
X26304Y-28988D01*
X26327Y-29059D01*
X26327Y-29107D01*
X26327Y-28678D02*
X25827Y-28678D01*
X25827Y-28487D01*
X25851Y-28440D01*
X25875Y-28416D01*
X25923Y-28392D01*
X25994Y-28392D01*
X26042Y-28416D01*
X26065Y-28440D01*
X26089Y-28487D01*
X26089Y-28678D01*
X25994Y-27964D02*
X26327Y-27964D01*
X25804Y-28083D02*
X26161Y-28202D01*
X26161Y-27892D01*
G54D12*
X28202Y-29490D02*
X27964Y-29594D01*
X28202Y-29719D02*
X27702Y-29656D01*
X27702Y-29503D01*
X27726Y-29468D01*
X27750Y-29452D01*
X27798Y-29439D01*
X27869Y-29448D01*
X27917Y-29473D01*
X27940Y-29495D01*
X27964Y-29536D01*
X27964Y-29689D01*
X27702Y-29313D02*
X27702Y-29084D01*
X28202Y-29262D02*
X27702Y-29199D01*
X28179Y-29030D02*
X28202Y-28976D01*
X28202Y-28880D01*
X28179Y-28839D01*
X28155Y-28817D01*
X28107Y-28792D01*
X28060Y-28786D01*
X28012Y-28799D01*
X27988Y-28815D01*
X27964Y-28850D01*
X27940Y-28924D01*
X27917Y-28959D01*
X27893Y-28975D01*
X27845Y-28988D01*
X27798Y-28982D01*
X27750Y-28957D01*
X27726Y-28935D01*
X27702Y-28894D01*
X27702Y-28798D01*
X27726Y-28744D01*
X27679Y-28282D02*
X28321Y-28705D01*
X28155Y-27979D02*
X28179Y-28001D01*
X28202Y-28061D01*
X28202Y-28099D01*
X28179Y-28154D01*
X28131Y-28186D01*
X28083Y-28199D01*
X27988Y-28206D01*
X27917Y-28197D01*
X27821Y-28166D01*
X27774Y-28141D01*
X27726Y-28097D01*
X27702Y-28036D01*
X27702Y-27998D01*
X27726Y-27944D01*
X27750Y-27928D01*
X27702Y-27808D02*
X27702Y-27579D01*
X28202Y-27757D02*
X27702Y-27694D01*
X28179Y-27525D02*
X28202Y-27471D01*
X28202Y-27375D01*
X28179Y-27334D01*
X28155Y-27312D01*
X28107Y-27287D01*
X28060Y-27281D01*
X28012Y-27294D01*
X27988Y-27310D01*
X27964Y-27345D01*
X27940Y-27419D01*
X27917Y-27454D01*
X27893Y-27470D01*
X27845Y-27483D01*
X27798Y-27477D01*
X27750Y-27452D01*
X27726Y-27430D01*
X27702Y-27389D01*
X27702Y-27293D01*
X27726Y-27239D01*
G54D13*
X74530Y-41946D02*
X74554Y-41970D01*
X74577Y-42041D01*
X74577Y-42089D01*
X74554Y-42161D01*
X74506Y-42208D01*
X74458Y-42232D01*
X74363Y-42256D01*
X74292Y-42256D01*
X74196Y-42232D01*
X74149Y-42208D01*
X74101Y-42161D01*
X74077Y-42089D01*
X74077Y-42041D01*
X74101Y-41970D01*
X74125Y-41946D01*
X74577Y-41470D02*
X74577Y-41756D01*
X74577Y-41613D02*
X74077Y-41613D01*
X74149Y-41661D01*
X74196Y-41708D01*
X74220Y-41756D01*
X74244Y-41042D02*
X74577Y-41042D01*
X74054Y-41161D02*
X74411Y-41280D01*
X74411Y-40970D01*
G54D12*
X74577Y-40388D02*
X74577Y-40617D01*
X74577Y-40503D02*
X74077Y-40440D01*
X74149Y-40487D01*
X74196Y-40531D01*
X74220Y-40572D01*
X74077Y-40078D02*
X74077Y-40039D01*
X74101Y-40004D01*
X74125Y-39988D01*
X74173Y-39975D01*
X74268Y-39968D01*
X74387Y-39983D01*
X74482Y-40014D01*
X74530Y-40039D01*
X74554Y-40061D01*
X74577Y-40102D01*
X74577Y-40141D01*
X74554Y-40176D01*
X74530Y-40192D01*
X74482Y-40205D01*
X74387Y-40212D01*
X74268Y-40197D01*
X74173Y-40166D01*
X74125Y-40141D01*
X74101Y-40119D01*
X74077Y-40078D01*
X74077Y-39697D02*
X74077Y-39658D01*
X74101Y-39623D01*
X74125Y-39607D01*
X74173Y-39594D01*
X74268Y-39587D01*
X74387Y-39602D01*
X74482Y-39633D01*
X74530Y-39658D01*
X74554Y-39680D01*
X74577Y-39721D01*
X74577Y-39760D01*
X74554Y-39795D01*
X74530Y-39811D01*
X74482Y-39824D01*
X74387Y-39831D01*
X74268Y-39816D01*
X74173Y-39785D01*
X74125Y-39760D01*
X74101Y-39738D01*
X74077Y-39697D01*
X74244Y-39241D02*
X74577Y-39283D01*
X74244Y-39413D02*
X74506Y-39446D01*
X74554Y-39433D01*
X74577Y-39398D01*
X74577Y-39340D01*
X74554Y-39299D01*
X74530Y-39277D01*
X74315Y-38926D02*
X74315Y-39060D01*
X74577Y-39093D02*
X74077Y-39030D01*
X74077Y-38839D01*
G54D16*
X72407Y-41714D02*
X72407Y-41485D01*
X72521Y-41599D02*
X72293Y-41599D01*
G54D12*
X25912Y-42295D02*
X25512Y-42295D01*
X25512Y-42142D01*
X25531Y-42104D01*
X25550Y-42085D01*
X25588Y-42066D01*
X25645Y-42066D01*
X25683Y-42085D01*
X25702Y-42104D01*
X25721Y-42142D01*
X25721Y-42295D01*
X25512Y-41723D02*
X25512Y-41800D01*
X25531Y-41838D01*
X25550Y-41857D01*
X25607Y-41895D01*
X25683Y-41914D01*
X25836Y-41914D01*
X25874Y-41895D01*
X25893Y-41876D01*
X25912Y-41838D01*
X25912Y-41761D01*
X25893Y-41723D01*
X25874Y-41704D01*
X25836Y-41685D01*
X25740Y-41685D01*
X25702Y-41704D01*
X25683Y-41723D01*
X25664Y-41761D01*
X25664Y-41838D01*
X25683Y-41876D01*
X25702Y-41895D01*
X25740Y-41914D01*
G54D10*
X25912Y-39842D02*
X25512Y-39792D01*
X25912Y-39670D02*
X25683Y-39771D01*
X25512Y-39620D02*
X25740Y-39821D01*
X25702Y-39516D02*
X25702Y-39416D01*
X25912Y-39399D02*
X25912Y-39542D01*
X25512Y-39492D01*
X25512Y-39349D01*
X25721Y-39189D02*
X25912Y-39213D01*
X25512Y-39263D02*
X25721Y-39189D01*
X25512Y-39063D01*
X25702Y-38888D02*
X25721Y-38847D01*
X25740Y-38835D01*
X25779Y-38826D01*
X25836Y-38833D01*
X25874Y-38851D01*
X25893Y-38869D01*
X25912Y-38899D01*
X25912Y-39014D01*
X25512Y-38964D01*
X25512Y-38864D01*
X25531Y-38838D01*
X25550Y-38826D01*
X25588Y-38816D01*
X25626Y-38820D01*
X25664Y-38840D01*
X25683Y-38857D01*
X25702Y-38888D01*
X25702Y-38988D01*
X25512Y-38606D02*
X25512Y-38549D01*
X25531Y-38524D01*
X25569Y-38499D01*
X25645Y-38495D01*
X25779Y-38512D01*
X25855Y-38535D01*
X25893Y-38569D01*
X25912Y-38599D01*
X25912Y-38656D01*
X25893Y-38683D01*
X25855Y-38707D01*
X25779Y-38712D01*
X25645Y-38695D01*
X25569Y-38671D01*
X25531Y-38638D01*
X25512Y-38606D01*
X25798Y-38400D02*
X25798Y-38257D01*
X25912Y-38442D02*
X25512Y-38292D01*
X25912Y-38242D01*
X25912Y-37971D02*
X25721Y-38047D01*
X25912Y-38143D02*
X25512Y-38093D01*
X25512Y-37978D01*
X25531Y-37953D01*
X25550Y-37940D01*
X25588Y-37931D01*
X25645Y-37938D01*
X25683Y-37957D01*
X25702Y-37974D01*
X25721Y-38004D01*
X25721Y-38119D01*
X25912Y-37843D02*
X25512Y-37793D01*
X25512Y-37721D01*
X25531Y-37681D01*
X25569Y-37657D01*
X25607Y-37647D01*
X25683Y-37643D01*
X25740Y-37650D01*
X25817Y-37673D01*
X25855Y-37693D01*
X25893Y-37726D01*
X25912Y-37771D01*
X25912Y-37843D01*
G54D11*
X25993Y-32442D02*
X25393Y-32442D01*
X25393Y-32214D01*
X25421Y-32156D01*
X25450Y-32128D01*
X25507Y-32099D01*
X25593Y-32099D01*
X25650Y-32128D01*
X25679Y-32156D01*
X25707Y-32214D01*
X25707Y-32442D01*
X25393Y-31899D02*
X25393Y-31499D01*
X25993Y-31756D01*
G54D13*
X25964Y-23675D02*
X25993Y-23607D01*
X25993Y-23488D01*
X25964Y-23437D01*
X25936Y-23410D01*
X25879Y-23379D01*
X25821Y-23371D01*
X25764Y-23388D01*
X25736Y-23409D01*
X25707Y-23452D01*
X25679Y-23545D01*
X25650Y-23588D01*
X25621Y-23608D01*
X25564Y-23625D01*
X25507Y-23618D01*
X25450Y-23587D01*
X25421Y-23559D01*
X25393Y-23509D01*
X25393Y-23389D01*
X25421Y-23321D01*
X25679Y-23140D02*
X25679Y-22973D01*
X25993Y-22941D02*
X25993Y-23179D01*
X25393Y-23104D01*
X25393Y-22866D01*
X25993Y-22441D02*
X25707Y-22572D01*
X25993Y-22727D02*
X25393Y-22652D01*
X25393Y-22461D01*
X25421Y-22417D01*
X25450Y-22397D01*
X25507Y-22380D01*
X25593Y-22391D01*
X25650Y-22422D01*
X25679Y-22450D01*
X25707Y-22500D01*
X25707Y-22691D01*
X25993Y-22227D02*
X25393Y-22152D01*
X25821Y-21991D02*
X25821Y-21753D01*
X25993Y-22060D02*
X25393Y-21819D01*
X25993Y-21727D01*
X25993Y-21322D02*
X25993Y-21560D01*
X25393Y-21485D01*
G54D11*
X27243Y-58442D02*
X26643Y-58442D01*
X26643Y-58214D01*
X26671Y-58156D01*
X26700Y-58128D01*
X26757Y-58099D01*
X26843Y-58099D01*
X26900Y-58128D01*
X26929Y-58156D01*
X26957Y-58214D01*
X26957Y-58442D01*
X26900Y-57756D02*
X26871Y-57814D01*
X26843Y-57842D01*
X26786Y-57871D01*
X26757Y-57871D01*
X26700Y-57842D01*
X26671Y-57814D01*
X26643Y-57756D01*
X26643Y-57642D01*
X26671Y-57585D01*
X26700Y-57556D01*
X26757Y-57528D01*
X26786Y-57528D01*
X26843Y-57556D01*
X26871Y-57585D01*
X26900Y-57642D01*
X26900Y-57756D01*
X26929Y-57814D01*
X26957Y-57842D01*
X27014Y-57871D01*
X27129Y-57871D01*
X27186Y-57842D01*
X27214Y-57814D01*
X27243Y-57756D01*
X27243Y-57642D01*
X27214Y-57585D01*
X27186Y-57556D01*
X27129Y-57528D01*
X27014Y-57528D01*
X26957Y-57556D01*
X26929Y-57585D01*
X26900Y-57642D01*
G54D13*
X26643Y-48580D02*
X27243Y-48489D01*
X26643Y-48247D01*
X26671Y-47821D02*
X26643Y-47866D01*
X26643Y-47937D01*
X26671Y-48012D01*
X26729Y-48067D01*
X26786Y-48098D01*
X26900Y-48136D01*
X26986Y-48147D01*
X27100Y-48137D01*
X27157Y-48120D01*
X27214Y-48080D01*
X27243Y-48012D01*
X27243Y-47964D01*
X27214Y-47889D01*
X27186Y-47862D01*
X26986Y-47837D01*
X26986Y-47932D01*
X27071Y-47657D02*
X27071Y-47419D01*
X27243Y-47726D02*
X26643Y-47485D01*
X27243Y-47393D01*
G54D11*
X76308Y-46493D02*
X76308Y-45893D01*
X76536Y-45893D01*
X76594Y-45921D01*
X76622Y-45950D01*
X76651Y-46007D01*
X76651Y-46093D01*
X76622Y-46150D01*
X76594Y-46179D01*
X76536Y-46207D01*
X76308Y-46207D01*
X76936Y-46493D02*
X77051Y-46493D01*
X77108Y-46464D01*
X77136Y-46436D01*
X77194Y-46350D01*
X77222Y-46236D01*
X77222Y-46007D01*
X77194Y-45950D01*
X77165Y-45921D01*
X77108Y-45893D01*
X76994Y-45893D01*
X76936Y-45921D01*
X76908Y-45950D01*
X76879Y-46007D01*
X76879Y-46150D01*
X76908Y-46207D01*
X76936Y-46236D01*
X76994Y-46264D01*
X77108Y-46264D01*
X77165Y-46236D01*
X77194Y-46207D01*
X77222Y-46150D01*
G54D13*
X82682Y-46464D02*
X82750Y-46493D01*
X82869Y-46493D01*
X82920Y-46464D01*
X82947Y-46436D01*
X82978Y-46379D01*
X82986Y-46321D01*
X82969Y-46264D01*
X82948Y-46236D01*
X82905Y-46207D01*
X82812Y-46179D01*
X82769Y-46150D01*
X82749Y-46121D01*
X82732Y-46064D01*
X82739Y-46007D01*
X82770Y-45950D01*
X82798Y-45921D01*
X82848Y-45893D01*
X82968Y-45893D01*
X83036Y-45921D01*
X83178Y-46493D02*
X83253Y-45893D01*
X83372Y-45893D01*
X83441Y-45921D01*
X83480Y-45979D01*
X83497Y-46036D01*
X83507Y-46150D01*
X83496Y-46236D01*
X83458Y-46350D01*
X83427Y-46407D01*
X83373Y-46464D01*
X83297Y-46493D01*
X83178Y-46493D01*
X83552Y-46550D02*
X83933Y-46550D01*
X84352Y-46436D02*
X84325Y-46464D01*
X84250Y-46493D01*
X84202Y-46493D01*
X84134Y-46464D01*
X84094Y-46407D01*
X84077Y-46350D01*
X84067Y-46236D01*
X84078Y-46150D01*
X84116Y-46036D01*
X84147Y-45979D01*
X84202Y-45921D01*
X84277Y-45893D01*
X84325Y-45893D01*
X84393Y-45921D01*
X84413Y-45950D01*
X84557Y-46321D02*
X84795Y-46321D01*
X84488Y-46493D02*
X84729Y-45893D01*
X84821Y-46493D01*
X85274Y-46493D02*
X85143Y-46207D01*
X84988Y-46493D02*
X85063Y-45893D01*
X85254Y-45893D01*
X85298Y-45921D01*
X85318Y-45950D01*
X85335Y-46007D01*
X85324Y-46093D01*
X85293Y-46150D01*
X85265Y-46179D01*
X85215Y-46207D01*
X85024Y-46207D01*
X85488Y-46493D02*
X85563Y-45893D01*
X85682Y-45893D01*
X85751Y-45921D01*
X85790Y-45979D01*
X85807Y-46036D01*
X85817Y-46150D01*
X85806Y-46236D01*
X85768Y-46350D01*
X85737Y-46407D01*
X85683Y-46464D01*
X85607Y-46493D01*
X85488Y-46493D01*
G54D12*
X50620Y-28893D02*
X50677Y-28912D01*
X50773Y-28912D01*
X50811Y-28893D01*
X50830Y-28874D01*
X50849Y-28836D01*
X50849Y-28798D01*
X50830Y-28760D01*
X50811Y-28740D01*
X50773Y-28721D01*
X50696Y-28702D01*
X50658Y-28683D01*
X50639Y-28664D01*
X50620Y-28626D01*
X50620Y-28588D01*
X50639Y-28550D01*
X50658Y-28531D01*
X50696Y-28512D01*
X50792Y-28512D01*
X50849Y-28531D01*
X51020Y-28912D02*
X51020Y-28512D01*
X51173Y-28512D01*
X51211Y-28531D01*
X51230Y-28550D01*
X51249Y-28588D01*
X51249Y-28645D01*
X51230Y-28683D01*
X51211Y-28702D01*
X51173Y-28721D01*
X51020Y-28721D01*
X51630Y-28912D02*
X51401Y-28912D01*
X51515Y-28912D02*
X51515Y-28512D01*
X51477Y-28569D01*
X51439Y-28607D01*
X51401Y-28626D01*
G54D10*
X52053Y-28893D02*
X52094Y-28912D01*
X52165Y-28912D01*
X52196Y-28893D01*
X52213Y-28874D01*
X52232Y-28836D01*
X52237Y-28798D01*
X52227Y-28760D01*
X52215Y-28740D01*
X52189Y-28721D01*
X52134Y-28702D01*
X52108Y-28683D01*
X52096Y-28664D01*
X52087Y-28626D01*
X52091Y-28588D01*
X52110Y-28550D01*
X52127Y-28531D01*
X52158Y-28512D01*
X52230Y-28512D01*
X52270Y-28531D01*
X52351Y-28912D02*
X52401Y-28512D01*
X52516Y-28512D01*
X52541Y-28531D01*
X52554Y-28550D01*
X52563Y-28588D01*
X52556Y-28645D01*
X52537Y-28683D01*
X52520Y-28702D01*
X52490Y-28721D01*
X52375Y-28721D01*
X52677Y-28702D02*
X52777Y-28702D01*
X52794Y-28912D02*
X52651Y-28912D01*
X52701Y-28512D01*
X52844Y-28512D01*
X52922Y-28798D02*
X53065Y-28798D01*
X52880Y-28912D02*
X53030Y-28512D01*
X53080Y-28912D01*
X53179Y-28912D02*
X53229Y-28512D01*
X53351Y-28912D02*
X53250Y-28683D01*
X53401Y-28512D02*
X53200Y-28740D01*
X53505Y-28702D02*
X53605Y-28702D01*
X53622Y-28912D02*
X53479Y-28912D01*
X53529Y-28512D01*
X53672Y-28512D01*
X53922Y-28912D02*
X53846Y-28721D01*
X53750Y-28912D02*
X53800Y-28512D01*
X53915Y-28512D01*
X53940Y-28531D01*
X53953Y-28550D01*
X53962Y-28588D01*
X53955Y-28645D01*
X53936Y-28683D01*
X53919Y-28702D01*
X53889Y-28721D01*
X53774Y-28721D01*
G54D12*
X49348Y-26010D02*
X49653Y-26010D01*
X49501Y-26162D02*
X49501Y-25857D01*
X28676Y-50012D02*
X28943Y-50412D01*
X28943Y-50012D02*
X28676Y-50412D01*
X29305Y-50412D02*
X29076Y-50412D01*
X29190Y-50412D02*
X29190Y-50012D01*
X29152Y-50069D01*
X29114Y-50107D01*
X29076Y-50126D01*
G54D10*
X30657Y-50012D02*
X30514Y-50012D01*
X30476Y-50202D01*
X30492Y-50183D01*
X30524Y-50164D01*
X30595Y-50164D01*
X30621Y-50183D01*
X30633Y-50202D01*
X30643Y-50240D01*
X30631Y-50336D01*
X30612Y-50374D01*
X30595Y-50393D01*
X30564Y-50412D01*
X30493Y-50412D01*
X30466Y-50393D01*
X30455Y-50374D01*
X30750Y-50412D02*
X30800Y-50012D01*
X30864Y-50298D01*
X31000Y-50012D01*
X30950Y-50412D01*
X31093Y-50412D02*
X31143Y-50012D01*
X31119Y-50202D02*
X31291Y-50202D01*
X31265Y-50412D02*
X31315Y-50012D01*
X31412Y-50145D02*
X31569Y-50145D01*
X31379Y-50412D01*
X31536Y-50412D01*
M02*
