G04 (created by PCBNEW-RS274X (2012-01-19 BZR 3256)-stable) date 12/19/2012 12:02:29 AM*
G01*
G70*
G90*
%MOIN*%
G04 Gerber Fmt 3.4, Leading zero omitted, Abs format*
%FSLAX34Y34*%
G04 APERTURE LIST*
%ADD10C,0.006000*%
%ADD11R,0.080000X0.080000*%
%ADD12C,0.080000*%
%ADD13R,0.075000X0.075000*%
%ADD14C,0.075000*%
%ADD15C,0.180000*%
%ADD16R,0.370000X0.370000*%
%ADD17C,0.090000*%
%ADD18R,0.090000X0.090000*%
%ADD19C,0.074000*%
%ADD20C,0.177500*%
%ADD21C,0.179400*%
%ADD22R,0.079100X0.059400*%
%ADD23C,0.079100*%
%ADD24R,0.130200X0.079100*%
G04 APERTURE END LIST*
G54D10*
G54D11*
X62000Y-57000D03*
G54D12*
X62000Y-58000D03*
X61000Y-57000D03*
X61000Y-58000D03*
X60000Y-57000D03*
X60000Y-58000D03*
X59000Y-57000D03*
X59000Y-58000D03*
X58000Y-57000D03*
X58000Y-58000D03*
X57000Y-57000D03*
X57000Y-58000D03*
X56000Y-57000D03*
X56000Y-58000D03*
X55000Y-57000D03*
X55000Y-58000D03*
X54000Y-57000D03*
X54000Y-58000D03*
X53000Y-57000D03*
X53000Y-58000D03*
X52000Y-57000D03*
X52000Y-58000D03*
X51000Y-57000D03*
X51000Y-58000D03*
X50000Y-57000D03*
X50000Y-58000D03*
G54D13*
X34000Y-57000D03*
G54D14*
X34000Y-56000D03*
X34000Y-55000D03*
X34000Y-54000D03*
X34000Y-53000D03*
X34000Y-52000D03*
X34000Y-51000D03*
X34000Y-50000D03*
X34000Y-49000D03*
X34000Y-48000D03*
X73000Y-42000D03*
X73000Y-45000D03*
X32000Y-37000D03*
X29000Y-37000D03*
X32000Y-36000D03*
X29000Y-36000D03*
X32000Y-46000D03*
X29000Y-46000D03*
X32000Y-43000D03*
X29000Y-43000D03*
X32000Y-40000D03*
X29000Y-40000D03*
X38000Y-24000D03*
X41000Y-24000D03*
X38000Y-25000D03*
X41000Y-25000D03*
X32000Y-39000D03*
X29000Y-39000D03*
X32000Y-38000D03*
X29000Y-38000D03*
X38000Y-26000D03*
X41000Y-26000D03*
X32000Y-47000D03*
X29000Y-47000D03*
X32000Y-44000D03*
X29000Y-44000D03*
X32000Y-41000D03*
X29000Y-41000D03*
X85000Y-56000D03*
X85000Y-53000D03*
X29000Y-35000D03*
X32000Y-35000D03*
G54D11*
X54000Y-52000D03*
G54D12*
X54000Y-53000D03*
X53000Y-52000D03*
X53000Y-53000D03*
X52000Y-52000D03*
X52000Y-53000D03*
X51000Y-52000D03*
X51000Y-53000D03*
X50000Y-52000D03*
X50000Y-53000D03*
G54D11*
X32000Y-21000D03*
G54D12*
X33000Y-21000D03*
X34000Y-21000D03*
X35000Y-21000D03*
G54D11*
X36000Y-21000D03*
G54D12*
X37000Y-21000D03*
X38000Y-21000D03*
G54D11*
X43000Y-26000D03*
G54D12*
X43000Y-25000D03*
G54D11*
X53000Y-48000D03*
G54D12*
X54000Y-48000D03*
G54D11*
X50000Y-48000D03*
G54D12*
X51000Y-48000D03*
G54D15*
X47244Y-21246D03*
X47244Y-58254D03*
X74803Y-21246D03*
X74803Y-58254D03*
G54D13*
X41000Y-31000D03*
G54D14*
X41000Y-30000D03*
X41000Y-29000D03*
X41000Y-28000D03*
X38000Y-28000D03*
X38000Y-29000D03*
X38000Y-30000D03*
X38000Y-31000D03*
G54D13*
X42000Y-57000D03*
G54D14*
X42000Y-56000D03*
X42000Y-55000D03*
X42000Y-54000D03*
X42000Y-53000D03*
X42000Y-52000D03*
X42000Y-51000D03*
X42000Y-50000D03*
X42000Y-49000D03*
X42000Y-48000D03*
X42000Y-47000D03*
X42000Y-46000D03*
X42000Y-45000D03*
X42000Y-44000D03*
X42000Y-43000D03*
X42000Y-42000D03*
X42000Y-41000D03*
X42000Y-40000D03*
X42000Y-39000D03*
X42000Y-38000D03*
X36000Y-38000D03*
X36000Y-39000D03*
X36000Y-40000D03*
X36000Y-41000D03*
X36000Y-42000D03*
X36000Y-43000D03*
X36000Y-44000D03*
X36000Y-45000D03*
X36000Y-46000D03*
X36000Y-47000D03*
X36000Y-48000D03*
X36000Y-49000D03*
X36000Y-50000D03*
X36000Y-51000D03*
X36000Y-52000D03*
X36000Y-53000D03*
X36000Y-54000D03*
X36000Y-55000D03*
X36000Y-56000D03*
X36000Y-57000D03*
G54D13*
X32000Y-31000D03*
G54D14*
X32000Y-30000D03*
X32000Y-29000D03*
X32000Y-28000D03*
X32000Y-27000D03*
X32000Y-26000D03*
X32000Y-25000D03*
X32000Y-24000D03*
X29000Y-24000D03*
X29000Y-25000D03*
X29000Y-26000D03*
X29000Y-27000D03*
X29000Y-28000D03*
X29000Y-29000D03*
X29000Y-30000D03*
X29000Y-31000D03*
G54D13*
X48000Y-54000D03*
G54D14*
X48000Y-53000D03*
X48000Y-52000D03*
X48000Y-51000D03*
X48000Y-50000D03*
X48000Y-49000D03*
X48000Y-48000D03*
X45000Y-48000D03*
X45000Y-49000D03*
X45000Y-50000D03*
X45000Y-51000D03*
X45000Y-52000D03*
X45000Y-53000D03*
X45000Y-54000D03*
G54D13*
X48000Y-44000D03*
G54D14*
X48000Y-43000D03*
X48000Y-42000D03*
X48000Y-41000D03*
X48000Y-40000D03*
X48000Y-39000D03*
X48000Y-38000D03*
X45000Y-38000D03*
X45000Y-39000D03*
X45000Y-40000D03*
X45000Y-41000D03*
X45000Y-42000D03*
X45000Y-43000D03*
X45000Y-44000D03*
G54D13*
X48000Y-31000D03*
G54D14*
X48000Y-30000D03*
X48000Y-29000D03*
X48000Y-28000D03*
X48000Y-27000D03*
X48000Y-26000D03*
X48000Y-25000D03*
X45000Y-25000D03*
X45000Y-26000D03*
X45000Y-27000D03*
X45000Y-28000D03*
X45000Y-29000D03*
X45000Y-30000D03*
X45000Y-31000D03*
X45000Y-33000D03*
X47000Y-33000D03*
X51000Y-33000D03*
X53000Y-33000D03*
X38000Y-33000D03*
X40000Y-33000D03*
X34000Y-46000D03*
X34000Y-44000D03*
X44000Y-46000D03*
X46000Y-46000D03*
G54D13*
X53000Y-45000D03*
G54D14*
X54000Y-45000D03*
G54D13*
X51000Y-31000D03*
G54D14*
X51000Y-30000D03*
G54D13*
X50000Y-45000D03*
G54D14*
X51000Y-45000D03*
X73000Y-39000D03*
X73000Y-36000D03*
G54D16*
X52000Y-35500D03*
G54D17*
X51000Y-42000D03*
G54D18*
X52000Y-42000D03*
G54D17*
X53000Y-42000D03*
G54D14*
X27000Y-33000D03*
X27000Y-35000D03*
X29000Y-33000D03*
X31000Y-33000D03*
X30000Y-33000D03*
X34000Y-29000D03*
X36000Y-29000D03*
X35000Y-29000D03*
X34000Y-27000D03*
X36000Y-27000D03*
X35000Y-27000D03*
X34000Y-31000D03*
X36000Y-31000D03*
X35000Y-31000D03*
X34000Y-25000D03*
X36000Y-25000D03*
X35000Y-25000D03*
X32000Y-48000D03*
X29000Y-48000D03*
X32000Y-45000D03*
X29000Y-45000D03*
X32000Y-42000D03*
X29000Y-42000D03*
G54D11*
X85000Y-51000D03*
G54D12*
X85000Y-50000D03*
G54D11*
X27000Y-26000D03*
G54D12*
X27000Y-25000D03*
G54D11*
X27000Y-29000D03*
G54D12*
X27000Y-28000D03*
G54D13*
X73000Y-41000D03*
G54D14*
X73000Y-40000D03*
G54D12*
X56000Y-22000D03*
X57000Y-22000D03*
X58000Y-22000D03*
X59000Y-22000D03*
X56000Y-23000D03*
X57000Y-23000D03*
X58000Y-23000D03*
X59000Y-23000D03*
X56000Y-24000D03*
X57000Y-24000D03*
X58000Y-24000D03*
X59000Y-24000D03*
X56000Y-25000D03*
X57000Y-25000D03*
X58000Y-25000D03*
X59000Y-25000D03*
X56000Y-26000D03*
X57000Y-26000D03*
X58000Y-26000D03*
X59000Y-26000D03*
X56000Y-27000D03*
X57000Y-27000D03*
X58000Y-27000D03*
X59000Y-27000D03*
X56000Y-28000D03*
X57000Y-28000D03*
X58000Y-28000D03*
X59000Y-28000D03*
X56000Y-29000D03*
X57000Y-29000D03*
X58000Y-29000D03*
X59000Y-29000D03*
X56000Y-30000D03*
X57000Y-30000D03*
X58000Y-30000D03*
X59000Y-30000D03*
X56000Y-31000D03*
X57000Y-31000D03*
X58000Y-31000D03*
X59000Y-31000D03*
X56000Y-32000D03*
X57000Y-32000D03*
X58000Y-32000D03*
X59000Y-32000D03*
X56000Y-33000D03*
X57000Y-33000D03*
X58000Y-33000D03*
X59000Y-33000D03*
X56000Y-34000D03*
X57000Y-34000D03*
X58000Y-34000D03*
X59000Y-34000D03*
X56000Y-35000D03*
X57000Y-35000D03*
X58000Y-35000D03*
X59000Y-35000D03*
X56000Y-36000D03*
X57000Y-36000D03*
X58000Y-36000D03*
X59000Y-36000D03*
X56000Y-37000D03*
X57000Y-37000D03*
X58000Y-37000D03*
X59000Y-37000D03*
X56000Y-38000D03*
X57000Y-38000D03*
X58000Y-38000D03*
X59000Y-38000D03*
X56000Y-39000D03*
X57000Y-39000D03*
X58000Y-39000D03*
X59000Y-39000D03*
X56000Y-40000D03*
X57000Y-40000D03*
X58000Y-40000D03*
X59000Y-40000D03*
X56000Y-41000D03*
X57000Y-41000D03*
X58000Y-41000D03*
X59000Y-41000D03*
X56000Y-42000D03*
X57000Y-42000D03*
X58000Y-42000D03*
X59000Y-42000D03*
X56000Y-43000D03*
X57000Y-43000D03*
X58000Y-43000D03*
X59000Y-43000D03*
X56000Y-44000D03*
X57000Y-44000D03*
X58000Y-44000D03*
X59000Y-44000D03*
X56000Y-45000D03*
X57000Y-45000D03*
X58000Y-45000D03*
X59000Y-45000D03*
X56000Y-46000D03*
X57000Y-46000D03*
X58000Y-46000D03*
X59000Y-46000D03*
X56000Y-47000D03*
X57000Y-47000D03*
X58000Y-47000D03*
X59000Y-47000D03*
X56000Y-48000D03*
X57000Y-48000D03*
X58000Y-48000D03*
X59000Y-48000D03*
X56000Y-49000D03*
X57000Y-49000D03*
X58000Y-49000D03*
X59000Y-49000D03*
X56000Y-50000D03*
X57000Y-50000D03*
X58000Y-50000D03*
X59000Y-50000D03*
X56000Y-51000D03*
X57000Y-51000D03*
X58000Y-51000D03*
X59000Y-51000D03*
X56000Y-52000D03*
X57000Y-52000D03*
X58000Y-52000D03*
X59000Y-52000D03*
X56000Y-53000D03*
X57000Y-53000D03*
X58000Y-53000D03*
X59000Y-53000D03*
X76000Y-24000D03*
X77000Y-24000D03*
X78000Y-24000D03*
X79000Y-24000D03*
X76000Y-25000D03*
X77000Y-25000D03*
X78000Y-25000D03*
X79000Y-25000D03*
X76000Y-26000D03*
X77000Y-26000D03*
X78000Y-26000D03*
X79000Y-26000D03*
X76000Y-27000D03*
X77000Y-27000D03*
X78000Y-27000D03*
X79000Y-27000D03*
X76000Y-32000D03*
X77000Y-32000D03*
X78000Y-32000D03*
X79000Y-32000D03*
X76000Y-33000D03*
X77000Y-33000D03*
X78000Y-33000D03*
X79000Y-33000D03*
X60000Y-22000D03*
X61000Y-22000D03*
X62000Y-22000D03*
X63000Y-22000D03*
X60000Y-23000D03*
X61000Y-23000D03*
X62000Y-23000D03*
X63000Y-23000D03*
X60000Y-24000D03*
X61000Y-24000D03*
X62000Y-24000D03*
X63000Y-24000D03*
X60000Y-25000D03*
X61000Y-25000D03*
X62000Y-25000D03*
X63000Y-25000D03*
X60000Y-26000D03*
X61000Y-26000D03*
X62000Y-26000D03*
X63000Y-26000D03*
X60000Y-27000D03*
X61000Y-27000D03*
X62000Y-27000D03*
X63000Y-27000D03*
X60000Y-28000D03*
X61000Y-28000D03*
X62000Y-28000D03*
X63000Y-28000D03*
X60000Y-29000D03*
X61000Y-29000D03*
X62000Y-29000D03*
X63000Y-29000D03*
X60000Y-30000D03*
X61000Y-30000D03*
X62000Y-30000D03*
X63000Y-30000D03*
X60000Y-31000D03*
X61000Y-31000D03*
X62000Y-31000D03*
X63000Y-31000D03*
X60000Y-32000D03*
X61000Y-32000D03*
X62000Y-32000D03*
X63000Y-32000D03*
X60000Y-33000D03*
X61000Y-33000D03*
X62000Y-33000D03*
X63000Y-33000D03*
X60000Y-34000D03*
X61000Y-34000D03*
X62000Y-34000D03*
X63000Y-34000D03*
X60000Y-35000D03*
X61000Y-35000D03*
X62000Y-35000D03*
X63000Y-35000D03*
X60000Y-36000D03*
X61000Y-36000D03*
X62000Y-36000D03*
X63000Y-36000D03*
X60000Y-37000D03*
X61000Y-37000D03*
X62000Y-37000D03*
X63000Y-37000D03*
X60000Y-38000D03*
X61000Y-38000D03*
X62000Y-38000D03*
X63000Y-38000D03*
X60000Y-39000D03*
X61000Y-39000D03*
X62000Y-39000D03*
X63000Y-39000D03*
X60000Y-40000D03*
X61000Y-40000D03*
X62000Y-40000D03*
X63000Y-40000D03*
X60000Y-41000D03*
X61000Y-41000D03*
X62000Y-41000D03*
X63000Y-41000D03*
X60000Y-42000D03*
X61000Y-42000D03*
X62000Y-42000D03*
X63000Y-42000D03*
X60000Y-43000D03*
X61000Y-43000D03*
X62000Y-43000D03*
X63000Y-43000D03*
X60000Y-44000D03*
X61000Y-44000D03*
X62000Y-44000D03*
X63000Y-44000D03*
X60000Y-45000D03*
X61000Y-45000D03*
X62000Y-45000D03*
X63000Y-45000D03*
X60000Y-46000D03*
X61000Y-46000D03*
X62000Y-46000D03*
X63000Y-46000D03*
X60000Y-47000D03*
X61000Y-47000D03*
X62000Y-47000D03*
X63000Y-47000D03*
X60000Y-48000D03*
X61000Y-48000D03*
X62000Y-48000D03*
X63000Y-48000D03*
X60000Y-49000D03*
X61000Y-49000D03*
X62000Y-49000D03*
X63000Y-49000D03*
X60000Y-50000D03*
X61000Y-50000D03*
X62000Y-50000D03*
X63000Y-50000D03*
X60000Y-51000D03*
X61000Y-51000D03*
X62000Y-51000D03*
X63000Y-51000D03*
X60000Y-52000D03*
X61000Y-52000D03*
X62000Y-52000D03*
X63000Y-52000D03*
X60000Y-53000D03*
X61000Y-53000D03*
X62000Y-53000D03*
X63000Y-53000D03*
X76000Y-28000D03*
X77000Y-28000D03*
X78000Y-28000D03*
X79000Y-28000D03*
X76000Y-29000D03*
X77000Y-29000D03*
X78000Y-29000D03*
X79000Y-29000D03*
X76000Y-30000D03*
X77000Y-30000D03*
X78000Y-30000D03*
X79000Y-30000D03*
X76000Y-31000D03*
X77000Y-31000D03*
X78000Y-31000D03*
X79000Y-31000D03*
X84000Y-29000D03*
X84000Y-28000D03*
X84000Y-27000D03*
X84000Y-26000D03*
X85000Y-29000D03*
X85000Y-28000D03*
X85000Y-27000D03*
X85000Y-26000D03*
X64000Y-22000D03*
X65000Y-22000D03*
X66000Y-22000D03*
X67000Y-22000D03*
X64000Y-23000D03*
X65000Y-23000D03*
X66000Y-23000D03*
X67000Y-23000D03*
X64000Y-24000D03*
X65000Y-24000D03*
X66000Y-24000D03*
X67000Y-24000D03*
X64000Y-25000D03*
X65000Y-25000D03*
X66000Y-25000D03*
X67000Y-25000D03*
X64000Y-26000D03*
X65000Y-26000D03*
X66000Y-26000D03*
X67000Y-26000D03*
X64000Y-27000D03*
X65000Y-27000D03*
X66000Y-27000D03*
X67000Y-27000D03*
X64000Y-28000D03*
X65000Y-28000D03*
X66000Y-28000D03*
X67000Y-28000D03*
X64000Y-29000D03*
X65000Y-29000D03*
X66000Y-29000D03*
X67000Y-29000D03*
X64000Y-30000D03*
X65000Y-30000D03*
X66000Y-30000D03*
X67000Y-30000D03*
X64000Y-31000D03*
X65000Y-31000D03*
X66000Y-31000D03*
X67000Y-31000D03*
X64000Y-32000D03*
X65000Y-32000D03*
X66000Y-32000D03*
X67000Y-32000D03*
X64000Y-33000D03*
X65000Y-33000D03*
X66000Y-33000D03*
X67000Y-33000D03*
X64000Y-34000D03*
X65000Y-34000D03*
X66000Y-34000D03*
X67000Y-34000D03*
X64000Y-35000D03*
X65000Y-35000D03*
X66000Y-35000D03*
X67000Y-35000D03*
X64000Y-36000D03*
X65000Y-36000D03*
X66000Y-36000D03*
X67000Y-36000D03*
X64000Y-37000D03*
X65000Y-37000D03*
X66000Y-37000D03*
X67000Y-37000D03*
X64000Y-38000D03*
X65000Y-38000D03*
X66000Y-38000D03*
X67000Y-38000D03*
X64000Y-39000D03*
X65000Y-39000D03*
X66000Y-39000D03*
X67000Y-39000D03*
X64000Y-40000D03*
X65000Y-40000D03*
X66000Y-40000D03*
X67000Y-40000D03*
X64000Y-41000D03*
X65000Y-41000D03*
X66000Y-41000D03*
X67000Y-41000D03*
X64000Y-42000D03*
X65000Y-42000D03*
X66000Y-42000D03*
X67000Y-42000D03*
X64000Y-43000D03*
X65000Y-43000D03*
X66000Y-43000D03*
X67000Y-43000D03*
X64000Y-44000D03*
X65000Y-44000D03*
X66000Y-44000D03*
X67000Y-44000D03*
X64000Y-45000D03*
X65000Y-45000D03*
X66000Y-45000D03*
X67000Y-45000D03*
X64000Y-46000D03*
X65000Y-46000D03*
X66000Y-46000D03*
X67000Y-46000D03*
X64000Y-47000D03*
X65000Y-47000D03*
X66000Y-47000D03*
X67000Y-47000D03*
X64000Y-48000D03*
X65000Y-48000D03*
X66000Y-48000D03*
X67000Y-48000D03*
X64000Y-49000D03*
X65000Y-49000D03*
X66000Y-49000D03*
X67000Y-49000D03*
X64000Y-50000D03*
X65000Y-50000D03*
X66000Y-50000D03*
X67000Y-50000D03*
X64000Y-51000D03*
X65000Y-51000D03*
X66000Y-51000D03*
X67000Y-51000D03*
X64000Y-52000D03*
X65000Y-52000D03*
X66000Y-52000D03*
X67000Y-52000D03*
X64000Y-53000D03*
X65000Y-53000D03*
X66000Y-53000D03*
X67000Y-53000D03*
X64000Y-54000D03*
X65000Y-54000D03*
X66000Y-54000D03*
X67000Y-54000D03*
X64000Y-55000D03*
X65000Y-55000D03*
X66000Y-55000D03*
X67000Y-55000D03*
X64000Y-56000D03*
X65000Y-56000D03*
X66000Y-56000D03*
X67000Y-56000D03*
X64000Y-57000D03*
X65000Y-57000D03*
X66000Y-57000D03*
X67000Y-57000D03*
X84000Y-25000D03*
X84000Y-24000D03*
X84000Y-23000D03*
X84000Y-22000D03*
X85000Y-25000D03*
X85000Y-24000D03*
X85000Y-23000D03*
X85000Y-22000D03*
X68000Y-22000D03*
X69000Y-22000D03*
X70000Y-22000D03*
X71000Y-22000D03*
X68000Y-23000D03*
X69000Y-23000D03*
X70000Y-23000D03*
X71000Y-23000D03*
X68000Y-24000D03*
X69000Y-24000D03*
X70000Y-24000D03*
X71000Y-24000D03*
X68000Y-25000D03*
X69000Y-25000D03*
X70000Y-25000D03*
X71000Y-25000D03*
X68000Y-26000D03*
X69000Y-26000D03*
X70000Y-26000D03*
X71000Y-26000D03*
X68000Y-27000D03*
X69000Y-27000D03*
X70000Y-27000D03*
X71000Y-27000D03*
X68000Y-28000D03*
X69000Y-28000D03*
X70000Y-28000D03*
X71000Y-28000D03*
X68000Y-29000D03*
X69000Y-29000D03*
X70000Y-29000D03*
X71000Y-29000D03*
X68000Y-30000D03*
X69000Y-30000D03*
X70000Y-30000D03*
X71000Y-30000D03*
X68000Y-31000D03*
X69000Y-31000D03*
X70000Y-31000D03*
X71000Y-31000D03*
X68000Y-32000D03*
X69000Y-32000D03*
X70000Y-32000D03*
X71000Y-32000D03*
X68000Y-33000D03*
X69000Y-33000D03*
X70000Y-33000D03*
X71000Y-33000D03*
X68000Y-34000D03*
X69000Y-34000D03*
X70000Y-34000D03*
X71000Y-34000D03*
X68000Y-35000D03*
X69000Y-35000D03*
X70000Y-35000D03*
X71000Y-35000D03*
X68000Y-36000D03*
X69000Y-36000D03*
X70000Y-36000D03*
X71000Y-36000D03*
X68000Y-37000D03*
X69000Y-37000D03*
X70000Y-37000D03*
X71000Y-37000D03*
X68000Y-38000D03*
X69000Y-38000D03*
X70000Y-38000D03*
X71000Y-38000D03*
X68000Y-39000D03*
X69000Y-39000D03*
X70000Y-39000D03*
X71000Y-39000D03*
X68000Y-40000D03*
X69000Y-40000D03*
X70000Y-40000D03*
X71000Y-40000D03*
X68000Y-41000D03*
X69000Y-41000D03*
X70000Y-41000D03*
X71000Y-41000D03*
X68000Y-42000D03*
X69000Y-42000D03*
X70000Y-42000D03*
X71000Y-42000D03*
X68000Y-43000D03*
X69000Y-43000D03*
X70000Y-43000D03*
X71000Y-43000D03*
X68000Y-44000D03*
X69000Y-44000D03*
X70000Y-44000D03*
X71000Y-44000D03*
X68000Y-45000D03*
X69000Y-45000D03*
X70000Y-45000D03*
X71000Y-45000D03*
X68000Y-46000D03*
X69000Y-46000D03*
X70000Y-46000D03*
X71000Y-46000D03*
X68000Y-47000D03*
X69000Y-47000D03*
X70000Y-47000D03*
X71000Y-47000D03*
X68000Y-48000D03*
X69000Y-48000D03*
X70000Y-48000D03*
X71000Y-48000D03*
X68000Y-49000D03*
X69000Y-49000D03*
X70000Y-49000D03*
X71000Y-49000D03*
X68000Y-50000D03*
X69000Y-50000D03*
X70000Y-50000D03*
X71000Y-50000D03*
X68000Y-51000D03*
X69000Y-51000D03*
X70000Y-51000D03*
X71000Y-51000D03*
X68000Y-52000D03*
X69000Y-52000D03*
X70000Y-52000D03*
X71000Y-52000D03*
X68000Y-53000D03*
X69000Y-53000D03*
X70000Y-53000D03*
X71000Y-53000D03*
X68000Y-54000D03*
X69000Y-54000D03*
X70000Y-54000D03*
X71000Y-54000D03*
X68000Y-55000D03*
X69000Y-55000D03*
X70000Y-55000D03*
X71000Y-55000D03*
X68000Y-56000D03*
X69000Y-56000D03*
X70000Y-56000D03*
X71000Y-56000D03*
X68000Y-57000D03*
X69000Y-57000D03*
X70000Y-57000D03*
X71000Y-57000D03*
X84000Y-33000D03*
X84000Y-32000D03*
X84000Y-31000D03*
X84000Y-30000D03*
X85000Y-33000D03*
X85000Y-32000D03*
X85000Y-31000D03*
X85000Y-30000D03*
X72000Y-24000D03*
X73000Y-24000D03*
X74000Y-24000D03*
X75000Y-24000D03*
X72000Y-25000D03*
X73000Y-25000D03*
X74000Y-25000D03*
X75000Y-25000D03*
X72000Y-26000D03*
X73000Y-26000D03*
X74000Y-26000D03*
X75000Y-26000D03*
X72000Y-27000D03*
X73000Y-27000D03*
X74000Y-27000D03*
X75000Y-27000D03*
X72000Y-28000D03*
X73000Y-28000D03*
X74000Y-28000D03*
X75000Y-28000D03*
X72000Y-29000D03*
X73000Y-29000D03*
X74000Y-29000D03*
X75000Y-29000D03*
X72000Y-30000D03*
X73000Y-30000D03*
X74000Y-30000D03*
X75000Y-30000D03*
X72000Y-31000D03*
X73000Y-31000D03*
X74000Y-31000D03*
X75000Y-31000D03*
X72000Y-32000D03*
X73000Y-32000D03*
X74000Y-32000D03*
X75000Y-32000D03*
X72000Y-33000D03*
X73000Y-33000D03*
X74000Y-33000D03*
X75000Y-33000D03*
X80000Y-22000D03*
X81000Y-22000D03*
X82000Y-22000D03*
X83000Y-22000D03*
X80000Y-23000D03*
X81000Y-23000D03*
X82000Y-23000D03*
X83000Y-23000D03*
X80000Y-24000D03*
X81000Y-24000D03*
X82000Y-24000D03*
X83000Y-24000D03*
X80000Y-25000D03*
X81000Y-25000D03*
X82000Y-25000D03*
X83000Y-25000D03*
X80000Y-26000D03*
X81000Y-26000D03*
X82000Y-26000D03*
X83000Y-26000D03*
X80000Y-27000D03*
X81000Y-27000D03*
X82000Y-27000D03*
X83000Y-27000D03*
X80000Y-28000D03*
X81000Y-28000D03*
X82000Y-28000D03*
X83000Y-28000D03*
X80000Y-29000D03*
X81000Y-29000D03*
X82000Y-29000D03*
X83000Y-29000D03*
X80000Y-30000D03*
X81000Y-30000D03*
X82000Y-30000D03*
X83000Y-30000D03*
X80000Y-31000D03*
X81000Y-31000D03*
X82000Y-31000D03*
X83000Y-31000D03*
X80000Y-32000D03*
X81000Y-32000D03*
X82000Y-32000D03*
X83000Y-32000D03*
X80000Y-33000D03*
X81000Y-33000D03*
X82000Y-33000D03*
X83000Y-33000D03*
X72000Y-48000D03*
X73000Y-48000D03*
X74000Y-48000D03*
X75000Y-48000D03*
X72000Y-49000D03*
X73000Y-49000D03*
X74000Y-49000D03*
X75000Y-49000D03*
X72000Y-50000D03*
X73000Y-50000D03*
X74000Y-50000D03*
X75000Y-50000D03*
X72000Y-51000D03*
X73000Y-51000D03*
X74000Y-51000D03*
X75000Y-51000D03*
X72000Y-52000D03*
X73000Y-52000D03*
X74000Y-52000D03*
X75000Y-52000D03*
X72000Y-53000D03*
X73000Y-53000D03*
X74000Y-53000D03*
X75000Y-53000D03*
X72000Y-54000D03*
X73000Y-54000D03*
X74000Y-54000D03*
X75000Y-54000D03*
X72000Y-55000D03*
X73000Y-55000D03*
X74000Y-55000D03*
X75000Y-55000D03*
X76000Y-48000D03*
X77000Y-48000D03*
X78000Y-48000D03*
X79000Y-48000D03*
X76000Y-49000D03*
X77000Y-49000D03*
X78000Y-49000D03*
X79000Y-49000D03*
X76000Y-50000D03*
X77000Y-50000D03*
X78000Y-50000D03*
X79000Y-50000D03*
X76000Y-51000D03*
X77000Y-51000D03*
X78000Y-51000D03*
X79000Y-51000D03*
X78000Y-56000D03*
X79000Y-56000D03*
X78000Y-57000D03*
X79000Y-57000D03*
X78000Y-22000D03*
X79000Y-22000D03*
X78000Y-23000D03*
X79000Y-23000D03*
X76000Y-52000D03*
X77000Y-52000D03*
X78000Y-52000D03*
X79000Y-52000D03*
X76000Y-53000D03*
X77000Y-53000D03*
X78000Y-53000D03*
X79000Y-53000D03*
X76000Y-54000D03*
X77000Y-54000D03*
X78000Y-54000D03*
X79000Y-54000D03*
X76000Y-55000D03*
X77000Y-55000D03*
X78000Y-55000D03*
X79000Y-55000D03*
X80000Y-48000D03*
X81000Y-48000D03*
X82000Y-48000D03*
X83000Y-48000D03*
X80000Y-49000D03*
X81000Y-49000D03*
X82000Y-49000D03*
X83000Y-49000D03*
X80000Y-50000D03*
X81000Y-50000D03*
X82000Y-50000D03*
X83000Y-50000D03*
X80000Y-51000D03*
X81000Y-51000D03*
X82000Y-51000D03*
X83000Y-51000D03*
X80000Y-52000D03*
X81000Y-52000D03*
X82000Y-52000D03*
X83000Y-52000D03*
X80000Y-53000D03*
X81000Y-53000D03*
X82000Y-53000D03*
X83000Y-53000D03*
X80000Y-54000D03*
X81000Y-54000D03*
X82000Y-54000D03*
X83000Y-54000D03*
X80000Y-55000D03*
X81000Y-55000D03*
X82000Y-55000D03*
X83000Y-55000D03*
X80000Y-56000D03*
X81000Y-56000D03*
X82000Y-56000D03*
X83000Y-56000D03*
X80000Y-57000D03*
X81000Y-57000D03*
X82000Y-57000D03*
X83000Y-57000D03*
G54D19*
X23350Y-39488D03*
X23350Y-40512D03*
X24331Y-41319D03*
X24331Y-38681D03*
X23350Y-38681D03*
X23350Y-41319D03*
G54D20*
X21850Y-40000D03*
X22169Y-42661D03*
X22169Y-37339D03*
G54D21*
X23750Y-22081D03*
X23750Y-31919D03*
G54D11*
X24310Y-24840D03*
G54D12*
X24310Y-25920D03*
X24310Y-27000D03*
X24310Y-28080D03*
X24310Y-29160D03*
X23190Y-28620D03*
X23190Y-27540D03*
X23190Y-26450D03*
X23190Y-25380D03*
G54D21*
X24500Y-48081D03*
X24500Y-57919D03*
G54D11*
X25500Y-54709D03*
G54D12*
X25500Y-53807D03*
X25500Y-52902D03*
X25500Y-52000D03*
X25500Y-51098D03*
X24500Y-52451D03*
X24500Y-53352D03*
X24500Y-54254D03*
X24500Y-55156D03*
X24500Y-51549D03*
X23500Y-54709D03*
X23500Y-53807D03*
X23500Y-52902D03*
X23500Y-52000D03*
X23500Y-51098D03*
G54D22*
X75250Y-36309D03*
X75250Y-37293D03*
X75250Y-38278D03*
X75250Y-39577D03*
X75250Y-40246D03*
X75250Y-41230D03*
X75250Y-42215D03*
X75250Y-43169D03*
X75250Y-43839D03*
X75250Y-38927D03*
X75250Y-45157D03*
G54D23*
X84817Y-35236D03*
X84817Y-44764D03*
G54D24*
X83990Y-45354D03*
X83518Y-34331D03*
G54D14*
X50970Y-26000D03*
X53530Y-26000D03*
X29039Y-51000D03*
X30961Y-51000D03*
X27750Y-54750D03*
X32250Y-54750D03*
M02*
