M48
INCH,TZ
T1C0.032
T2C0.035
T3C0.040
T4C0.041
T5C0.045
T6C0.090
T7C0.120
T8C0.120
%
G90
G05
T1
X027000Y-033000
X027000Y-035000
X029000Y-024000
X029000Y-025000
X029000Y-026000
X029000Y-027000
X029000Y-028000
X029000Y-029000
X029000Y-030000
X029000Y-031000
X029000Y-033000
X029000Y-035000
X029000Y-036000
X029000Y-037000
X029000Y-038000
X029000Y-039000
X029000Y-040000
X029000Y-041000
X029000Y-042000
X029000Y-043000
X029000Y-044000
X029000Y-045000
X029000Y-046000
X029000Y-047000
X029000Y-048000
X029000Y-051000
X030000Y-033000
X031000Y-033000
X031000Y-051000
X032000Y-024000
X032000Y-025000
X032000Y-026000
X032000Y-027000
X032000Y-028000
X032000Y-029000
X032000Y-030000
X032000Y-031000
X032000Y-035000
X032000Y-036000
X032000Y-037000
X032000Y-038000
X032000Y-039000
X032000Y-040000
X032000Y-041000
X032000Y-042000
X032000Y-043000
X032000Y-044000
X032000Y-045000
X032000Y-046000
X032000Y-047000
X032000Y-048000
X034000Y-025000
X034000Y-027000
X034000Y-029000
X034000Y-031000
X034000Y-044000
X034000Y-046000
X034000Y-048000
X034000Y-049000
X034000Y-050000
X034000Y-051000
X034000Y-052000
X034000Y-053000
X034000Y-054000
X034000Y-055000
X034000Y-056000
X034000Y-057000
X035000Y-025000
X035000Y-027000
X035000Y-029000
X035000Y-031000
X036000Y-025000
X036000Y-027000
X036000Y-029000
X036000Y-031000
X036000Y-038000
X036000Y-039000
X036000Y-040000
X036000Y-041000
X036000Y-042000
X036000Y-043000
X036000Y-044000
X036000Y-045000
X036000Y-046000
X036000Y-047000
X036000Y-048000
X036000Y-049000
X036000Y-050000
X036000Y-051000
X036000Y-052000
X036000Y-053000
X036000Y-054000
X036000Y-055000
X036000Y-056000
X036000Y-057000
X038000Y-024000
X038000Y-025000
X038000Y-026000
X038000Y-028000
X038000Y-029000
X038000Y-030000
X038000Y-031000
X038000Y-033000
X040000Y-033000
X041000Y-024000
X041000Y-025000
X041000Y-026000
X041000Y-028000
X041000Y-029000
X041000Y-030000
X041000Y-031000
X042000Y-038000
X042000Y-039000
X042000Y-040000
X042000Y-041000
X042000Y-042000
X042000Y-043000
X042000Y-044000
X042000Y-045000
X042000Y-046000
X042000Y-047000
X042000Y-048000
X042000Y-049000
X042000Y-050000
X042000Y-051000
X042000Y-052000
X042000Y-053000
X042000Y-054000
X042000Y-055000
X042000Y-056000
X042000Y-057000
X044000Y-046000
X045000Y-025000
X045000Y-026000
X045000Y-027000
X045000Y-028000
X045000Y-029000
X045000Y-030000
X045000Y-031000
X045000Y-033000
X045000Y-038000
X045000Y-039000
X045000Y-040000
X045000Y-041000
X045000Y-042000
X045000Y-043000
X045000Y-044000
X045000Y-048000
X045000Y-049000
X045000Y-050000
X045000Y-051000
X045000Y-052000
X045000Y-053000
X045000Y-054000
X046000Y-046000
X047000Y-033000
X048000Y-025000
X048000Y-026000
X048000Y-027000
X048000Y-028000
X048000Y-029000
X048000Y-030000
X048000Y-031000
X048000Y-038000
X048000Y-039000
X048000Y-040000
X048000Y-041000
X048000Y-042000
X048000Y-043000
X048000Y-044000
X048000Y-048000
X048000Y-049000
X048000Y-050000
X048000Y-051000
X048000Y-052000
X048000Y-053000
X048000Y-054000
X050000Y-045000
X050970Y-026000
X051000Y-030000
X051000Y-031000
X051000Y-033000
X051000Y-045000
X053000Y-033000
X053000Y-045000
X053530Y-026000
X054000Y-045000
X056000Y-022000
X056000Y-023000
X056000Y-024000
X056000Y-025000
X056000Y-026000
X056000Y-027000
X056000Y-028000
X056000Y-029000
X056000Y-030000
X056000Y-031000
X056000Y-032000
X056000Y-033000
X056000Y-034000
X056000Y-035000
X056000Y-036000
X056000Y-037000
X056000Y-038000
X056000Y-039000
X056000Y-040000
X056000Y-041000
X056000Y-042000
X056000Y-043000
X056000Y-044000
X056000Y-045000
X056000Y-046000
X056000Y-047000
X056000Y-048000
X056000Y-049000
X056000Y-050000
X056000Y-051000
X056000Y-052000
X056000Y-053000
X057000Y-022000
X057000Y-023000
X057000Y-024000
X057000Y-025000
X057000Y-026000
X057000Y-027000
X057000Y-028000
X057000Y-029000
X057000Y-030000
X057000Y-031000
X057000Y-032000
X057000Y-033000
X057000Y-034000
X057000Y-035000
X057000Y-036000
X057000Y-037000
X057000Y-038000
X057000Y-039000
X057000Y-040000
X057000Y-041000
X057000Y-042000
X057000Y-043000
X057000Y-044000
X057000Y-045000
X057000Y-046000
X057000Y-047000
X057000Y-048000
X057000Y-049000
X057000Y-050000
X057000Y-051000
X057000Y-052000
X057000Y-053000
X058000Y-022000
X058000Y-023000
X058000Y-024000
X058000Y-025000
X058000Y-026000
X058000Y-027000
X058000Y-028000
X058000Y-029000
X058000Y-030000
X058000Y-031000
X058000Y-032000
X058000Y-033000
X058000Y-034000
X058000Y-035000
X058000Y-036000
X058000Y-037000
X058000Y-038000
X058000Y-039000
X058000Y-040000
X058000Y-041000
X058000Y-042000
X058000Y-043000
X058000Y-044000
X058000Y-045000
X058000Y-046000
X058000Y-047000
X058000Y-048000
X058000Y-049000
X058000Y-050000
X058000Y-051000
X058000Y-052000
X058000Y-053000
X059000Y-022000
X059000Y-023000
X059000Y-024000
X059000Y-025000
X059000Y-026000
X059000Y-027000
X059000Y-028000
X059000Y-029000
X059000Y-030000
X059000Y-031000
X059000Y-032000
X059000Y-033000
X059000Y-034000
X059000Y-035000
X059000Y-036000
X059000Y-037000
X059000Y-038000
X059000Y-039000
X059000Y-040000
X059000Y-041000
X059000Y-042000
X059000Y-043000
X059000Y-044000
X059000Y-045000
X059000Y-046000
X059000Y-047000
X059000Y-048000
X059000Y-049000
X059000Y-050000
X059000Y-051000
X059000Y-052000
X059000Y-053000
X060000Y-022000
X060000Y-023000
X060000Y-024000
X060000Y-025000
X060000Y-026000
X060000Y-027000
X060000Y-028000
X060000Y-029000
X060000Y-030000
X060000Y-031000
X060000Y-032000
X060000Y-033000
X060000Y-034000
X060000Y-035000
X060000Y-036000
X060000Y-037000
X060000Y-038000
X060000Y-039000
X060000Y-040000
X060000Y-041000
X060000Y-042000
X060000Y-043000
X060000Y-044000
X060000Y-045000
X060000Y-046000
X060000Y-047000
X060000Y-048000
X060000Y-049000
X060000Y-050000
X060000Y-051000
X060000Y-052000
X060000Y-053000
X061000Y-022000
X061000Y-023000
X061000Y-024000
X061000Y-025000
X061000Y-026000
X061000Y-027000
X061000Y-028000
X061000Y-029000
X061000Y-030000
X061000Y-031000
X061000Y-032000
X061000Y-033000
X061000Y-034000
X061000Y-035000
X061000Y-036000
X061000Y-037000
X061000Y-038000
X061000Y-039000
X061000Y-040000
X061000Y-041000
X061000Y-042000
X061000Y-043000
X061000Y-044000
X061000Y-045000
X061000Y-046000
X061000Y-047000
X061000Y-048000
X061000Y-049000
X061000Y-050000
X061000Y-051000
X061000Y-052000
X061000Y-053000
X062000Y-022000
X062000Y-023000
X062000Y-024000
X062000Y-025000
X062000Y-026000
X062000Y-027000
X062000Y-028000
X062000Y-029000
X062000Y-030000
X062000Y-031000
X062000Y-032000
X062000Y-033000
X062000Y-034000
X062000Y-035000
X062000Y-036000
X062000Y-037000
X062000Y-038000
X062000Y-039000
X062000Y-040000
X062000Y-041000
X062000Y-042000
X062000Y-043000
X062000Y-044000
X062000Y-045000
X062000Y-046000
X062000Y-047000
X062000Y-048000
X062000Y-049000
X062000Y-050000
X062000Y-051000
X062000Y-052000
X062000Y-053000
X063000Y-022000
X063000Y-023000
X063000Y-024000
X063000Y-025000
X063000Y-026000
X063000Y-027000
X063000Y-028000
X063000Y-029000
X063000Y-030000
X063000Y-031000
X063000Y-032000
X063000Y-033000
X063000Y-034000
X063000Y-035000
X063000Y-036000
X063000Y-037000
X063000Y-038000
X063000Y-039000
X063000Y-040000
X063000Y-041000
X063000Y-042000
X063000Y-043000
X063000Y-044000
X063000Y-045000
X063000Y-046000
X063000Y-047000
X063000Y-048000
X063000Y-049000
X063000Y-050000
X063000Y-051000
X063000Y-052000
X063000Y-053000
X064000Y-022000
X064000Y-023000
X064000Y-024000
X064000Y-025000
X064000Y-026000
X064000Y-027000
X064000Y-028000
X064000Y-029000
X064000Y-030000
X064000Y-031000
X064000Y-032000
X064000Y-033000
X064000Y-034000
X064000Y-035000
X064000Y-036000
X064000Y-037000
X064000Y-038000
X064000Y-039000
X064000Y-040000
X064000Y-041000
X064000Y-042000
X064000Y-043000
X064000Y-044000
X064000Y-045000
X064000Y-046000
X064000Y-047000
X064000Y-048000
X064000Y-049000
X064000Y-050000
X064000Y-051000
X064000Y-052000
X064000Y-053000
X064000Y-054000
X064000Y-055000
X064000Y-056000
X064000Y-057000
X065000Y-022000
X065000Y-023000
X065000Y-024000
X065000Y-025000
X065000Y-026000
X065000Y-027000
X065000Y-028000
X065000Y-029000
X065000Y-030000
X065000Y-031000
X065000Y-032000
X065000Y-033000
X065000Y-034000
X065000Y-035000
X065000Y-036000
X065000Y-037000
X065000Y-038000
X065000Y-039000
X065000Y-040000
X065000Y-041000
X065000Y-042000
X065000Y-043000
X065000Y-044000
X065000Y-045000
X065000Y-046000
X065000Y-047000
X065000Y-048000
X065000Y-049000
X065000Y-050000
X065000Y-051000
X065000Y-052000
X065000Y-053000
X065000Y-054000
X065000Y-055000
X065000Y-056000
X065000Y-057000
X066000Y-022000
X066000Y-023000
X066000Y-024000
X066000Y-025000
X066000Y-026000
X066000Y-027000
X066000Y-028000
X066000Y-029000
X066000Y-030000
X066000Y-031000
X066000Y-032000
X066000Y-033000
X066000Y-034000
X066000Y-035000
X066000Y-036000
X066000Y-037000
X066000Y-038000
X066000Y-039000
X066000Y-040000
X066000Y-041000
X066000Y-042000
X066000Y-043000
X066000Y-044000
X066000Y-045000
X066000Y-046000
X066000Y-047000
X066000Y-048000
X066000Y-049000
X066000Y-050000
X066000Y-051000
X066000Y-052000
X066000Y-053000
X066000Y-054000
X066000Y-055000
X066000Y-056000
X066000Y-057000
X067000Y-022000
X067000Y-023000
X067000Y-024000
X067000Y-025000
X067000Y-026000
X067000Y-027000
X067000Y-028000
X067000Y-029000
X067000Y-030000
X067000Y-031000
X067000Y-032000
X067000Y-033000
X067000Y-034000
X067000Y-035000
X067000Y-036000
X067000Y-037000
X067000Y-038000
X067000Y-039000
X067000Y-040000
X067000Y-041000
X067000Y-042000
X067000Y-043000
X067000Y-044000
X067000Y-045000
X067000Y-046000
X067000Y-047000
X067000Y-048000
X067000Y-049000
X067000Y-050000
X067000Y-051000
X067000Y-052000
X067000Y-053000
X067000Y-054000
X067000Y-055000
X067000Y-056000
X067000Y-057000
X068000Y-022000
X068000Y-023000
X068000Y-024000
X068000Y-025000
X068000Y-026000
X068000Y-027000
X068000Y-028000
X068000Y-029000
X068000Y-030000
X068000Y-031000
X068000Y-032000
X068000Y-033000
X068000Y-034000
X068000Y-035000
X068000Y-036000
X068000Y-037000
X068000Y-038000
X068000Y-039000
X068000Y-040000
X068000Y-041000
X068000Y-042000
X068000Y-043000
X068000Y-044000
X068000Y-045000
X068000Y-046000
X068000Y-047000
X068000Y-048000
X068000Y-049000
X068000Y-050000
X068000Y-051000
X068000Y-052000
X068000Y-053000
X068000Y-054000
X068000Y-055000
X068000Y-056000
X068000Y-057000
X069000Y-022000
X069000Y-023000
X069000Y-024000
X069000Y-025000
X069000Y-026000
X069000Y-027000
X069000Y-028000
X069000Y-029000
X069000Y-030000
X069000Y-031000
X069000Y-032000
X069000Y-033000
X069000Y-034000
X069000Y-035000
X069000Y-036000
X069000Y-037000
X069000Y-038000
X069000Y-039000
X069000Y-040000
X069000Y-041000
X069000Y-042000
X069000Y-043000
X069000Y-044000
X069000Y-045000
X069000Y-046000
X069000Y-047000
X069000Y-048000
X069000Y-049000
X069000Y-050000
X069000Y-051000
X069000Y-052000
X069000Y-053000
X069000Y-054000
X069000Y-055000
X069000Y-056000
X069000Y-057000
X070000Y-022000
X070000Y-023000
X070000Y-024000
X070000Y-025000
X070000Y-026000
X070000Y-027000
X070000Y-028000
X070000Y-029000
X070000Y-030000
X070000Y-031000
X070000Y-032000
X070000Y-033000
X070000Y-034000
X070000Y-035000
X070000Y-036000
X070000Y-037000
X070000Y-038000
X070000Y-039000
X070000Y-040000
X070000Y-041000
X070000Y-042000
X070000Y-043000
X070000Y-044000
X070000Y-045000
X070000Y-046000
X070000Y-047000
X070000Y-048000
X070000Y-049000
X070000Y-050000
X070000Y-051000
X070000Y-052000
X070000Y-053000
X070000Y-054000
X070000Y-055000
X070000Y-056000
X070000Y-057000
X071000Y-022000
X071000Y-023000
X071000Y-024000
X071000Y-025000
X071000Y-026000
X071000Y-027000
X071000Y-028000
X071000Y-029000
X071000Y-030000
X071000Y-031000
X071000Y-032000
X071000Y-033000
X071000Y-034000
X071000Y-035000
X071000Y-036000
X071000Y-037000
X071000Y-038000
X071000Y-039000
X071000Y-040000
X071000Y-041000
X071000Y-042000
X071000Y-043000
X071000Y-044000
X071000Y-045000
X071000Y-046000
X071000Y-047000
X071000Y-048000
X071000Y-049000
X071000Y-050000
X071000Y-051000
X071000Y-052000
X071000Y-053000
X071000Y-054000
X071000Y-055000
X071000Y-056000
X071000Y-057000
X072000Y-024000
X072000Y-025000
X072000Y-026000
X072000Y-027000
X072000Y-028000
X072000Y-029000
X072000Y-030000
X072000Y-031000
X072000Y-032000
X072000Y-033000
X072000Y-048000
X072000Y-049000
X072000Y-050000
X072000Y-051000
X072000Y-052000
X072000Y-053000
X072000Y-054000
X072000Y-055000
X073000Y-024000
X073000Y-025000
X073000Y-026000
X073000Y-027000
X073000Y-028000
X073000Y-029000
X073000Y-030000
X073000Y-031000
X073000Y-032000
X073000Y-033000
X073000Y-037000
X073000Y-040000
X073000Y-041000
X073000Y-044000
X073000Y-048000
X073000Y-049000
X073000Y-050000
X073000Y-051000
X073000Y-052000
X073000Y-053000
X073000Y-054000
X073000Y-055000
X074000Y-024000
X074000Y-025000
X074000Y-026000
X074000Y-027000
X074000Y-028000
X074000Y-029000
X074000Y-030000
X074000Y-031000
X074000Y-032000
X074000Y-033000
X074000Y-048000
X074000Y-049000
X074000Y-050000
X074000Y-051000
X074000Y-052000
X074000Y-053000
X074000Y-054000
X074000Y-055000
X075000Y-024000
X075000Y-025000
X075000Y-026000
X075000Y-027000
X075000Y-028000
X075000Y-029000
X075000Y-030000
X075000Y-031000
X075000Y-032000
X075000Y-033000
X075000Y-048000
X075000Y-049000
X075000Y-050000
X075000Y-051000
X075000Y-052000
X075000Y-053000
X075000Y-054000
X075000Y-055000
X076000Y-024000
X076000Y-025000
X076000Y-026000
X076000Y-027000
X076000Y-028000
X076000Y-029000
X076000Y-030000
X076000Y-031000
X076000Y-032000
X076000Y-033000
X076000Y-048000
X076000Y-049000
X076000Y-050000
X076000Y-051000
X076000Y-052000
X076000Y-053000
X076000Y-054000
X076000Y-055000
X077000Y-024000
X077000Y-025000
X077000Y-026000
X077000Y-027000
X077000Y-028000
X077000Y-029000
X077000Y-030000
X077000Y-031000
X077000Y-032000
X077000Y-033000
X077000Y-048000
X077000Y-049000
X077000Y-050000
X077000Y-051000
X077000Y-052000
X077000Y-053000
X077000Y-054000
X077000Y-055000
X078000Y-022000
X078000Y-023000
X078000Y-024000
X078000Y-025000
X078000Y-026000
X078000Y-027000
X078000Y-028000
X078000Y-029000
X078000Y-030000
X078000Y-031000
X078000Y-032000
X078000Y-033000
X078000Y-048000
X078000Y-049000
X078000Y-050000
X078000Y-051000
X078000Y-052000
X078000Y-053000
X078000Y-054000
X078000Y-055000
X078000Y-056000
X078000Y-057000
X079000Y-022000
X079000Y-023000
X079000Y-024000
X079000Y-025000
X079000Y-026000
X079000Y-027000
X079000Y-028000
X079000Y-029000
X079000Y-030000
X079000Y-031000
X079000Y-032000
X079000Y-033000
X079000Y-048000
X079000Y-049000
X079000Y-050000
X079000Y-051000
X079000Y-052000
X079000Y-053000
X079000Y-054000
X079000Y-055000
X079000Y-056000
X079000Y-057000
X080000Y-022000
X080000Y-023000
X080000Y-024000
X080000Y-025000
X080000Y-026000
X080000Y-027000
X080000Y-028000
X080000Y-029000
X080000Y-030000
X080000Y-031000
X080000Y-032000
X080000Y-033000
X080000Y-048000
X080000Y-049000
X080000Y-050000
X080000Y-051000
X080000Y-052000
X080000Y-053000
X080000Y-054000
X080000Y-055000
X080000Y-056000
X080000Y-057000
X081000Y-022000
X081000Y-023000
X081000Y-024000
X081000Y-025000
X081000Y-026000
X081000Y-027000
X081000Y-028000
X081000Y-029000
X081000Y-030000
X081000Y-031000
X081000Y-032000
X081000Y-033000
X081000Y-048000
X081000Y-049000
X081000Y-050000
X081000Y-051000
X081000Y-052000
X081000Y-053000
X081000Y-054000
X081000Y-055000
X081000Y-056000
X081000Y-057000
X082000Y-022000
X082000Y-023000
X082000Y-024000
X082000Y-025000
X082000Y-026000
X082000Y-027000
X082000Y-028000
X082000Y-029000
X082000Y-030000
X082000Y-031000
X082000Y-032000
X082000Y-033000
X082000Y-048000
X082000Y-049000
X082000Y-050000
X082000Y-051000
X082000Y-052000
X082000Y-053000
X082000Y-054000
X082000Y-055000
X082000Y-056000
X082000Y-057000
X083000Y-022000
X083000Y-023000
X083000Y-024000
X083000Y-025000
X083000Y-026000
X083000Y-027000
X083000Y-028000
X083000Y-029000
X083000Y-030000
X083000Y-031000
X083000Y-032000
X083000Y-033000
X083000Y-048000
X083000Y-049000
X083000Y-050000
X083000Y-051000
X083000Y-052000
X083000Y-053000
X083000Y-054000
X083000Y-055000
X083000Y-056000
X083000Y-057000
X084000Y-022000
X084000Y-023000
X084000Y-024000
X084000Y-025000
X084000Y-026000
X084000Y-027000
X084000Y-028000
X084000Y-029000
X084000Y-030000
X084000Y-031000
X084000Y-032000
X084000Y-033000
X085000Y-022000
X085000Y-023000
X085000Y-024000
X085000Y-025000
X085000Y-026000
X085000Y-027000
X085000Y-028000
X085000Y-029000
X085000Y-030000
X085000Y-031000
X085000Y-032000
X085000Y-033000
X085000Y-053000
X085000Y-056000
T2
X023350Y-038681
X023350Y-039488
X023350Y-040512
X023350Y-041319
X024331Y-038681
X024331Y-041319
T3
X027000Y-025000
X027000Y-026000
X027000Y-028000
X027000Y-029000
X032000Y-021000
X033000Y-021000
X034000Y-021000
X035000Y-021000
X036000Y-021000
X037000Y-021000
X038000Y-021000
X043000Y-025000
X043000Y-026000
X050000Y-048000
X050000Y-052000
X050000Y-053000
X050000Y-057000
X050000Y-058000
X051000Y-048000
X051000Y-052000
X051000Y-053000
X051000Y-057000
X051000Y-058000
X052000Y-052000
X052000Y-053000
X052000Y-057000
X052000Y-058000
X053000Y-048000
X053000Y-052000
X053000Y-053000
X053000Y-057000
X053000Y-058000
X054000Y-048000
X054000Y-052000
X054000Y-053000
X054000Y-057000
X054000Y-058000
X055000Y-057000
X055000Y-058000
X056000Y-057000
X056000Y-058000
X057000Y-057000
X057000Y-058000
X058000Y-057000
X058000Y-058000
X059000Y-057000
X059000Y-058000
X060000Y-057000
X060000Y-058000
X061000Y-057000
X061000Y-058000
X062000Y-057000
X062000Y-058000
X085000Y-050000
X085000Y-051000
T4
X023190Y-025380
X023190Y-026450
X023190Y-027540
X023190Y-028620
X023500Y-051098
X023500Y-052000
X023500Y-052902
X023500Y-053807
X023500Y-054709
X024310Y-024840
X024310Y-025920
X024310Y-027000
X024310Y-028080
X024310Y-029160
X024500Y-051549
X024500Y-052451
X024500Y-053352
X024500Y-054254
X024500Y-055156
X025500Y-051098
X025500Y-052000
X025500Y-052902
X025500Y-053807
X025500Y-054709
T5
X051000Y-042000
X052000Y-042000
X053000Y-042000
T6
X021850Y-040000
X022169Y-037339
X022169Y-042661
T7
X047244Y-021246
X047244Y-058254
X052000Y-035500
X074803Y-021246
X074803Y-058254
T8
X023750Y-022081
X023750Y-031919
X024500Y-048081
X024500Y-057919
T0
M30
